<?xml version="1.0"?>
<svg xmlns:rdf="http://www.w3.org/1999/02/22-rdf-syntax-ns#" xmlns="http://www.w3.org/2000/svg" xmlns:cc="http://creativecommons.org/ns#" xmlns:dc="http://purl.org/dc/elements/1.1/" xmlns:svg="http://www.w3.org/2000/svg" id="svg2" viewBox="0 0 300 150" version="1.1">
  <g id="layer1" transform="translate(-6.7003 5.6495)">
    <g id="g2979" fill="#0f0" transform="matrix(.96593 -.25882 .25882 .96593 -447.04 -294.44)">
      <path id="path2825" d="m393.69 483.56-0.75 1.4688c0.00057 0.0106-0.00064 0.0207 0 0.0312 0.0193 0.31656 0.0822 0.62509 0.15625 0.9375-0.0762 0.16373-0.16916 0.33006-0.25 0.5-0.31556 0.0788-0.4465 0.11196-0.75 0.1875l-0.4375 0.875c0.27599-0.0704 0.50913-0.1179 0.78125-0.1875-0.25688 0.52284-0.50582 1.0913-0.8125 1.6875-0.17579-0.15817-0.32718-0.31329-0.5-0.46875l-1.63 3.16c0.13255 0.10299 0.27196 0.20809 0.40625 0.3125-0.12895 0.0582-0.30727 0.15986-0.4375 0.21875-0.0282-0.0963-0.0653-0.18529-0.0937-0.28125l-2.5312 5c0.0206 0.0314 0.0419 0.0624 0.0625 0.0937-0.16403 0.25215-0.33384 0.49925-0.5 0.75l-8.0938 15.875c0.0235 0.70204 0.14305 1.3426 0.71875 1.5312 0.17897 0.0586 0.81248 0.0323 1.5938-0.0625 0.15743-0.12509 0.3343-0.22573 0.5-0.34375-0.12641 0.11386-0.24853 0.22996-0.375 0.34375 0.2215-0.0288 0.44584-0.0827 0.6875-0.125-0.368 0.42262-1.762 1.2231-1.625 0.9375-0.35785 0.32121-0.70427 0.64795-1.0625 0.96875-0.79719 0.24239-1.5922 0.45775-2.4062 0.625l-0.3125 0.59375 2.0625 0.46875c0.0562-0.0504 0.10006-0.10584 0.15625-0.15625 0.90634-0.31706 1.8794-0.66844 2.875-1.0312 0.00073 0.0969 0.00034 0.18376 0.0312 0.28125 0.17862 0.56339 1.2167 0.53602 1.75 0.28125 0.477-0.22787 0.90417-0.46085 1.3438-0.6875 0.12146 0.71116 0.2289 1.3482 0.375 1.9688l2.8125-6.6875h2.0938c-0.39185-0.14539-1.2414-0.48334-1.625-0.625-0.0959-0.35671-0.21547-0.70614-0.3125-1.0625 0.26223-0.49584 0.52825-1.0106 0.8125-1.5312 0.18677-0.16585 0.54386-0.46978 0.71875-0.625 0.2821-0.25038 0.56101-0.50034 0.84375-0.75 0.639-0.0146 1.2679-0.0642 1.9062-0.0937-0.4705 1.3356-0.98052 2.6708-1.4688 4-0.29782 0.22101-0.5783 0.4651-0.875 0.6875h7.0312c0.0915-0.0951 0.18957-0.18631 0.28125-0.28125 0.0227-0.0185 0.0398-0.044 0.0625-0.0625 0.0737 0.1116 0.14546 0.2328 0.21875 0.34375h2.4375l3.125 6.5c0.0924-0.30367 0.18692-0.60318 0.28125-0.90625 0.20785-0.10493 2.1744-0.99788 4.375-2.125 0.28029 0.9258 0.58204 1.8491 0.84375 2.7812l2.3438-0.5c0.0382-0.23908 0.0875-0.47958 0.125-0.71875 0.0539-0.17722 0.10169-0.35423 0.15625-0.53125l-17.125-33.562zm-13.88 32.44c0.30873-0.27712 0.6291-0.53501 0.9375-0.8125-0.0419 0.005-0.0841-0.005-0.125 0-0.2874 0.22836-0.55641 0.47185-0.78125 0.75-0.0235 0.029-0.0221 0.0435-0.0312 0.0625zm14.344-26.719c0.0205 0.03 0.0733 0.0324 0.0937 0.0625-0.14391 0.32387-0.29288 0.6452-0.4375 0.96875-0.0953 0.0424-0.21757 0.0514-0.3125 0.0937 0.005 0.007-0.005 0.0244 0 0.0312 0.061 0.0844 0.12484 0.16676 0.1875 0.25-0.13548 0.062-0.27083 0.12541-0.40625 0.1875 0.0484-0.17865 0.10543-0.35324 0.15625-0.53125 0.0175 0.0233 0.0454 0.039 0.0625 0.0625 0.21849-0.38024 0.45243-0.75792 0.65625-1.125zm0.0937 2.1875c0.14348 0.18934 0.29366 0.37346 0.4375 0.5625 0.49207 0.64667 1.0411 1.3012 1.5625 1.9688-0.92138 0.38337-1.9161 0.79545-2.9688 1.2812-0.0431-0.0597-0.11688-0.16295-0.15625-0.21875-0.20716-0.29365-0.40285-0.60236-0.59375-0.90625 0.12922-0.70971 0.30089-1.4244 0.46875-2.125 0.41967-0.18823 0.82922-0.37681 1.25-0.5625zm-2.5625 1.9688c0.1157 0.0902 0.2276 0.1594 0.34375 0.25-0.22861 0.10548-0.45875 0.20732-0.6875 0.3125 0.11733-0.18883 0.22778-0.37389 0.34375-0.5625zm0.15625 1.1875c-0.20631 0.4482-0.3731 0.81074-0.5625 1.2188-0.13617-0.0597-0.26793-0.12687-0.40625-0.1875-0.0824-0.16661-0.16716-0.3336-0.25-0.5 0.40433-0.18203 0.81452-0.34899 1.2188-0.53125zm6.75 2.375c0.11124 0.13872 0.23208 0.26738 0.34375 0.40625-0.14694 0.50024-0.28463 1.0246-0.375 1.5312-0.37127 0.37704-0.68018 0.68712-1.125 1.125-0.18351-0.19266-0.37792-0.37095-0.5625-0.5625 0.53789-0.77954 0.9503-1.3924 1.6562-2.4062 0.0214-0.0307 0.0411-0.0631 0.0625-0.0937zm-2.4375 0.125c-0.21822 0.31494-0.44032 0.62103-0.65625 0.9375-0.11446-0.11328-0.22842-0.23137-0.34375-0.34375 0.32689-0.19909 0.71963-0.42239 1-0.59375zm-2.7188 1.4375 3.2812 7.25h-1.5c-0.19647 0.16621-0.28974 0.22856-0.5 0.40625-0.35324 0.0294-0.70982 0.0646-1.0625 0.0937 0.1655-0.16704 0.33502-0.33244 0.5-0.5h-3.9062l3.1875-7.25zm-5.3125 0.40625c0.12336 0.18831 0.25166 0.37418 0.375 0.5625-0.34602 0.13055-0.68514 0.27595-1.0312 0.40625 0.22401-0.32528 0.42601-0.62819 0.65625-0.96875zm0.8125 1.2188c0.0617 0.0942 0.12583 0.18709 0.1875 0.28125-0.0757 0.15762-0.20485 0.37258-0.28125 0.53125-0.40171 0.31009-0.79167 0.625-1.1562 0.9375-0.25552 0.21902-0.89803 0.70658-1.5312 1.3125-0.22254 0.072-0.43441 0.14855-0.65625 0.21875-0.0544-0.18657-0.10168-0.37597-0.15625-0.5625 0.30106-0.39962 0.68064-0.91593 0.875-1.1875 0.15472-0.21618 0.33942-0.49068 0.5-0.71875 0.74165-0.26713 1.4768-0.54618 2.2188-0.8125zm13.75 3.5625c0.24943 0.12546 0.50079 0.24909 0.75 0.375-0.29374 0.24861-0.42406 0.38082-0.75 0.65625-0.36331 0.0302-0.73104 0.0638-1.0938 0.0937 0.366-0.36926 0.73011-0.75337 1.0938-1.125zm-19.219 1.7188c0.19321 0.29434 0.40038 0.58077 0.59375 0.875-0.1635 0.14938-0.33636 0.28828-0.5 0.4375-0.23195-0.0778-0.47288-0.1317-0.71875-0.1875 0.11318-0.20098 0.35431-0.63209 0.4375-0.78125 0.0644-0.11347 0.12308-0.23028 0.1875-0.34375zm22.094 1.4688c-0.0223 0.11429-0.0402 0.22946-0.0625 0.34375-0.10592 0.091-0.20659 0.1906-0.3125 0.28125-0.0308 0.0116-0.063 0.0196-0.0937 0.0312-0.24042-0.17422-0.48049-0.3541-0.71875-0.53125 0.39672-0.0264 0.79151-0.0907 1.1875-0.125zm-23.5 0.3125c0.17364 0.65974 0.37147 1.4049 0.5625 2.1875 0.42809-0.0126 0.85841-0.0119 1.2812-0.0312-0.46233 1.3124-0.92681 2.6313-1.4062 3.9375-0.31086 0.23066-0.62779 0.45541-0.9375 0.6875-0.39612-0.14696-1.2683-0.45051-1.6562-0.59375-0.0926-0.34434-0.18758-0.68723-0.28125-1.0312 0.26223-0.49584 0.52825-1.0106 0.8125-1.5312 0.18677-0.16585 0.54386-0.46978 0.71875-0.625 0.29801-0.2645 0.60753-0.51755 0.90625-0.78125 0.12377-0.003 0.25014 0.003 0.375 0-0.17804-0.72399-0.30527-1.4531-0.4375-2.1875 0.0194-0.0125 0.0431-0.0187 0.0625-0.0312zm15.531 1.1562c-0.0223 0.11429-0.0402 0.22946-0.0625 0.34375-0.11142 0.0957-0.23234 0.18591-0.34375 0.28125-0.0126 0.005-0.0187 0.0265-0.0312 0.0312-0.24721-0.179-0.50507-0.34915-0.75-0.53125 0.39672-0.0264 0.79151-0.0907 1.1875-0.125zm4.8438 3c0.27538 0.20478 0.53842 0.41848 0.8125 0.625-0.0439 0.2063-0.0899 0.41612-0.125 0.625-0.24984-0.3861-0.4736-0.82322-0.6875-1.25zm5.4062 1.625c-0.0931 0.48668-0.18366 0.96003-0.28125 1.4375-0.15721 0.0725-0.31147 0.14377-0.46875 0.21875 0.067-0.41588 0.11942-0.83429 0.1875-1.25 0.16405-0.11488 0.35099-0.24995 0.5625-0.40625zm-25.406 1.8125c-0.11712 0.21628-0.23139 0.43741-0.34375 0.65625-0.0829 0.16138-0.1716 0.30433-0.28125 0.46875-0.10627 0.0342-0.20647 0.0911-0.3125 0.125-0.099 0.26224-0.21252 0.5188-0.3125 0.78125-0.10358 0.0941-0.20871 0.18727-0.3125 0.28125-0.0829-0.31316-0.11968-0.5316-0.1875-0.8125-0.008-0.0332-0.0224-0.0583-0.0312-0.0937 0.13593-0.0919 0.27088-0.18921 0.40625-0.28125 0.0185-0.0166 0.044-0.0147 0.0625-0.0312 0.41986-0.37524 0.71497-0.66526 1.125-1.0312 0.0631-0.0145 0.12429-0.047 0.1875-0.0625zm24.531 0c0.0521 0.16708 0.10467 0.33264 0.15625 0.5-0.25974 0.009-0.4897 0.0528-0.71875 0.15625-1.0291 0.46497-2.0512 0.96588-3.0625 1.4688 0.12088-0.37433 0.24977-0.75204 0.375-1.125 1.2465-0.41079 2.2742-0.71086 3.25-1zm-22.39 4.65c-0.18905 0.16446-0.37321 0.33623-0.5625 0.5l0.3125 0.0625 0.25-0.5625z"/>
      <path id="path2827" d="m428.84 493.41c-0.98309 0.007-1.9089 0.16409-2.7812 0.4375-0.83335 0.26695-1.5469 0.56122-2.0938 0.90625-0.54689 0.34507-1.1888 0.88935-1.9375 1.625v-2.875l-4.625 0.4375c-0.5637 0.84873-1.1324 1.6977-1.7188 2.5312-0.13286-0.44816-0.27269-0.89577-0.40625-1.3438-0.12831-0.44757-0.17107-0.58644-0.28125-0.96875h-0.125v19.406c0.14618-0.0735 0.29505-0.14531 0.4375-0.21875 0.12911 0.75597 0.25076 1.4258 0.40625 2.0625-0.28351 0.24686-0.55971 0.5047-0.84375 0.75v1.0938c0.37279-0.31907 0.75191-0.64637 1.125-0.96875 0.17045 0.36184 0.4695 0.65263 0.71875 0.96875-0.61558 0.50965-1.2288 1.0208-1.8438 1.5312v0.3125c0.83956-0.7031 1.6896-1.3932 2.5312-2.0938 0.24791-0.12906 0.50077-0.24818 0.75-0.375-0.31621 0.78538-0.61563 1.4583-0.90625 2.0625-0.77814 0.57926-1.5786 1.1659-2.375 1.75v0.28125c0.72262-0.52954 1.4478-1.0376 2.1562-1.5625-1.0396 2.1043-1.6293 3.0315-0.4375 3.0938-0.0212 0.0409-0.041 0.0843-0.0625 0.125-0.57304 0.27926-1.1583 0.57541-1.6562 0.8125v1.0312c2.215-1.1557 4.4345-2.2931 4.5312-2.3438 0.009-0.005 0.0222 0.005 0.0312 0 0.27055-0.0531 0.4723-0.0931 0.78125-0.15625 0.14596-0.0298 0.16311-0.23233 0.1875-0.40625 0.21034-0.11538 0.38977-0.20066 0.59375-0.3125-0.2383 0.38977-0.52812 0.8172-0.75 1.1875-0.44373 0.21412-1.243 0.59112-1.375 0.65625-0.52865 0.26079-1.0719 0.48564-1.5625 0.8125-0.71106 0.47378-1.6222 0.83117-2.4375 1.25v1.875c0.01-0.003 0.0217 0.003 0.0312 0 1.1263-0.33885 2.2482-0.69394 3.375-1.0312-0.11975 0.24591-0.23962 0.49742-0.34375 0.75l3.2812-0.3125c0.12536-0.50359 0.26471-1.0133 0.4375-1.5 0.31388-0.0994 0.62367-0.21294 0.9375-0.3125v-5.9688c-0.27434 0.43562-0.5135 0.85065-0.78125 1.2812-0.32916 0.17284-0.67097 0.32693-1 0.5 0.29526-0.71585 0.61115-1.423 0.9375-2.125 0.36432-0.78369 0.7151-1.5667 1.0938-2.3438-0.009 0.35802-0.027 0.979-0.0312 1.2812 0.44634 0.34725 1.089 0.77873 2.0312 1.2812 0.52497 0.27918 1.0775 0.47595 1.6562 0.625-0.0425-0.30656-0.0967-0.60955-0.125-0.90625 1.5752-0.90023 3.21-1.859 5.1562-3.0625-0.19475 0.32592-0.37649 0.66579-0.59375 0.96875 0.085 0.33358 0.0842 0.72239 0.15625 1.0625-1.3957 0.67122-2.793 1.3575-4.1875 2.0312 0.5415 0.10922 1.1009 0.15625 1.6875 0.15625h0.0625c0.006-0.003 0.0253 0.003 0.0312 0 0.66272-0.32338 2.1182-1.0423 2.875-1.4062 0.32489 0.3144 0.71106 0.53829 1.125 0.75 0.31531-0.10824 0.62928-0.20891 0.9375-0.34375 3.2422-1.4193 5.5755-3.8047 6.9688-7.125 0.69008-1.6341 1.0195-3.2825 1-4.9688-0.0261-2.2721-0.63935-4.4023-1.8438-6.375-1.1849-1.9401-2.7474-3.4739-4.6875-4.5938-1.9727-1.1328-4.0378-1.7005-6.2188-1.6875zm-9.6562 1.5625c0.12336 0.18831 0.25166 0.37418 0.375 0.5625-0.34602 0.13055-0.68514 0.27595-1.0312 0.40625 0.22401-0.32528 0.42601-0.62819 0.65625-0.96875zm0.82 1.22c0.0617 0.0942 0.12583 0.18709 0.1875 0.28125-0.0757 0.15762-0.20485 0.37258-0.28125 0.53125-0.40171 0.31009-0.79167 0.625-1.1562 0.9375-0.25552 0.21902-0.89803 0.70658-1.5312 1.3125-0.22254 0.072-0.43441 0.14855-0.65625 0.21875-0.0544-0.18657-0.10168-0.37597-0.15625-0.5625 0.30106-0.39962 0.68064-0.91593 0.875-1.1875 0.15472-0.21618 0.33942-0.49068 0.5-0.71875 0.74165-0.26713 1.4768-0.54618 2.2188-0.8125zm13.75 3.5625c0.24943 0.12546 0.50079 0.24909 0.75 0.375-0.29374 0.24861-0.42406 0.38082-0.75 0.65625-0.36331 0.0302-0.73104 0.0638-1.0938 0.0937 0.366-0.36926 0.73011-0.75337 1.0938-1.125zm-11.25 0.25c0.19798 0.30161 0.3956 0.60476 0.59375 0.90625-0.15738 0.14378-0.31124 0.29386-0.46875 0.4375-0.23893-0.0832-0.49504-0.16091-0.75-0.21875 0.11318-0.20098 0.35431-0.63209 0.4375-0.78125 0.0644-0.11347 0.12308-0.23028 0.1875-0.34375zm6.1875 0.28125c2.1745 0.24741 3.7252 1.3659 4.6562 3.3125 0.47524 1.0026 0.68875 2.0612 0.65625 3.1875-0.008 0.30344-0.0563 0.60812-0.125 0.90625 0.14918 0.11153 0.28874 0.23166 0.4375 0.34375-0.0439 0.2063-0.0899 0.41612-0.125 0.625-0.13173-0.20358-0.25211-0.43674-0.375-0.65625-0.1601 0.52829-0.4292 1.0511-0.78125 1.5625-0.77232 1.1216-1.6989 1.9-2.7812 2.3438 0.10092 0.14671 0.18011 0.28441 0.28125 0.40625-0.26915-0.10068-0.43016-0.15372-0.6875-0.25-0.62148 0.19996-1.2831 0.28988-2 0.28125-1.0547-0.013-2.0508-0.32551-2.9688-0.9375-1.7195-1.1386-2.6744-2.7719-2.875-4.9062-0.17325 0.47881-0.35568 0.95953-0.53125 1.4375-0.2928 0.21728-0.58327 0.43764-0.875 0.65625-0.39819-0.14774-1.2665-0.48108-1.6562-0.625-0.0926-0.34434-0.18758-0.68723-0.28125-1.0312 0.26223-0.49584 0.52825-1.0106 0.8125-1.5312 0.18677-0.16585 0.54386-0.46978 0.71875-0.625 0.2821-0.25038 0.56101-0.50034 0.84375-0.75 0.43995-0.01 0.87279-0.0467 1.3125-0.0625 0.3771-0.90721 1.012-1.6829 1.875-2.3125 1.2435-0.90493 2.7435-1.375 4.4688-1.375zm7.9375 2.6562c-0.0223 0.11429-0.0402 0.22946-0.0625 0.34375-0.10592 0.091-0.20659 0.1906-0.3125 0.28125-0.0308 0.0116-0.063 0.0196-0.0937 0.0312-0.24042-0.17422-0.48049-0.3541-0.71875-0.53125 0.39672-0.0264 0.79151-0.0907 1.1875-0.125zm2.2812 6.0938c-0.0931 0.48668-0.18366 0.96003-0.28125 1.4375-0.16585 0.0765-0.33407 0.1395-0.5 0.21875 0.0654-0.40607 0.12105-0.81284 0.1875-1.2188 0.17167-0.11936 0.36893-0.27136 0.59375-0.4375zm-18.29 1.28c-0.14218 0.37759-0.29383 0.74797-0.4375 1.125-0.0927 0.0842-0.18836 0.16588-0.28125 0.25-0.0927-0.35014-0.13531-0.57056-0.21875-0.90625 0.14443-0.0976 0.29535-0.18273 0.4375-0.28125 0.17843-0.0683 0.32258-0.11953 0.5-0.1875zm5.8438 1.875c0.0309 0.0114 0.0629 0.0199 0.0937 0.0312-0.0349 0.0534-0.0891 0.13255-0.125 0.1875 0.004-0.0751 0.0268-0.14162 0.0312-0.21875zm11.594 0.5c-0.11505 0.36504-0.22898 0.72864-0.34375 1.0938-0.0209 0.0101-0.0416 0.0211-0.0625 0.0312 0.0516-0.33386 0.10397-0.66625 0.15625-1 0.0858-0.0412 0.16485-0.0827 0.25-0.125zm-9.7812 0.15625c0.90208 0.33764 1.7878 0.68696 2.6875 1.0312-1.0609 0.86899-2.2088 1.6467-3.3125 2.4688-0.0562 0.0419-0.0643 0.1524-0.125 0.1875-0.39196 0.22654-0.79245 0.43516-1.1875 0.65625-0.0181-0.35262-0.0307-0.75471-0.0312-1.1562 0.6749-1.1213 1.3432-2.179 1.9688-3.1875z"/>
      <path id="path2829" d="m458.69 493.41c-0.98309 0.007-1.9089 0.16409-2.7812 0.4375-0.83335 0.26695-1.5469 0.56122-2.0938 0.90625-0.05 0.0315-0.10456 0.0902-0.15625 0.125-0.20631 0.4482-0.3731 0.81074-0.5625 1.2188-0.14854-0.0651-0.2864-0.15251-0.4375-0.21875-0.0248-0.0501-0.0377-0.1062-0.0625-0.15625-0.23028 0.20424-0.46536 0.40727-0.71875 0.65625v-2.875l-7.1562 0.65625v24.125c0.477-0.22787 0.90417-0.46085 1.3438-0.6875 0.12911 0.75597 0.25076 1.4258 0.40625 2.0625-0.5852 0.50957-1.1629 1.0288-1.75 1.5312v1.0938c0.67652-0.57446 1.3531-1.1641 2.0312-1.75 0.17045 0.36184 0.4695 0.65263 0.71875 0.96875-0.91759 0.75969-1.8339 1.5198-2.75 2.2812v0.34375c1.1444-0.96055 2.2892-1.9191 3.4375-2.875 0.24791-0.12906 0.50077-0.24818 0.75-0.375-0.31621 0.78538-0.61563 1.4583-0.90625 2.0625-1.0705 0.79691-2.1777 1.6012-3.2812 2.4062v0.28125c1.0332-0.75364 2.0564-1.4732 3.0625-2.2188-1.0396 2.1043-1.6293 3.0315-0.4375 3.0938-0.006 0.0125-0.0247 0.0188-0.0312 0.0312l2.5-0.21875c0.0296-0.0155 0.33633-0.18361 0.34375-0.1875 0.009-0.005 0.0222 0.005 0.0312 0 0.27055-0.0531 0.4723-0.0931 0.78125-0.15625 0.14596-0.0298 0.16311-0.23233 0.1875-0.40625 0.21034-0.11538 0.38977-0.20066 0.59375-0.3125-0.18828 0.30795-0.41539 0.64124-0.59375 0.9375l1.2812-0.125v-2.0625c-0.28797 0.15131-0.58709 0.28606-0.875 0.4375 0.27758-0.673 0.57142-1.3386 0.875-2v-5.5938c0.42967 0.37109 1.1758 0.86459 2.25 1.4375 0.94141 0.50064 1.9795 0.76157 3.0938 0.84375 0.42565-0.69829 0.85177-1.3892 1.25-2.0312 0.90208 0.33764 1.7878 0.68696 2.6875 1.0312-0.34866 0.28559-0.6977 0.5755-1.0625 0.84375 0.96987-0.16638 1.9042-0.41513 2.8125-0.8125 3.2422-1.4193 5.5755-3.8047 6.9688-7.125 0.69008-1.6341 1.0195-3.2825 1-4.9688-0.0261-2.2721-0.63935-4.4023-1.8438-6.375-0.40823-0.6684-0.87714-1.2727-1.375-1.8438-0.3375 0.34118-0.60637 0.6125-1 1-0.18351-0.19266-0.37792-0.37095-0.5625-0.5625 0.27295-0.39557 0.5306-0.76737 0.84375-1.2188-0.77322-0.75191-1.6368-1.4164-2.5938-1.9688-1.9727-1.1328-4.0378-1.7005-6.2188-1.6875zm-13.438 1.5625c0.12297 0.0531 0.0617 0.008 0.1875 0.0625 0.0511 0.0235 0.10517 0.0391 0.15625 0.0625-0.16432 0.0747-0.26912 0.14227-0.4375 0.21875 0.0362-0.11253 0.0573-0.23132 0.0937-0.34375zm1.1562 0.5c0.46792 0.21367 0.93787 0.4123 1.4062 0.625 0.11661 0.13342 0.20637 0.26875 0.3125 0.40625-0.48463 0.21357-0.95141 0.44587-1.4375 0.65625-0.49386 0.21653-0.69181 0.29609-1.1562 0.5-0.15859-0.54916-0.30667-1.1068-0.4375-1.5625 0.44572-0.20372 0.89697-0.43528 1.3125-0.625zm19.562 0.40625c-0.23013 0.33194-0.45988 0.66639-0.6875 1-0.10918-0.10812-0.20254-0.23644-0.3125-0.34375 0.0108-0.0102 0.0205-0.0211 0.0312-0.0312 0.32168-0.19593 0.69249-0.45612 0.96875-0.625zm-17.375 1.2812c0.0412 0.0627 0.0838 0.12475 0.125 0.1875-0.74013 1.1377-1.5002 2.2646-2.2812 3.375-0.13286-0.44816-0.27269-0.89577-0.40625-1.3438-0.13213-0.46092-0.16828-0.60807-0.28125-1 0.94713-0.40776 1.9006-0.80181 2.8438-1.2188zm1.3438 2.0625c0.12336 0.18831 0.25166 0.37418 0.375 0.5625-0.34602 0.13055-0.68514 0.27595-1.0312 0.40625 0.22401-0.32528 0.42601-0.62819 0.65625-0.96875zm8.5938 1.0625c2.1745 0.24741 3.7252 1.3659 4.6562 3.3125 0.20401 0.4304 0.32706 0.85931 0.4375 1.3125 0.29304-0.29649 0.58344-0.60828 0.875-0.90625 0.24943 0.12546 0.50079 0.24909 0.75 0.375-0.29374 0.24861-0.42406 0.38082-0.75 0.65625-0.26968 0.0224-0.54313 0.0403-0.8125 0.0625 0.11521 0.5417 0.17281 1.1137 0.15625 1.6875-0.0261 0.95054-0.35028 1.8828-0.96875 2.7812-1.2956 1.8815-3.0196 2.8074-5.1875 2.7812-1.0547-0.013-2.0508-0.32551-2.9688-0.9375-0.66173-0.4382-1.2195-0.94559-1.6562-1.5312-0.27605 0.76989-0.56175 1.5448-0.84375 2.3125-0.2928 0.21728-0.58327 0.43764-0.875 0.65625-0.39819-0.14774-1.2665-0.48108-1.6562-0.625-0.0926-0.34434-0.18758-0.68723-0.28125-1.0312 0.26223-0.49584 0.52825-1.0106 0.8125-1.5312 0.18677-0.16585 0.54386-0.46978 0.71875-0.625 0.2821-0.25038 0.56101-0.50034 0.84375-0.75 0.15732-0.004 0.31145-0.0272 0.46875-0.0312-0.28262-0.79213-0.4375-1.6476-0.4375-2.625 0.16275-1.6601 0.90233-2.9857 2.25-3.9688 1.2435-0.90493 2.7435-1.375 4.4688-1.375zm-7.78 0.16c0.0617 0.0942 0.12583 0.18709 0.1875 0.28125-0.0757 0.15762-0.20485 0.37258-0.28125 0.53125-0.40171 0.31009-0.79167 0.625-1.1562 0.9375-0.25552 0.21902-0.89803 0.70658-1.5312 1.3125-0.22254 0.072-0.43441 0.14855-0.65625 0.21875-0.0544-0.18657-0.10168-0.37597-0.15625-0.5625 0.30106-0.39962 0.68064-0.91593 0.875-1.1875 0.15472-0.21618 0.33942-0.49068 0.5-0.71875 0.74165-0.26713 1.4768-0.54618 2.2188-0.8125zm16.625 6.75c-0.0223 0.11429-0.0402 0.22946-0.0625 0.34375-0.10592 0.091-0.20659 0.1906-0.3125 0.28125-0.0308 0.0116-0.063 0.0196-0.0937 0.0312-0.24042-0.17422-0.48049-0.3541-0.71875-0.53125 0.39672-0.0264 0.79151-0.0907 1.1875-0.125zm-3.125 4.4688c0.27538 0.20478 0.53842 0.41848 0.8125 0.625-0.0439 0.2063-0.0899 0.41612-0.125 0.625-0.24984-0.3861-0.4736-0.82322-0.6875-1.25zm-5.5312 0.875c0.196 0.29677 0.4006 0.61395 0.59375 0.90625-0.25479 0.38948-0.5268 0.76658-0.78125 1.1562-0.0529 0.0811-0.2212 0.34561-0.28125 0.4375-0.11438 0.0913-0.23004 0.15939-0.34375 0.25-0.19682-0.0737-0.43512-0.1477-0.625-0.21875 0.014-0.22104 0.016-0.29535 0.0312-0.53125 0.0127-0.19648 0.0474-0.39746 0.0625-0.59375 0.42383-0.44713 0.85332-0.90064 1.2812-1.3438 0.0227-0.0185 0.0398-0.044 0.0625-0.0625zm-7.3438 2.0312c-0.14218 0.37759-0.29383 0.74797-0.4375 1.125-0.0927 0.0842-0.18836 0.16588-0.28125 0.25-0.0927-0.35014-0.13531-0.57056-0.21875-0.90625 0.14443-0.0976 0.29535-0.18273 0.4375-0.28125 0.17843-0.0683 0.32258-0.11953 0.5-0.1875zm8.92 0.43c0.3096 0.59665 0.636 1.1616 0.96875 1.5625-0.61505-0.23006-1.0069-0.3858-1.5625-0.59375 0.2367-0.37839 0.38405-0.63589 0.59375-0.96875zm-3.0938 1.4375c0.0309 0.0114 0.0629 0.0199 0.0937 0.0312-0.0349 0.0534-0.0891 0.13255-0.125 0.1875 0.004-0.0751 0.0268-0.14162 0.0312-0.21875z"/>
      <path id="path2901" d="m478.38 511.78c0.97801 0.28907 2.0205 0.61577 3.2812 1.0312 0.12523 0.37296 0.25412 0.75067 0.375 1.125-1.0113-0.50287-2.0334-1.0038-3.0625-1.4688-0.23559-0.10644-0.48232-0.14869-0.75-0.15625 0.0544-0.17653 0.10128-0.35504 0.15625-0.53125zm-1.4375-9.0938c0.33244 0.48718 0.6718 0.98692 0.96875 1.4688-0.0822 0.0234-0.1682 0.0385-0.25 0.0625-0.26034-0.49999-0.49904-1.012-0.71875-1.5312zm0.06-0.31c0.0523 0.0203 0.10391 0.0422 0.15625 0.0625-0.0648 0.0405-0.11899 0.0841-0.1875 0.125 0.0177-0.064 0.0121-0.12673 0.0312-0.1875zm0.71875-1.1562c0.16548 0.11502 0.33379 0.22978 0.5 0.34375-0.10104 0.14849-0.27114 0.27906-0.46875 0.4375-0.17566-0.067-0.3556-0.12048-0.53125-0.1875 0.13826-0.27012 0.29463-0.4746 0.5-0.59375zm0.46875-0.125c0.0611 0.001 0.12144 0.0188 0.1875 0.0312 0.005 0.0481 0.0106 0.10659 0 0.15625-0.0313-0.009-0.0625-0.0217-0.0937-0.0312 0.0217 0.0202 0.0408 0.0422 0.0625 0.0625-0.002 0.009 0.003 0.0224 0 0.0312-0.16432-0.0621-0.33631-0.1238-0.5-0.1875 0.10568-0.0422 0.21861-0.0646 0.34375-0.0625zm11.06-6.98c0.26429 0.16148 0.63243 0.3767 0.9375 0.5625-0.0227 0.0281-0.0396 0.0654-0.0625 0.0937-0.0844 0.0827-0.16603 0.16685-0.25 0.25-0.20649-0.30264-0.41639-0.60502-0.625-0.90625zm-6.7188-0.5625-5.5938 0.71875c0.0559 0.19982 0.10423 0.34593 0.15625 0.53125-0.19257-0.15383-0.40511-0.34929-0.59375-0.5l-0.59375 0.0937c0.42183 0.3292 0.83215 0.63901 1.375 1.0625 0.0625 0.22199 0.16719 0.53572 0.21875 0.71875-0.59036-0.58994-1.183-1.1914-1.75-1.7812l-0.65625 0.0937v0.5625c0.91235 0.86193 1.854 1.7234 2.8125 2.5938 0.0853 0.30198 0.16347 0.6046 0.25 0.90625-0.28576 0.33408-0.47251 0.57562-0.78125 0.9375-0.22-0.22883-0.44498-0.45267-0.6875-0.65625 0.48837-1.1383 0.87163-2.2826-1.5938-1.5625v21.719l1.2812-0.125c0.0211-0.0833 0.0412-0.16673 0.0625-0.25 0.19689 0.0651 0.39684 0.1225 0.59375 0.1875l3.5312-0.34375c-1.2543-0.40867-2.4987-0.83227-3.75-1.25 0.37478-1.3938 0.76934-2.775 1.1875-4.1562 2.2122 1.1341 4.1976 2.0196 4.4062 2.125 0.0943 0.30307 0.18884 0.60258 0.28125 0.90625 0.10314 0.65772 0.2037 1.3118 0.3125 1.9688 0.012 0.008 0.0192 0.0229 0.0312 0.0312v-10c0-0.55988-0.0104-0.98306-0.0625-1.25 0.0521-1.4453 0.24543-2.5996 0.59375-3.4688 0.34829-0.86913 1.0625-1.4375 2.1562-1.75 0.55337-0.15628 1.1159-0.24998 1.6562-0.25 0.56639 0.00002 0.95832 0.0521 1.2188 0.15625l2.4375-7.625c-0.5534-0.11061-1.1784-0.18748-1.875-0.1875-0.82158 0.00001-1.6014 0.11697-2.3438 0.34375 0.006 0.009-0.006 0.0224 0 0.0312 0.69582 0.99937 1.1244 1.6042 1.6562 2.375-0.18277 0.18977-0.38077 0.37166-0.5625 0.5625-0.43915-0.43242-0.72667-0.75222-1.0938-1.125-0.0906-0.51322-0.22621-1.0246-0.375-1.5312 0.0564-0.0701 0.1-0.14866 0.15625-0.21875-0.45319 0.1543-0.88951 0.35305-1.3125 0.59375-1.2175 0.69013-2.1315 1.6446-2.75 2.875v-4.0625z"/>
      <path id="path2833" d="m497.94 514.62c0.004 0.0765 0.0271 0.14433 0.0312 0.21875-0.0359-0.0549-0.0901-0.13411-0.125-0.1875 0.0309-0.0114 0.0629-0.0199 0.0937-0.0312zm12.938-1.375c0.0538 0.0133 0.1025 0.0499 0.15625 0.0625 0.60588 0.54077 1.0615 0.94023 1.6875 1.5-0.39005-0.12193-0.79397-0.27966-1.1875-0.40625-0.11066-0.16584-0.22894-0.33726-0.3125-0.5-0.11311-0.2203-0.22582-0.43854-0.34375-0.65625zm-7.125-0.5625c0.18074 0.0693 0.3182 0.14919 0.5 0.21875 0.1524 0.1058 0.31374 0.20776 0.46875 0.3125-0.0836 0.33625-0.12589 0.55544-0.21875 0.90625-0.10379-0.094-0.20892-0.18719-0.3125-0.28125-0.14692-0.38567-0.29214-0.76999-0.4375-1.1562zm-7.3125-1.9688c0.0177 0.0144 0.0448 0.0169 0.0625 0.0312 0.43318 0.44845 0.85227 0.92244 1.2812 1.375 0.0144 0.1893 0.0503 0.37301 0.0625 0.5625 0.0152 0.23438 0.0173 0.31154 0.0312 0.53125-0.1926 0.0721-0.42525 0.17524-0.625 0.25-0.13007-0.10365-0.24404-0.20791-0.375-0.3125-0.0512-0.0784-0.20414-0.30477-0.25-0.375-0.2592-0.39695-0.52169-0.79075-0.78125-1.1875 0.18903-0.28607 0.40199-0.58465 0.59375-0.875zm20.188-4.9062c0.30195 0.0774 0.60381 0.14349 0.90625 0.21875-0.3024 0.10798-0.46264 0.17853-0.75 0.28125-0.0515-0.16401-0.10342-0.32893-0.15625-0.5zm-12.219-7.1875c0.74194 0.26632 1.4771 0.54537 2.2188 0.8125 0.15587 0.22139 0.34964 0.4773 0.5 0.6875 0.0312-0.00092 0.0624 0.0004 0.0937 0 1.0416-0.013 2.0312 0.26043 2.9688 0.78125 1.9726 1.1068 2.9375 2.7734 2.9375 5-0.00002 2.194-0.93621 3.849-2.8438 4.9688-0.91147 0.53386-1.8841 0.7995-2.9062 0.8125-1.1305 0.009-2.1483-0.29292-3.0625-0.875-0.11896 0.0441-0.37998 0.14298-0.5 0.1875-0.30971-0.23209-0.62664-0.45684-0.9375-0.6875-0.17572-0.47874-0.35785-0.95792-0.53125-1.4375-0.36848-0.60435-0.5808-1.2856-0.6875-2-0.0593-0.16751-0.12846-0.3324-0.1875-0.5 0.0412 0.002 0.0838-0.002 0.125 0-0.008-0.1325-0.0312-0.27021-0.0312-0.40625 0-0.82597 0.13665-1.5706 0.40625-2.25-0.0631 0.0184-0.12625 0.0412-0.1875 0.0625-0.15829-0.14433-0.3106-0.29303-0.46875-0.4375 0.19815-0.30149 0.39577-0.60464 0.59375-0.90625 0.0644 0.11347 0.12307 0.23028 0.1875 0.34375 0.0339 0.0609 0.14828 0.24255 0.1875 0.3125 0.46712-0.83333 1.1595-1.5456 2.0938-2.125 0.41028-0.25528 0.84259-0.45479 1.2812-0.59375-0.35605-0.30519-0.76472-0.60334-1.1562-0.90625-0.08-0.16619-0.20204-0.3975-0.28125-0.5625 0.0617-0.0942 0.12583-0.18709 0.1875-0.28125zm0.8125-1.2188c0.22518 0.33308 0.437 0.619 0.65625 0.9375-0.34642-0.13042-0.68493-0.27558-1.0312-0.40625 0.11858-0.18105 0.25641-0.35021 0.375-0.53125zm1.375-2.0938c0.92321 0.40807 1.8542 0.81947 2.7812 1.2188-0.11556 0.40087-0.14553 0.55781-0.28125 1.0312-0.13002 0.43613-0.24564 0.87621-0.375 1.3125-0.7772-1.1053-1.5446-2.2114-2.2812-3.3438 0.0491-0.0748 0.10718-0.14396 0.15625-0.21875zm2.1562-1.6562c0.41271 0.18843 0.87 0.3915 1.3125 0.59375-0.13331 0.46443-0.30659 1.0322-0.46875 1.5938-0.4549-0.19972-0.64192-0.28819-1.125-0.5-0.48206-0.20864-0.95688-0.44447-1.4375-0.65625 0.0948-0.12311 0.17786-0.25525 0.28125-0.375 0.48098-0.2184 0.95699-0.43683 1.4375-0.65625zm3.9688 19.969c-0.0423-0.005-0.0817-0.0256-0.125-0.0312 0.31168 0.28043 0.62548 0.56369 0.9375 0.84375-0.005-0.0214 0.002-0.0218-0.0312-0.0625-0.22172-0.2743-0.49838-0.52435-0.78125-0.75zm-5.8125-20.531c-1.5059 0.026-2.9727 0.31984-4.375 0.875-0.0145 0.0293-0.0167 0.0644-0.0312 0.0937-0.14761 0.0647-0.29234 0.12387-0.4375 0.1875-0.01-0.0213-0.0213-0.0411-0.0312-0.0625-0.53172 0.2371-1.0772 0.49793-1.5938 0.8125-1.9727 1.2044-3.5286 2.8438-4.6875 4.875-1.1849 2.0768-1.7448 4.2865-1.7188 6.6562 0.0195 1.6667 0.39453 3.2995 1.1562 4.875 0.73568 1.5169 1.7187 2.836 2.9688 3.9688 2.6237 2.3763 5.7031 3.5625 9.2188 3.5625 0.17577 0 0.45962-0.005 0.84375-0.0312 0.0312-0.002 0.0626 0.002 0.0937 0 0.0385-0.0609 0.063-0.12212 0.0937-0.1875 0.0554 0.0479 0.10083 0.10844 0.15625 0.15625 0.3678-0.0343 0.73519-0.093 1.0938-0.15625-0.32852-0.28334-0.64093-0.58955-0.96875-0.875 0.15315-0.62709 0.27834-1.3155 0.40625-2.0625 0.43466 0.2239 0.87254 0.46239 1.3438 0.6875 0.5333 0.25477 1.5401 0.28214 1.7188-0.28125 0.0309-0.0975 0.0618-0.21565 0.0625-0.3125 0.81981 0.29877 1.6133 0.57494 2.375 0.84375 0.45842-0.30128 0.87063-0.62129 1.2812-0.96875-0.42965-0.11311-0.85548-0.2143-1.2812-0.34375-0.35606-0.31884-0.70681-0.6495-1.0625-0.96875 0.0557 0.22303-1.2668-0.52615-1.625-0.9375 0.24006 0.042 0.46734 0.0651 0.6875 0.0937-0.14751-0.13272-0.29007-0.27343-0.4375-0.40625 0.19584 0.13829 0.37748 0.2899 0.5625 0.4375 0.78052 0.0947 1.4149 0.0898 1.5938 0.0312 1.0655-0.34913 0.56522-2.1498 0.78125-3.25 0.25859 0.32699 0.7476 0.9469 0.9375 1.1875 0.0735 0.0928 0.14479 0.1888 0.21875 0.28125 0.30375 0.82231 0.49649 1.3953 0.9375 2.5938 0.59638-0.67004 1.1627-1.388 1.625-2.1875 0.068-0.1179 0.12362-0.22495 0.1875-0.34375-0.1772-0.20682-0.35457-0.41762-0.53125-0.625-0.10911-0.31178-0.30663-0.86797-0.40625-1.1562 0.45043 0.30876 0.89539 0.62578 1.3438 0.9375 0.10371-0.23158 0.19258-0.48386 0.28125-0.71875-0.68599-0.46835-1.3742-0.94173-2.0625-1.4062-0.0897-0.26491-0.25726-0.76975-0.34375-1.0312 1.0632-0.34486 2.1226-0.6915 3.1875-1.0312 0.019-0.28134 0.0312-0.55824 0.0312-0.84375v-0.0937c-0.00001-0.34132-0.009-0.66745-0.0312-1-0.90129-0.1702-1.8307-0.34685-2.875-0.53125-0.49878-0.12591-0.99961-0.22368-1.5-0.34375-0.0128-0.0433-0.0495-0.11239-0.0625-0.15625 0.0487-0.37014 0.11528-0.7144 0.15625-1.0625 1.4071 0.51158 2.8119 1.019 4.2188 1.5312-0.0262-0.24079-0.0553-0.4827-0.0937-0.71875-1.3511-0.49383-2.7127-0.97133-4.0625-1.4688 0.0854-0.83148 0.14231-1.6784 0.15625-2.625 1.0084 0.43715 2.2556 0.96796 3.125 1.3438-0.0123-0.0303-0.0187-0.0636-0.0312-0.0937-0.12698-0.30218-0.26141-0.5897-0.40625-0.875-0.77625-0.33799-1.872-0.79868-2.6875-1.1562-0.003-0.33595 0.0135-0.6259 0-1-0.008-0.23391-0.0207-0.43333-0.0312-0.65625 0.36728 0.17399 0.90095 0.43049 1.3125 0.625-0.41646-0.50989-0.87674-0.9737-1.375-1.4062-1.1032-0.9577-2.402-1.734-3.9062-2.3125-0.79497-0.30395-1.6176-0.52656-2.4375-0.6875 0.0102 0.0315 0.0211 0.0623 0.0312 0.0937-0.12017-0.0546-0.19442-0.10261-0.3125-0.15625-0.0102-0.002-0.021 0.002-0.0312 0-0.90646-0.15738-1.8133-0.23482-2.75-0.21875z"/>
      <path id="path2835" d="m530.31 493.56-3.9062 0.71875c0.0538 0.0821 0.10249 0.16791 0.15625 0.25-0.34602 0.13055-0.68514 0.27595-1.0312 0.40625 0.12942-0.18793 0.24335-0.36926 0.375-0.5625l-2.8438 0.53125c-0.0689 0.0992-0.11826 0.21353-0.1875 0.3125l1 2.0625c0.11673-0.15816 0.31483-0.43476 0.40625-0.5625 0.15472-0.21618 0.33942-0.49068 0.5-0.71875 0.74165-0.26713 1.4768-0.54618 2.2188-0.8125 0.0617 0.0942 0.12583 0.18709 0.1875 0.28125-0.0757 0.15762-0.20485 0.37258-0.28125 0.53125-0.40171 0.31009-0.79167 0.625-1.1562 0.9375-0.24648 0.21127-0.85803 0.67466-1.4688 1.25l2.75 5.7188c0.0372-0.0331 0.11954-0.0924 0.15625-0.125 0.2821-0.25038 0.56101-0.50034 0.84375-0.75 0.639-0.0146 1.2679-0.0642 1.9062-0.0937-0.46726 1.3264-0.984 2.6487-1.4688 3.9688l4.8438 10.031c0.075-0.0281 0.14401-0.065 0.21875-0.0937 0.008 0.0196 0.0227 0.0421 0.0312 0.0625 1.4192-0.81334 2.9118-1.6956 4.625-2.75l0.65625-1.4062c-0.0177-0.0233-0.0448-0.0392-0.0625-0.0625-0.48541-0.63792-1.0173-1.3105-1.5312-1.9688 0.91421-0.38079 1.8948-0.80005 2.9375-1.2812 0.0361 0.05 0.0915 0.14021 0.125 0.1875l6.9688-14.656-7.3438-1.4062-0.4375 1.0312c0.0716 0.12566 0.14568 0.24804 0.21875 0.375-0.1014-0.0452-0.21074-0.11097-0.3125-0.15625l-4.25 10-2.9688-6.875c-0.0343 0.0497-0.0589 0.1069-0.0937 0.15625-0.0394 0.0558-0.11318 0.15906-0.15625 0.21875-1.0426-0.4812-2.0233-0.90046-2.9375-1.2812 0.51399-0.65827 1.0458-1.3308 1.5312-1.9688 0.0896-0.11779 0.19176-0.22585 0.28125-0.34375l-0.5-1.1562zm13.625 2.4688c-0.0793 0.24829-0.14444 0.49609-0.21875 0.75-0.13023-0.0589-0.30855-0.16051-0.4375-0.21875 0.22129-0.17206 0.43986-0.36321 0.65625-0.53125zm-18.188 1.4375c0.0821 0.0242 0.16743 0.039 0.25 0.0625-0.30131 0.48891-0.63061 1.0049-0.96875 1.5 0.22342-0.53134 0.45287-1.0512 0.71875-1.5625zm15.75 0.46875c0.12352 0.20089 0.24995 0.39261 0.375 0.59375-0.24271-0.11157-0.47619-0.23184-0.71875-0.34375 0.11615-0.0906 0.22805-0.15979 0.34375-0.25zm-1.6562 0.4375c-0.37157 0.37487-0.75586 0.74769-1.125 1.125-0.24159-0.12153-0.47738-0.25304-0.71875-0.375 0.30078-0.25457 0.44664-0.37351 0.78125-0.65625 0.35606-0.0296 0.70702-0.0644 1.0625-0.0937zm0.90625 0.375c0.24943 0.12546 0.50079 0.24909 0.75 0.375-0.0199 0.0169-0.0424 0.0143-0.0625 0.0312 0.37506 0.16682 0.7506 0.33145 1.125 0.5-0.0766 0.15395-0.14244 0.31462-0.21875 0.46875-0.1511 0.0662-0.28896 0.15364-0.4375 0.21875-0.17554-0.37816-0.34509-0.72056-0.53125-1.125-0.25178 0.21306-0.35002 0.33013-0.625 0.5625-0.36331 0.0302-0.73104 0.0638-1.0938 0.0937 0.366-0.36926 0.73011-0.75337 1.0938-1.125zm-11.25 0.24c0.19798 0.30161 0.3956 0.60476 0.59375 0.90625-0.15738 0.14378-0.31124 0.29386-0.46875 0.4375-0.15038-0.0523-0.30959-0.0865-0.46875-0.125 0.24047 0.14893 0.52983 0.31559 0.78125 0.46875 0.0321 0.0303 0.0616 0.0634 0.0937 0.0937-0.009 0.011-0.0223 0.0202-0.0312 0.0312-0.0994 0.0972-0.18248 0.21468-0.28125 0.3125-0.21132-0.30972-0.41141-0.62902-0.625-0.9375-0.009-0.002-0.0218 0.002-0.0312 0-0.062-0.0145-0.12524-0.0484-0.1875-0.0625 0.11318-0.20098 0.35431-0.63209 0.4375-0.78125 0.0644-0.11347 0.12308-0.23028 0.1875-0.34375zm-4.4375 0.125c0.0679 0.0405 0.12331 0.0848 0.1875 0.125-0.0489 0.0189-0.10739 0.0123-0.15625 0.0312-0.0159-0.0516-0.0164-0.10243-0.0312-0.15625zm0.8125 0.53125c0.19558 0.15657 0.33596 0.32187 0.4375 0.46875-0.16662 0.11431-0.33412 0.22838-0.5 0.34375-0.20883-0.12115-0.39166-0.31688-0.53125-0.59375 0.19715-0.0752 0.39658-0.14357 0.59375-0.21875zm0.75 0.375c0.0214 0.0307 0.0411 0.063 0.0625 0.0937 0.70595 1.0139 1.1184 1.6267 1.6562 2.4062-0.18458 0.19155-0.37899 0.36984-0.5625 0.5625-0.44482-0.43788-0.75373-0.74796-1.125-1.125-0.0826-0.46305-0.21208-0.91798-0.34375-1.375-0.13562 0.006-0.2618-0.0173-0.375-0.0625 0.12445-0.0484 0.25012-0.10895 0.375-0.15625 0.0994-0.1194 0.21489-0.22203 0.3125-0.34375zm17 1.9062c-0.0223 0.11429-0.0402 0.22946-0.0625 0.34375-0.10592 0.091-0.20659 0.1906-0.3125 0.28125-0.0308 0.0116-0.063 0.0196-0.0937 0.0312-0.24042-0.17422-0.48049-0.3541-0.71875-0.53125 0.39672-0.0264 0.79151-0.0907 1.1875-0.125zm-7.5938 2.7188c0.18351 0.19266 0.37792 0.37095 0.5625 0.5625-0.4964 0.71941-0.91924 1.3371-1.5312 2.2188 0.16265 0.24625 0.33931 0.50682 0.5 0.75-0.25479 0.38948-0.5268 0.76658-0.78125 1.1562-0.0529 0.0811-0.2212 0.34561-0.28125 0.4375-0.11438 0.0913-0.23004 0.15939-0.34375 0.25-0.19682-0.0737-0.43512-0.1477-0.625-0.21875 0.014-0.22104 0.016-0.29535 0.0312-0.53125 0.0127-0.19648 0.0474-0.39746 0.0625-0.59375 0.36326-0.38323 0.72749-0.77595 1.0938-1.1562-0.0627-0.0722-0.1267-0.14313-0.1875-0.21875 0.15019-0.5084 0.28314-1.0162 0.375-1.5312 0.37127-0.37704 0.68018-0.68712 1.125-1.125zm4.4688 1.75c0.27538 0.20478 0.53842 0.41848 0.8125 0.625-0.0439 0.2063-0.0899 0.41612-0.125 0.625-0.24984-0.3861-0.4736-0.82322-0.6875-1.25zm-2.5312 0.21875c0.10918 0.10812 0.20254 0.23644 0.3125 0.34375-0.0322 0.0303-0.0616 0.0634-0.0937 0.0937-0.29438 0.17933-0.65057 0.4062-0.90625 0.5625 0.23013-0.33194 0.45988-0.66639 0.6875-1zm-7.5 1.625c0.36914 0.37731 0.75343 0.75013 1.125 1.125-0.35548-0.0294-0.70644-0.0642-1.0625-0.0937-0.33461-0.28274-0.48047-0.40168-0.78125-0.65625 0.24086-0.12169 0.47768-0.25373 0.71875-0.375zm6.0938 1.5c0.3096 0.59665 0.636 1.1616 0.96875 1.5625-0.61505-0.23006-1.0069-0.3858-1.5625-0.59375 0.2367-0.37839 0.38405-0.63589 0.59375-0.96875zm-3.0938 1.4375c0.0309 0.0114 0.0629 0.0199 0.0937 0.0312-0.0349 0.0534-0.0891 0.13255-0.125 0.1875 0.004-0.0751 0.0268-0.14162 0.0312-0.21875zm1.8125 0.65625c0.90208 0.33764 1.7878 0.68696 2.6875 1.0312-1.0609 0.86899-2.2088 1.6467-3.3125 2.4688-0.0562 0.0419-0.0643 0.1524-0.125 0.1875-0.39196 0.22654-0.79245 0.43516-1.1875 0.65625-0.0181-0.35262-0.0307-0.75471-0.0312-1.1562 0.6749-1.1213 1.3432-2.179 1.9688-3.1875zm1.8125 4.625c-0.24732 0.11901-0.50271 0.22468-0.75 0.34375 0.0237 0.0171 0.0399 0.0441 0.0625 0.0625 0.10702 0.11089 0.20575 0.2326 0.3125 0.34375l0.375-0.75zm-0.875 0.40625c-0.79193 0.38137-1.5836 0.77383-2.375 1.1562l0.34375 0.71875c0.043-0.0179 0.082-0.0446 0.125-0.0625 0.0116 0.0274 0.0191 0.0643 0.0312 0.0937 0.42113-0.20643 1.1982-0.57245 1.5625-0.75-0.0775-0.1114-0.14439-0.23009-0.21875-0.34375 0.17306-0.2619 0.35422-0.54323 0.53125-0.8125zm-0.72 2.91c-0.14554 0.0431-0.29193 0.082-0.4375 0.125 0.0686 0.10546 0.13969 0.18611 0.21875 0.3125l0.21875-0.4375zm-0.21875 0.4375c-0.0984 0.0368-0.18605 0.0566-0.28125 0.0937 0.004 0.009-0.004 0.0227 0 0.0312 0.0325 0.075 0.0923 0.14356 0.125 0.21875l0.15625-0.34375z"/>
      <path id="path2837" d="m563.44 493.41c-0.4948 0-0.9909 0.0417-1.5312 0.0937-1.587 0.15047-3.0735 0.61083-4.4688 1.3438-0.001 0.003-0.0298-0.003-0.0312 0-0.0507 0.12097-0.105 0.2834-0.15625 0.40625-0.11427-0.0438-0.22841-0.0839-0.34375-0.125-0.29129 0.17173-0.59237 0.36445-0.875 0.5625-1.7513 1.224-3.1224 2.7702-4.125 4.6875-0.0697 0.13331-0.1227 0.27192-0.1875 0.40625 0.0948 0.34173 0.16823 0.55254 0.25 0.84375-0.14912-0.11912-0.32331-0.2588-0.46875-0.375-0.0352 0.0807-0.0603 0.16892-0.0937 0.25 0.21371 0.16676 0.39895 0.29928 0.65625 0.5 0.0404 0.14355 0.0917 0.35068 0.125 0.46875-0.2921-0.29194-0.56047-0.58304-0.84375-0.875-0.0775 0.19234-0.11973 0.39938-0.1875 0.59375 0.42907 0.40081 0.86856 0.81556 1.3125 1.2188 0.0555 0.19646 0.0999 0.39751 0.15625 0.59375-0.17711 0.20707-0.30903 0.33866-0.5 0.5625-0.1398-0.14468-0.28305-0.2774-0.4375-0.40625 0.29942-0.69776 0.54283-1.3902-0.84375-1.0312-0.285 1.0806-0.44447 2.2023-0.4375 3.3438 0.013 2.3438 0.62109 4.4876 1.8125 6.4375 0.0962 0.15745 0.21048 0.28542 0.3125 0.4375 0.0124-0.0411 0.0188-0.0839 0.0312-0.125 1.3979 0.71584 2.6179 1.2771 2.75 1.3438 0.0648 0.20824 0.15539 0.41631 0.21875 0.625 0.0626 0.39842 0.12159 0.7895 0.1875 1.1875 0.0742 0.0512 0.14527 0.1038 0.21875 0.15625 0.0241 0.0824 0.0384 0.1676 0.0625 0.25-0.0106 0.004-0.0207-0.004-0.0312 0 0.37572 0.25377 0.74594 0.49693 1.1562 0.71875 1.4888 0.80487 3.0717 1.3428 4.75 1.5625-0.36631-0.11056-0.72777-0.2321-1.0938-0.34375-0.0162-0.0822-0.015-0.16784-0.0312-0.25 0.0332-0.0169 0.0607-0.0452 0.0937-0.0625 0.38154-0.20043 0.81439-0.36212 1.125-0.65625 0.73319 0.35272 2.0368 0.9633 2.8125 1.3438 1.0885-0.0677 2.1458-0.22584 3.1562-0.53125-0.1412-0.2256-0.26327-0.42997-0.40625-0.65625 0.004-0.35522-0.0189-0.92976-0.0312-1.4375 0.23699 0.48675 0.49057 0.9779 0.71875 1.4688 0.0718 0.15436 0.1195 0.31271 0.1875 0.46875 0.56538-0.19391 1.1159-0.3861 1.6562-0.65625 0.22985-0.11412 0.3803-0.20321 0.59375-0.3125-0.0597-0.13886-0.0961-0.25678-0.15625-0.40625 0.15173 0.0772 0.31779 0.14021 0.46875 0.21875 0.47298-0.24664 0.9897-0.49793 1.375-0.71875-0.10594-0.0918-0.20669-0.18912-0.3125-0.28125 0.0976-0.39649 0.1682-0.83566 0.25-1.3125 0.28112 0.14501 0.5698 0.2917 0.875 0.4375 0.22868 0.10925 0.58927 0.12582 0.84375 0.0312l-3.8125-5.8438c-0.00001 0.0832-0.20846 0.23365-0.5 0.4375 0.15951 0.29293 0.32077 0.56409 0.46875 0.84375-0.0625 0.2295-0.12577 0.45777-0.1875 0.6875-0.2352 0.0869-0.75996 0.28595-1 0.375-0.19766-0.14827-0.39529-0.29022-0.59375-0.4375-0.0692-0.18835-0.15015-0.37394-0.21875-0.5625-0.40579 0.2197-0.86112 0.49224-1.0938 0.59375-0.89219 0.38996-1.6652 0.59877-2.375 0.65625 0.14897 0.15565 0.2893 0.31235 0.4375 0.46875 0.009 0.1146 0.0238 0.22904 0.0312 0.34375 0.01 0.15125 0.0223 0.20211 0.0312 0.34375-0.12457 0.0466-0.27697 0.10787-0.40625 0.15625-0.0965-0.0769-0.18393-0.17229-0.28125-0.25-0.025-0.0383-0.10209-0.15241-0.125-0.1875-0.1638-0.25084-0.33598-0.49928-0.5-0.75 0.0259-0.0391 0.0366-0.0857 0.0625-0.125-1.174-0.0115-2.1292-0.17396-2.8438-0.53125-0.18064-0.0872-0.28964-0.16979-0.4375-0.25-0.10486 0.19776-0.22725 0.38148-0.34375 0.5625-0.0229-0.13657-0.0649-0.27141-0.0937-0.40625 0.10205-0.0769 0.21014-0.14229 0.3125-0.21875-0.39294-0.22166-0.71364-0.42774-0.84375-0.59375l9.75-6.125c-0.0181-0.0141-0.0443-0.0171-0.0625-0.0312-0.0532-0.11054-0.13484-0.2653-0.1875-0.375 0.0413-0.063 0.0837-0.12446 0.125-0.1875 0.22978 0.0825 0.45777 0.1674 0.6875 0.25l1.4688-0.90625c-0.28595-0.41891-0.56707-0.85621-0.84375-1.2812 0.0334-0.0509 0.0603-0.10534 0.0937-0.15625 0.59303 0.26216 1.1857 0.52479 1.7812 0.78125l2.5938-1.625-0.84375-1.4062c-0.50132-0.83332-1.2005-1.7435-2.125-2.6875-0.74346-0.76011-1.5788-1.358-2.4375-1.875-0.23896 0.21423-0.55544 0.48781-0.8125 0.71875-0.72007-0.17735-1.1824-0.28821-2.0312-0.5-0.0424-0.0894-0.11586-0.19452-0.15625-0.28125 0.0813-0.33059 0.12142-0.66115 0.0937-1-0.005-0.0658-0.0514-0.12157-0.0625-0.1875-1.0292-0.26648-2.1258-0.43749-3.2812-0.4375zm-3.2812 0.65625c0.0675 0.018 0.15114 0.0132 0.21875 0.0312-0.19552 0.2819-0.39431 0.56453-0.59375 0.84375-0.027-0.0115-0.0354-0.0197-0.0625-0.0312 0.13-0.27568 0.30393-0.56821 0.4375-0.84375zm6.9375 1.8125c0.2279 0.0583 0.3928 0.097 0.625 0.15625 0.40862 0.10424 0.33895 0.0907 0.71875 0.1875-0.2656 0.23878-0.53406 0.46823-0.8125 0.71875-0.20862-0.40563-0.35865-0.70983-0.53125-1.0625zm-5.6875 0.9375c0.0334 0.11657 0.062 0.22675 0.0937 0.34375-0.0935-0.0429-0.18767-0.0822-0.28125-0.125 0.0577-0.0766 0.12997-0.14203 0.1875-0.21875zm4.59 0.21c0.15042 0.27207 0.30548 0.52886 0.46875 0.8125-0.0682-0.0304-0.18156-0.0633-0.25-0.0937-0.0933-0.20875-0.18841-0.41604-0.28125-0.625 0.0213-0.0312 0.0411-0.0626 0.0625-0.0937zm-5.125 0.5c0.27071 0.11946 0.5425 0.25392 0.8125 0.375 0.10672 0.44559 0.19911 0.89235 0.28125 1.3438-0.12214 0.19457-0.24239 0.40577-0.375 0.59375-0.0268 0.0379-0.0643 0.11549-0.0937 0.15625-0.6714-0.30974-1.3191-0.59964-1.9062-0.84375 0.32437-0.41549 0.69356-0.84728 1-1.25 0.0947-0.12444 0.18681-0.25036 0.28125-0.375zm8.25 0.96875c-0.052 0.16158-0.0765 0.33442-0.125 0.5-0.0896-0.0405-0.22389-0.085-0.3125-0.125-0.005-0.008 0.005-0.0233 0-0.0312 0.14573-0.11331 0.29511-0.23318 0.4375-0.34375zm-1.5625 1.2188c0.0768 0.12487 0.14105 0.24998 0.21875 0.375-0.13499-0.0621-0.27133-0.12527-0.40625-0.1875 0.0719-0.0561 0.11592-0.13169 0.1875-0.1875zm-4.1875 0.1875c1.1588 0.00002 2.1133 0.2422 2.875 0.75l-8.75 5.4688c-0.00001-1.0416 0.25389-2.0364 0.78125-3 0.0799-0.14528 0.16547-0.27077 0.25-0.40625-0.15869-0.15784-0.26553-0.26339-0.40625-0.40625-0.0582-0.33273-0.15336-0.67163-0.25-1 0.071-0.0883 0.14804-0.16181 0.21875-0.25 0.0167 0.0239 0.0458 0.0386 0.0625 0.0625 0.31684 0.45504 0.4574 0.71626 0.71875 1.0938 0.25865-0.35086 0.54719-0.66657 0.84375-0.9375-0.0346-0.0501-0.0591-0.10622-0.0937-0.15625 0.0435 0.0266 0.11108 0.0662 0.15625 0.0937 0.99283-0.8796 2.1837-1.3125 3.5938-1.3125zm4.0625 0.53125c0.25939 0.11696 0.5218 0.22693 0.78125 0.34375 0.0125 0.0197 0.0187 0.0428 0.0312 0.0625-0.0456 0.0916-0.0796 0.18957-0.125 0.28125-0.10445 0.0458-0.20997 0.0801-0.3125 0.125-0.127-0.27362-0.23594-0.51024-0.375-0.8125zm5.375 0.0937c0.0234 0.072 0.0393 0.14664 0.0625 0.21875-0.10589-0.0481-0.17789-0.078-0.28125-0.125 0.0423-0.0194 0.0828-0.0431 0.125-0.0625 0.0631-0.0272 0.0318-0.005 0.0937-0.0312zm-0.75 0.34375c0.2645 0.12076 0.56001 0.24531 0.84375 0.375-0.0837 0.29148-0.1797 0.64837-0.28125 1-0.28943-0.12707-0.41138-0.17773-0.71875-0.3125-0.31269-0.13534-0.62576-0.26884-0.9375-0.40625 0.0738-0.0961 0.1682-0.18829 0.25-0.28125 0.27984-0.12708 0.56417-0.24738 0.84375-0.375zm-2.2188 2.375c0.14156 0.20942 0.26836 0.39337 0.40625 0.59375-0.21929-0.0826-0.43702-0.16729-0.65625-0.25 0.0778-0.11878 0.17219-0.22498 0.25-0.34375zm-17.375 2.375c0.0781-0.022 0.18738-0.014 0.28125 0 0.002 0.0204 0.002 0.0417 0 0.0625 0.005 0.005-0.005 0.0263 0 0.0312-0.002 0.0126-0.0274 0.0185-0.0312 0.0312-0.0862-0.0326-0.16409-0.0918-0.25-0.125zm-0.0937 0.0625c0.0926 0.0644 0.18826 0.12366 0.28125 0.1875-0.0658 0.10047-0.14549 0.20482-0.28125 0.3125-0.10834-0.0413-0.20417-0.11492-0.3125-0.15625 0.0868-0.15874 0.18597-0.27441 0.3125-0.34375zm8.1875 0.59375c0.23811 0.24338 0.47904 0.47697 0.71875 0.71875-0.22858-0.0189-0.45855-0.0435-0.6875-0.0625-0.21678-0.18318-0.30552-0.27289-0.5-0.4375 0.15347-0.0775 0.31514-0.14148 0.46875-0.21875zm-8.6562 0.125c0.0307 0.0119 0.0631 0.0194 0.0937 0.0312-0.0506 0.0318-0.10209 0.0616-0.15625 0.0937 0.0133-0.0487 0.0479-0.0792 0.0625-0.125zm-0.0312 0.25c0.18516 0.27326 0.42545 0.60178 0.59375 0.875-0.0503 0.0143-0.10618 0.0165-0.15625 0.0312-0.15398-0.29645-0.30596-0.59909-0.4375-0.90625zm6.875 1.6562c0.24984 0.0214 0.49972 0.0459 0.75 0.0625-0.14731 0.10957-0.28889 0.23594-0.4375 0.34375-0.0525-0.0198-0.10373-0.0427-0.15625-0.0625-0.0446-0.0382-0.0804-0.0867-0.125-0.125-0.0141-0.0722-0.0172-0.14659-0.0312-0.21875zm-1.4688 3.875c0.14859 0.10988 0.26228 0.20255 0.375 0.28125 0.041 0.25037 0.0846 0.49954 0.125 0.75-0.10342-0.0493-0.20913-0.0774-0.3125-0.125-0.0623-0.30515-0.12807-0.59521-0.1875-0.90625zm-4.4688 0.21875c0.61865 0.18355 1.2446 0.36581 2.0312 0.625 0.0796 0.23698 0.14194 0.4809 0.21875 0.71875-0.63285-0.31449-1.2623-0.64656-1.9062-0.9375-0.1363-0.0616-0.28368-0.0862-0.4375-0.0937 0.0321-0.10395 0.0614-0.20872 0.0937-0.3125zm16.125 0.625c0.085 0.0326 0.16462 0.0298 0.25 0.0625 0.10996 0.0765 0.23166 0.14309 0.34375 0.21875-0.0521 0.20952-0.0985 0.34441-0.15625 0.5625-0.0547-0.0495-0.10166-0.10669-0.15625-0.15625-0.0879-0.23057-0.19425-0.4566-0.28125-0.6875zm-5.7188 0.28125c0.10603 0.16808 0.25637 0.40469 0.375 0.59375-0.3424 0.12814-0.591 0.20245-0.96875 0.34375 0.20283-0.24797 0.40442-0.57515 0.59375-0.9375zm2 0.875c0.003 0.0542-0.003 0.10368 0 0.15625-0.0221-0.0338-0.041-0.0921-0.0625-0.125 0.0217-0.008 0.0408-0.0233 0.0625-0.0312zm-7.375 0.3125c0.0411 0.0204 0.0837 0.0425 0.125 0.0625 0.0343 0.21854 0.06 0.43764 0.0937 0.65625-0.0751-0.23895-0.14345-0.47985-0.21875-0.71875zm6.1875 0.125c0.44619 0.71675 0.78593 1.2086 1.2812 2.0312-0.0006 0.25175-0.0197 0.49709-0.0312 0.71875-0.24882-0.13928-0.50311-0.26356-0.75-0.40625-0.0386-0.0223-0.058-0.0983-0.0937-0.125-0.69958-0.52105-1.4209-1.0122-2.0938-1.5625 0.56538-0.21636 1.1207-0.44402 1.6875-0.65625zm-2 1.3438c1.2025 0.74279 2.24 1.3466 3.2188 1.9062-0.021 0.22449-0.0599 0.51538-0.0937 0.75-0.009-0.004-0.15498-0.0619-0.15625-0.0625-0.91638-0.44285-1.8328-0.90264-2.75-1.3438 0.0421-0.2111 0.0725-0.4504 0.125-0.65625-0.13003-0.18132-0.22863-0.39721-0.34375-0.59375z"/>
      <path id="path2839" d="m602.22 485.34-5.6562 0.71875v9.9062c-1.6537-1.6536-3.8932-2.4687-6.7188-2.4688-1.7188 0.00003-3.3086 0.33466-4.8125 1.0312-0.32219 0.14886-0.63511 0.33042-0.9375 0.5-0.10225 0.10672-0.21055 0.20547-0.3125 0.3125-0.0294-0.029-0.0646-0.065-0.0937-0.0937-2.2538 1.3723-3.9141 3.3455-5 5.9375 0.002 0.0101-0.001 0.0211 0 0.0312 0.005 0.0426 0.0386 0.0811 0.0312 0.125-0.0219-0.007-0.0406-0.0246-0.0625-0.0312 0.0163 0.0152 0.015 0.0473 0.0312 0.0625-0.005 0.0199 0.007 0.0423 0 0.0625-0.03-0.0113-0.0638-0.0199-0.0937-0.0312-0.0245 0.0612-0.0386 0.12563-0.0625 0.1875 0.0119 0.008 0.0193 0.0231 0.0312 0.0312-0.0318 0.046-0.052 0.10926-0.0937 0.15625-0.23386 0.62625-0.41912 1.245-0.5625 1.875 0.11565 0.17879 0.23153 0.38041 0.34375 0.5625-0.0826 0.0235-0.16785 0.0383-0.25 0.0625-0.054-0.10387-0.104-0.2077-0.15625-0.3125-0.18359 0.90343-0.2953 1.8147-0.28125 2.7188 0.0259 1.8082 0.40883 3.5373 1.1562 5.1562 0.002 0.004 0.0293-0.004 0.0312 0 0.97584 0.28897 2.0006 0.61954 3.25 1.0312 0.0632 0.18804 0.12546 0.37409 0.1875 0.5625 0.0834 0.0414 0.16598 0.0847 0.25 0.125 0.0523 0.33368 0.10468 0.6662 0.15625 1-0.0209-0.0101-0.0416-0.0211-0.0625-0.0312-0.0564-0.1793-0.13131-0.35233-0.1875-0.53125-1.003-0.49857-2.0107-1.0076-3.0312-1.4688-0.0957-0.0433-0.17891-0.0709-0.28125-0.0937 0.10974 0.20921 0.22193 0.41948 0.34375 0.625 0.1759 0.29652 0.36782 0.56702 0.5625 0.84375 1.4539 0.71005 2.6575 1.2655 2.8125 1.3438 0.0943 0.30307 0.18884 0.60258 0.28125 0.90625 0.0488 0.31162 0.10616 0.62604 0.15625 0.9375 0.25698 0.17313 0.50867 0.34292 0.78125 0.5 1.2649 0.73645 2.5742 1.2189 3.9375 1.4688 0.29094-0.16334 0.54713-0.33594 0.78125-0.5625 0.40602 0.19525 1.2097 0.579 1.5625 0.75 0.62163-0.0121 1.2012-0.0633 1.75-0.15625-0.94678-0.45647-1.8965-0.91945-2.8438-1.375 0.0721-0.34011 0.0712-0.72892 0.15625-1.0625-0.21726-0.30296-0.399-0.64283-0.59375-0.96875 1.8672 1.1547 3.4526 2.0684 4.9688 2.9375 0.0304-0.0119 0.063-0.0194 0.0937-0.0312 0.0107-0.0605 0.0164-0.12907 0.0312-0.1875-0.1742-0.24292-0.31762-0.51479-0.46875-0.78125-0.20875-0.11361-0.41894-0.22465-0.625-0.34375-0.0607-0.0351-0.0688-0.14563-0.125-0.1875-1.1086-0.82567-2.2791-1.595-3.3438-2.4688 0.90433-0.34608 1.8121-0.69189 2.7188-1.0312 0.62555 1.0086 1.2938 2.0662 1.9688 3.1875-0.00052 0.36901-0.0155 0.73138-0.0312 1.0625 0.22676 0.13892 0.4373 0.27337 0.65625 0.40625 0.34862-0.19088 0.62327-0.38203 0.90625-0.5625-0.58513-0.41823-1.1663-0.8591-1.7188-1.3125 0.90433-0.34608 1.8121-0.69189 2.7188-1.0312 0.29978 0.48333 0.62036 1.0135 0.9375 1.5312-0.003-0.12465 0.003-0.22252 0-0.34375 0.23789 0.48892 0.4836 0.97649 0.71875 1.4688 0.11081 0.18299 0.2015 0.34682 0.3125 0.53125-0.00007 0.05 0.00034 0.10726 0 0.15625 0.0197 0.0421 0.0429 0.0829 0.0625 0.125l3.4062-0.34375c-0.001-0.0506 0.001-0.13558 0-0.1875 0.0305 0.0627 0.0634 0.12477 0.0937 0.1875l0.53125-0.0625c-0.15056-0.33796-0.28386-0.64965-0.4375-1.0312 0.24923 0.12682 0.50209 0.24594 0.75 0.375 0.22756 0.18942 0.46009 0.3729 0.6875 0.5625l0.3125-0.0312c-0.10789-0.0894-0.20459-0.19191-0.3125-0.28125 0.18068-0.22916 0.39525-0.45055 0.5625-0.6875v-6.25c-0.28517-0.21348-0.55764-0.44394-0.84375-0.65625-0.48084-1.3095-0.97387-2.6218-1.4375-3.9375 0.62929 0.0288 1.2764 0.0482 1.9062 0.0625 0.12697 0.11212 0.24815 0.2315 0.375 0.34375v-10.344c-0.52197-0.75315-1.0272-1.5165-1.5312-2.2812-0.0555 0.0243-0.10108 0.0696-0.15625 0.0937-0.1894-0.40801-0.35619-0.77055-0.5625-1.2188 0.40423 0.18226 0.81442 0.34922 1.2188 0.53125-0.0353 0.0708-0.0586 0.14791-0.0937 0.21875 0.37795 0.1598 0.74891 0.3361 1.125 0.5v-0.8125c-0.41031-0.1781-0.80947-0.38215-1.2188-0.5625 0.10659-0.13811 0.19534-0.27226 0.3125-0.40625 0.30227-0.13727 0.60415-0.26861 0.90625-0.40625v-1.4688c-0.0928-0.0419-0.22039-0.11465-0.3125-0.15625 0.10488-0.0815 0.20866-0.16931 0.3125-0.25v-4.625c-0.0313 0.0281-0.0623 0.0655-0.0937 0.0937-0.63329-0.15601-1.0872-0.26518-1.7812-0.4375zm-0.97 0.54c0.34914 0.0893 0.64445 0.1593 1 0.25 0.60445 0.15419 0.4982 0.1374 1.0625 0.28125-0.41304 0.37135-0.81733 0.73571-1.25 1.125-0.30128-0.58608-0.55947-1.1412-0.8125-1.6562zm-1.7188 1.9062c0.10069 0.18135 0.20806 0.37771 0.3125 0.5625 0.0288-0.0231 0.065-0.0402 0.0937-0.0625-0.0131 0.0409-0.0189 0.0841-0.0312 0.125 0.10491 0.18521 0.20421 0.37435 0.3125 0.5625-0.10966-0.0489-0.23366-0.10727-0.34375-0.15625-0.019-0.0425-0.0435-0.0825-0.0625-0.125-0.0323 0.11387-0.0599 0.22797-0.0937 0.34375-0.13023-0.0589-0.30855-0.16051-0.4375-0.21875 0.14581-0.11337 0.2939-0.22587 0.4375-0.34375-0.0931-0.20869-0.18846-0.41618-0.28125-0.625 0.0204-0.0299 0.0733-0.0326 0.0937-0.0625zm-2.03 2.4c0.12352 0.20089 0.24995 0.39261 0.375 0.59375-0.24271-0.11157-0.47619-0.23184-0.71875-0.34375 0.11615-0.0906 0.22805-0.15979 0.34375-0.25zm-0.15625 1.1875c0.40423 0.18226 0.81442 0.34922 1.2188 0.53125-0.0766 0.15395-0.14244 0.31462-0.21875 0.46875-0.1511 0.0662-0.28896 0.15364-0.4375 0.21875-0.1894-0.40801-0.35619-0.77055-0.5625-1.2188zm4.66 0.56c0.12352 0.20089 0.24995 0.39261 0.375 0.59375-0.24271-0.11157-0.47619-0.23184-0.71875-0.34375 0.11615-0.0906 0.22805-0.15979 0.34375-0.25zm-14.875 2.0938c0.0214 0.0307 0.0411 0.063 0.0625 0.0937 0.70595 1.0139 1.1184 1.6267 1.6562 2.4062-0.18458 0.19155-0.37899 0.36984-0.5625 0.5625-0.44482-0.43788-0.75373-0.74796-1.125-1.125-0.0919-0.51506-0.22481-1.0228-0.375-1.5312 0.11231-0.13968 0.23187-0.26673 0.34375-0.40625zm2.4062 0.0937c0.25568 0.1563 0.61187 0.38317 0.90625 0.5625 0.0321 0.0303 0.0616 0.0634 0.0937 0.0937-0.009 0.011-0.0223 0.0202-0.0312 0.0312-0.0994 0.0972-0.18248 0.21468-0.28125 0.3125-0.22762-0.33361-0.45737-0.66806-0.6875-1zm11.531 1.5938c0.23024 0.34056 0.43224 0.64347 0.65625 0.96875-0.34611-0.1303-0.68523-0.2757-1.0312-0.40625 0.12334-0.18832 0.25164-0.37419 0.375-0.5625zm-0.8125 1.2188c0.74194 0.26632 1.4771 0.54537 2.2188 0.8125 0.16058 0.22807 0.34528 0.50257 0.5 0.71875 0.19436 0.27157 0.57394 0.78788 0.875 1.1875-0.0546 0.18653-0.10186 0.37593-0.15625 0.5625-0.22184-0.0702-0.43371-0.1467-0.65625-0.21875-0.63322-0.60592-1.2757-1.0935-1.5312-1.3125-0.35605-0.30519-0.76472-0.60334-1.1562-0.90625-0.08-0.16619-0.20204-0.3975-0.28125-0.5625 0.0617-0.0942 0.12583-0.18709 0.1875-0.28125zm-9.0625 3.3438c1.0547 0.013 2.0325 0.33205 2.9375 0.9375 1.9075 1.2956 2.8437 3.2162 2.8438 5.7812-0.21537 2.0839-1.3091 3.6063-3.25 4.5625-0.054 0.0266-0.10088 0.068-0.15625 0.0937-0.78594 0.36645-1.5676 0.58263-2.375 0.65625 0.0372 0.0593 0.056 0.0959 0.0937 0.15625-0.55259 0.20681-0.95115 0.33382-1.5625 0.5625 0.17066-0.20789 0.33185-0.44673 0.5-0.71875-0.81905-0.057-1.6574-0.36749-2.5-0.9375-0.82032-0.54687-1.4805-1.3047-1.9688-2.2812-0.53386-1.0612-0.7891-2.2005-0.75-3.4375 0.0326-0.90494 0.36848-1.8021 1-2.6875 0.38552-0.53856 0.82021-0.999 1.2812-1.375-0.25096-0.0207-0.49877-0.0416-0.75-0.0625-0.33461-0.28274-0.48047-0.40168-0.78125-0.65625 0.24086-0.12169 0.47768-0.25373 0.71875-0.375 0.31732 0.32434 0.64968 0.64618 0.96875 0.96875 1.056-0.80516 2.3119-1.2049 3.75-1.1875zm6.5625 0.4688c0.0644 0.11347 0.12307 0.23028 0.1875 0.34375 0.0832 0.14916 0.32432 0.58027 0.4375 0.78125-0.25851 0.0587-0.50773 0.13441-0.75 0.21875-0.15751-0.14364-0.31137-0.29372-0.46875-0.4375 0.19815-0.30149 0.39577-0.60464 0.59375-0.90625zm4.5 1.75c0.0644 0.11347 0.12307 0.23028 0.1875 0.34375 0.0832 0.14916 0.32432 0.58027 0.4375 0.78125-0.25851 0.0587-0.50773 0.13441-0.75 0.21875-0.15751-0.14364-0.31137-0.29372-0.46875-0.4375 0.19815-0.30149 0.39577-0.60464 0.59375-0.90625zm-18.625 1.1875c0.39599 0.0343 0.79078 0.0986 1.1875 0.125-0.23826 0.17715-0.47833 0.35703-0.71875 0.53125-0.0308-0.0116-0.063-0.0196-0.0937-0.0312-0.10591-0.0906-0.20658-0.1903-0.3125-0.28125-0.0223-0.11429-0.0402-0.22946-0.0625-0.34375zm13.688 1.0312c0.62929 0.0288 1.2764 0.0482 1.9062 0.0625 0.28179 0.24883 0.56259 0.50046 0.84375 0.75 0.17489 0.15522 0.53198 0.45915 0.71875 0.625 0.27731 0.50799 0.52461 1.0152 0.78125 1.5-0.0962 0.3533-0.18618 0.70886-0.28125 1.0625-0.39038 0.14417-1.2574 0.477-1.6562 0.625-0.29677-0.22231-0.57717-0.4665-0.875-0.6875-0.48084-1.3095-0.97387-2.6218-1.4375-3.9375zm-15.969 5.0625c0.21151 0.1563 0.39845 0.29137 0.5625 0.40625 0.0681 0.41571 0.12048 0.83412 0.1875 1.25-0.15728-0.075-0.31154-0.14624-0.46875-0.21875-0.0976-0.47747-0.18818-0.95082-0.28125-1.4375zm15.438 1c0.0404 0.0329 0.0846 0.0609 0.125 0.0937 0.41262 0.42755 0.80994 0.88122 1.2188 1.3125 0.0151 0.19629 0.0498 0.39727 0.0625 0.59375 0.0153 0.2359 0.0172 0.31021 0.0312 0.53125-0.19004 0.0711-0.428 0.14502-0.625 0.21875-0.11371-0.0906-0.22937-0.15867-0.34375-0.25-0.0601-0.0919-0.22832-0.35645-0.28125-0.4375-0.25445-0.38967-0.52646-0.76677-0.78125-1.1562 0.19315-0.2923 0.39775-0.60948 0.59375-0.90625zm2.8125 0.25c0.19022 0.0729 0.33985 0.14553 0.53125 0.21875 0.14215 0.0985 0.29307 0.18364 0.4375 0.28125-0.0836 0.33625-0.12589 0.55544-0.21875 0.90625-0.10379-0.094-0.20892-0.18719-0.3125-0.28125-0.14344-0.37653-0.29555-0.74791-0.4375-1.125zm-13.75 0.5c0.21151 0.1563 0.39845 0.29137 0.5625 0.40625 0.0681 0.41571 0.12048 0.83412 0.1875 1.25-0.15728-0.075-0.31154-0.14624-0.46875-0.21875-0.0976-0.47747-0.18818-0.95082-0.28125-1.4375zm7.9375 1.4062c0.004 0.0771 0.027 0.14369 0.0312 0.21875-0.0359-0.0549-0.0901-0.13411-0.125-0.1875 0.0309-0.0114 0.0629-0.0199 0.0937-0.0312zm1.375 0.3125c0.21155 0.33579 0.38589 0.58649 0.625 0.96875-0.55259 0.20681-0.95115 0.33382-1.5625 0.5625 0.32534-0.39632 0.63451-0.94869 0.9375-1.5312zm3.125 1.4375c0.004 0.0771 0.027 0.14369 0.0312 0.21875-0.0359-0.0549-0.0901-0.13411-0.125-0.1875 0.0309-0.0114 0.0629-0.0199 0.0937-0.0312zm-11.594 0.5c0.0834 0.0414 0.16598 0.0847 0.25 0.125 0.0523 0.33368 0.10468 0.6662 0.15625 1-0.0209-0.0101-0.0416-0.0211-0.0625-0.0312-0.11477-0.36511-0.2287-0.72871-0.34375-1.0938zm10.125 3.4688v0.3125l0.34375-0.0312c-0.0146-0.0341-0.0344-0.0728-0.0625-0.0937-0.0904-0.0673-0.1902-0.12093-0.28125-0.1875z"/>
      <path id="rect2962" style="block-progression:tb;color:#000000;text-transform:none;text-indent:0" d="m364.38 474.38v49.594c0.99999-0.0927 2.0004-0.18401 3-0.28125v-6.5625c-0.56406 0.0481-1.1228 0.10993-1.6875 0.15625 0.3186-1.2798 0.62054-2.5636 0.9375-3.8438 0.24999-0.0623 0.50001-0.12527 0.75-0.1875v-35.874h7.7812c0.0609-0.28132 0.12662-0.56242 0.1875-0.84375 1.7166-0.63176 3.2144-1.1414 4.4688-1.5625 10.773 0.35184 21.565 0.74434 32.219 1.1875-0.13477 0.39407-0.27468 0.79826-0.4375 1.2188h156.38c0.91265-0.996 1.8308-2.0098 2.75-3h-64.625c-0.93814 0.33985-1.85 0.72861-2.7188 1.1875-0.64752 0.22389-1.2898 0.46411-1.9375 0.6875-6.2199-0.45521-12.437-0.90512-18.656-1.375l0.15625-0.15625c0.1962-0.11756 0.39755-0.22618 0.59375-0.34375h-119.16zm226.78 0c-0.48017 0.99827-0.95829 2.0013-1.4375 3h9.5625c0.2952-0.59236 0.57845-1.1895 0.875-1.7812 0.20478-0.40863 0.4197-0.81037 0.625-1.2188h-9.625zm11.219 0c-0.42505 1.0023-0.85432 1.9985-1.2812 3h10.062c0.0451-0.10267 0.0799-0.20983 0.125-0.3125 0.84466-0.88689 1.6862-1.7959 2.5312-2.6875h-11.438zm-174.28 2.4688c0.20862 0.009 0.41656 0.0219 0.625 0.0312-0.3122 0.10474-0.62526 0.20787-0.9375 0.3125 0.10035-0.11179 0.21307-0.23261 0.3125-0.34375zm191.53 5.75c-0.99929 0.0823-2.0009 0.165-3 0.25v3.6875c1.0002 0.0491 1.9998 0.10731 3 0.15625v-4.0938zm0 6.3125c-0.81645 0.17457-2.0146 0.50396-3 0.78125v25.688c0.93616-1.1224 1.965-2.3385 3-3.5625v-22.906zm-252.25 35.09c-1.0013 0.54056-2.0039 1.075-3 1.625v0.78125c0.66958-0.21865 1.3047-0.42512 1.7188-0.53125 0.42802-0.10971 0.85339-0.23338 1.2812-0.34375v-1.5312zm0 3.375c-1.0047 0.82887-2.0048 1.6607-3 2.5v6.5h3.625c1.324-1.0282 2.6044-2.016 3.875-3h-4.5v-6zm252.25 1.5938c-0.98323 1.0033-1.9871 2.014-3 3.0312v1.375h-1.375c-0.99878 0.99582-1.9944 1.9826-3.0312 3h6.25c0.38803-0.37625 0.77289-0.75149 1.1562-1.125v-6.2812zm-236.66 4.41c-1.6118 1.003-3.2325 1.996-4.8438 3h11.406c0.82041-1.0011 1.6461-2.0008 2.4688-3h-9.0312zm15.062 0c-1.4879 1.0022-2.9785 2.0026-4.4688 3h4.4375c1.6316-0.99047 3.3209-2.0219 4.9375-3h-4.9062zm17.625 0c-1.1313 0.99481-2.242 2.0071-3.375 3h18.062c0.008-0.012 0.0235-0.0192 0.0312-0.0312 0.58612-0.91405 1.2848-1.9281 1.9688-2.9688h-16.688zm24.438 0c-2.9648 1.0048-5.9342 2.0176-8.9062 3h11.906c2.7844-0.99325 5.5631-1.9959 8.3438-3h-11.344zm15.062 0c-2.2659 1.0111-4.5384 2.0125-6.8125 3h9.1875c0.79934-0.39608 1.6087-0.78778 2.4062-1.1875-0.0577 0.3964-0.12943 0.79115-0.1875 1.1875h15.344c0.15928-1.2961 0.27311-2.2129 0.375-3h-20.312zm40.094 0c-0.0298 0.0227-0.064 0.0398-0.0937 0.0625-1.3433 1.0221-2.726 1.9847-4.125 2.9375h28.469c1.016-0.74043 2.0935-1.5201 3.0938-2.25 1.5005 0.83026 2.988 1.7132 4.5938 2.25h46.031c0.7151-0.85543 1.4354-1.7121 2.1562-2.5625 0.0329-0.14769 0.082-0.28889 0.125-0.4375h-70.906c-0.19717 0.30062-0.39529 0.60648-0.59375 0.90625-1.0808 0.35377-2.2183 0.71618-3.2812 1.0625 0.92341-0.66191 1.8567-1.3084 2.7812-1.9688h-8.25zm80.625 0c-0.47814 1.0005-0.95662 2.0008-1.4375 3h10.312c0.45806-1.0016 0.91801-1.998 1.375-3h-10.25zm16.406 0c-0.74122 0.95932-1.5746 2.0324-2.3125 3h10.031c0.80058-1.0525 1.5194-2.0042 2.2812-3h-10z"/>
    </g>
  </g>
  <metadata>
    <rdf:RDF>
      <cc:Work>
        <dc:format>image/svg+xml</dc:format>
        <dc:type rdf:resource="http://purl.org/dc/dcmitype/StillImage"/>
        <cc:license rdf:resource="http://creativecommons.org/licenses/publicdomain/"/>
        <dc:publisher>
          <cc:Agent rdf:about="http://openclipart.org/">
            <dc:title>Openclipart</dc:title>
          </cc:Agent>
        </dc:publisher>
        <dc:title>Approved Stamp</dc:title>
        <dc:date>2010-09-11T19:36:44</dc:date>
        <dc:description>Approved Stamp I've drawn in Inkscape 0.47.</dc:description>
        <dc:source>http://openclipart.org/detail/84457/approved-stamp-by-jhnri4</dc:source>
        <dc:creator>
          <cc:Agent>
            <dc:title>jhnri4</dc:title>
          </cc:Agent>
        </dc:creator>
        <dc:subject>
          <rdf:Bag>
            <rdf:li>approved</rdf:li>
            <rdf:li>clip art</rdf:li>
            <rdf:li>clipart</rdf:li>
            <rdf:li>green</rdf:li>
            <rdf:li>how i did it</rdf:li>
            <rdf:li>inkscape</rdf:li>
            <rdf:li>media</rdf:li>
            <rdf:li>public domain</rdf:li>
            <rdf:li>stamp</rdf:li>
            <rdf:li>text</rdf:li>
          </rdf:Bag>
        </dc:subject>
      </cc:Work>
      <cc:License rdf:about="http://creativecommons.org/licenses/publicdomain/">
        <cc:permits rdf:resource="http://creativecommons.org/ns#Reproduction"/>
        <cc:permits rdf:resource="http://creativecommons.org/ns#Distribution"/>
        <cc:permits rdf:resource="http://creativecommons.org/ns#DerivativeWorks"/>
      </cc:License>
    </rdf:RDF>
  </metadata>
</svg>
