<?xml version="1.0"?>
<svg xmlns:rdf="http://www.w3.org/1999/02/22-rdf-syntax-ns#" xmlns="http://www.w3.org/2000/svg" xmlns:cc="http://web.resource.org/cc/" xmlns:xlink="http://www.w3.org/1999/xlink" xmlns:dc="http://purl.org/dc/elements/1.1/" xmlns:svg="http://www.w3.org/2000/svg" id="Layer_1" xml:space="preserve" viewBox="0 0 224 129" y="0px" version="1.1" enable-background="new 0 0 224 129" x="0px">
<g clip-rule="evenodd" fill-rule="evenodd">
	<path d="m209.93 17.958c-0.57 0.708-0.725 1.412-0.166 2.239 0.221 0.327 0.402 0.895 0.268 1.208-0.871 2.024 0.299 3.858 0.43 5.78 0.068 1.012 0.01 2.032 0.043 3.047 0.029 0.982 0.154 1.963 0.131 2.942-0.008 0.353-0.334 0.695-0.5 1.05-0.117 0.249-0.346 0.56-0.275 0.753 0.08 0.225 0.434 0.351 0.893 0.681-0.125 0.586-0.299 1.406-0.506 2.389 0.059 0.133 0.379 0.529 0.391 0.935 0.055 1.877 0.025 3.756 0.025 5.665-0.275-0.136-0.506-0.25-0.992-0.491 0.113 0.554 0.072 0.995 0.273 1.221 1.047 1.178 0.959 2.299-0.051 3.506-0.352 0.418-0.25 1.275-0.227 1.928 0.014 0.432 0.494 0.952 0.363 1.266-0.836 2.022 0.295 3.86 0.41 5.782 0.064 1.049 0.014 2.104 0.033 3.156 0.01 0.469 0.07 0.937 0.098 1.406 0.062 1.063 0.557 2.25-1.031 2.928 0.348 0.356 0.607 0.623 0.867 0.889 0.127-0.039 0.252-0.079 0.379-0.118-0.164 0.812-0.326 1.624-0.52 2.586 0.08 0.266 0.357 0.781 0.375 1.306 0.057 1.757 0.021 3.517 0.021 5.361-0.27-0.144-0.484-0.258-1.004-0.534 0.143 0.6 0.113 1.077 0.336 1.303 0.936 0.952 0.971 2.499-0.021 3.309-0.719 0.587-0.545 1.303-0.387 2.058 0.133 0.629 0.193 1.277 0.242 1.92 0.09 1.126-0.02 2.298 0.254 3.374 0.443 1.745 0.783 3.431 0.383 5.245-0.154 0.693 0.146 1.479 0.188 2.227 0.033 0.576 0.162 1.211-0.627 1.492-0.127 0.045-0.25 0.511-0.162 0.663 0.129 0.227 0.443 0.348 0.895 0.665-0.131 0.61-0.307 1.43-0.502 2.339 0.096 0.292 0.369 0.766 0.385 1.249 0.055 1.757 0.021 3.518 0.021 5.393-0.279-0.132-0.516-0.244-0.75-0.356-0.098 0.066-0.195 0.133-0.295 0.2 0.211 0.364 0.441 0.716 0.623 1.093 0.164 0.341 0.428 0.743 0.357 1.051-0.055 0.234-0.553 0.484-0.873 0.515-0.768 0.075-1.547 0.024-2.32 0.024-0.018 0.172-0.035 0.344-0.055 0.516 0.395 0.137 0.789 0.275 1.184 0.412-0.01 0.067-0.021 0.134-0.031 0.2-0.791-0.209-1.58-0.425-2.373-0.623-0.15-0.038-0.342-0.055-0.475 0.004-1.908 0.854-3.857 0.419-5.812 0.249-0.812-0.07-1.652 0.21-2.473 0.175-0.615-0.026-1.211-0.354-1.83-0.445-0.309-0.046-0.652 0.126-0.975 0.217-0.387 0.108-0.77 0.235-1.254 0.385 0.191-0.479 0.32-0.801 0.508-1.269-1.092 0.093-2.014 0.171-2.99 0.255-0.045 0.286-0.09 0.578-0.121 0.781h-3.785c0.449-0.223 0.779-0.345 1.057-0.539 0.18-0.125 0.285-0.354 0.424-0.537-0.199-0.084-0.461-0.293-0.584-0.23-0.564 0.292-1.088 0.663-1.629 0.999-0.23 0.143-0.502 0.419-0.701 0.379-0.77-0.153-1.508-0.548-2.273-0.59-0.699-0.038-1.414 0.276-2.127 0.41-0.602 0.113-1.211 0.189-1.994 0.309 0.574-0.449 0.979-0.763 1.611-1.256-1.576 0.119-2.811 0.212-4.043 0.305-0.012 0.139-0.023 0.277-0.035 0.416 0.4 0.134 0.801 0.269 1.199 0.402-0.012 0.07-0.025 0.139-0.037 0.209-0.797-0.212-1.592-0.431-2.393-0.631-0.148-0.038-0.34-0.052-0.473 0.008-1.869 0.854-3.779 0.405-5.695 0.259-0.934-0.071-1.889 0.182-2.832 0.166-0.492-0.008-0.98-0.285-1.471-0.435-0.398-0.121-0.812-0.635-1.131 0.196-0.088 0.229-0.732 0.245-1.217 0.386 0.201-0.476 0.338-0.797 0.473-1.118-0.064-0.094-0.131-0.188-0.197-0.281-0.812 0.817-2.307-0.46-2.967 1.174h-3.703c0.467-0.225 0.793-0.356 1.09-0.537 0.166-0.102 0.285-0.285 0.424-0.432-0.207-0.119-0.49-0.391-0.607-0.332-0.564 0.287-1.082 0.667-1.623 1.004-0.23 0.144-0.506 0.41-0.711 0.369-0.768-0.156-1.506-0.553-2.27-0.594-0.701-0.037-1.416 0.284-2.129 0.418-0.598 0.112-1.203 0.182-2.023 0.303 0.604-0.44 1-0.729 1.396-1.018-0.027-0.069-0.055-0.138-0.082-0.208-1.238 0.092-2.475 0.184-3.711 0.276-0.012 0.14-0.021 0.28-0.033 0.42 0.404 0.131 0.811 0.263 1.215 0.395-0.016 0.072-0.029 0.145-0.045 0.216-0.803-0.214-1.604-0.433-2.408-0.64-0.113-0.029-0.256-0.047-0.355-0.004-1.988 0.852-4.016 0.455-6.053 0.255-0.73-0.071-1.492 0.225-2.23 0.184-0.656-0.037-1.295-0.32-1.949-0.468-0.281-0.063-0.623-0.163-0.857-0.061-0.412 0.181-0.764 0.504-1.291 0.524 0.135-0.325 0.27-0.649 0.463-1.121-1.117 0.101-2.045 0.185-3.014 0.272-0.033 0.265-0.064 0.528-0.096 0.778h-3.838c0.482-0.228 0.818-0.356 1.119-0.539 0.166-0.1 0.275-0.291 0.412-0.441-0.211-0.115-0.498-0.382-0.617-0.32-0.564 0.29-1.076 0.675-1.615 1.014-0.23 0.145-0.512 0.401-0.719 0.359-0.768-0.157-1.506-0.549-2.271-0.6-0.658-0.043-1.336 0.272-2.012 0.405-0.613 0.122-1.234 0.211-2.145 0.364 0.633-0.479 1.025-0.774 1.416-1.07-0.029-0.067-0.057-0.134-0.086-0.201-1.24 0.095-2.479 0.19-3.719 0.285-0.01 0.14-0.018 0.28-0.027 0.421 0.408 0.129 0.818 0.258 1.227 0.387-0.018 0.074-0.033 0.147-0.051 0.22-0.807-0.216-1.605-0.53-2.425-0.609-0.491-0.048-1.012 0.377-1.529 0.406-1.196 0.067-2.398 0.022-3.599 0.022-1.17 0-2.345 0.058-3.509-0.022-0.657-0.045-1.294-0.33-1.947-0.477-0.28-0.063-0.622-0.152-0.857-0.05-0.412 0.179-0.764 0.497-1.275 0.518 0.132-0.329 0.263-0.658 0.45-1.127-1.117 0.104-2.046 0.189-3.013 0.279-0.031 0.27-0.062 0.534-0.091 0.775h-3.857c0.502-0.23 0.843-0.355 1.149-0.54 0.164-0.099 0.269-0.297 0.399-0.451-0.213-0.111-0.505-0.372-0.626-0.309-0.561 0.293-1.069 0.684-1.606 1.023-0.231 0.146-0.518 0.392-0.729 0.349-0.767-0.159-1.504-0.554-2.269-0.604-0.659-0.043-1.338 0.276-2.013 0.41-0.615 0.122-1.236 0.21-2.138 0.36 0.632-0.477 1.027-0.775 1.423-1.074-0.029-0.066-0.059-0.132-0.089-0.198-1.242 0.099-2.484 0.197-3.728 0.296-0.007 0.14-0.015 0.28-0.022 0.42 0.414 0.127 0.827 0.254 1.24 0.381-0.018 0.075-0.036 0.15-0.054 0.226-0.813-0.218-1.617-0.526-2.443-0.617-0.449-0.049-0.93 0.367-1.41 0.407-0.873 0.073-1.758 0.023-2.638 0.023-1.729 0.001-3.461 0.013-5.19-0.011-0.324-0.004-0.675-0.098-0.964-0.246-0.516-0.265-0.987-0.972-1.435 0.123-0.071 0.175-0.723 0.114-1.089 0.16 0.152-0.388 0.281-0.719 0.462-1.181-1.077 0.098-1.97 0.179-2.966 0.27-0.046 0.243-0.101 0.527-0.148 0.782h-3.86c0.522-0.233 0.871-0.356 1.183-0.541 0.162-0.097 0.26-0.304 0.387-0.461-0.177-0.109-0.416-0.353-0.52-0.305-0.582 0.271-1.133 0.608-1.69 0.929-0.26 0.15-0.543 0.487-0.76 0.445-0.769-0.146-1.504-0.553-2.269-0.603-0.659-0.043-1.339 0.281-2.014 0.416-0.614 0.123-1.236 0.209-2.124 0.356 0.626-0.474 1.025-0.776 1.425-1.079-0.031-0.065-0.062-0.13-0.093-0.196-1.245 0.104-2.49 0.208-3.735 0.311-0.006 0.139-0.013 0.278-0.019 0.417 0.418 0.125 0.836 0.251 1.254 0.376-0.019 0.077-0.038 0.153-0.057 0.229-0.819-0.22-1.629-0.53-2.463-0.623-0.447-0.05-0.938 0.407-1.407 0.404-1.585-0.009-3.17-0.164-4.756-0.178-1.024-0.009-2.049 0.147-3.075 0.195-0.302 0.014-0.664-0.001-0.902-0.154-0.526-0.338-0.956-1.075-1.488 0.036-0.09 0.186-0.728 0.108-1.083 0.148 0.149-0.385 0.278-0.718 0.454-1.173-1.081 0.097-1.974 0.177-2.962 0.266-0.047 0.251-0.101 0.536-0.146 0.783h-3.886c0.556-0.241 0.907-0.358 1.22-0.542 0.161-0.095 0.252-0.31 0.374-0.47-0.18-0.105-0.423-0.344-0.529-0.294-0.579 0.274-1.128 0.612-1.68 0.942-0.229 0.137-0.469 0.471-0.651 0.437-0.769-0.144-1.511-0.521-2.277-0.565-0.698-0.04-1.413 0.247-2.124 0.376-0.616 0.112-1.235 0.206-2.104 0.349 0.616-0.469 1.018-0.775 1.42-1.082-0.032-0.064-0.064-0.129-0.096-0.193-1.247 0.107-2.493 0.214-3.739 0.32-0.005 0.14-0.011 0.28-0.016 0.419 0.421 0.124 0.843 0.248 1.264 0.371-0.02 0.075-0.038 0.151-0.057 0.227-0.788-0.213-1.571-0.441-2.365-0.627-0.217-0.051-0.463 0.03-0.696 0.04-1.698 0.077-3.397 0.151-5.096 0.223-0.028 0.001-0.059-0.051 0.081 0.078-0.096-0.701-0.084-1.246-0.254-1.726-0.37-1.042-0.343-2.581-0.079-3.845 0.178-0.851 0.025-1.767 0.072-2.65 0.031-0.587 0.104-1.181 0.247-1.749 0.147-0.589 0.396-1.147-0.274-1.583-0.091-0.059-0.208-0.259-0.186-0.284 0.91-1.053-0.301-1.903-0.254-2.851 0.035-0.733 0.265-1.457 0.471-2.503-0.284-0.357-0.588-1.05 0.223-1.75 0.091-0.079 0.113-0.4 0.034-0.489-0.731-0.818-0.408-1.515 0.088-2.316 0.207-0.334 0.215-1.097-0.022-1.349-1.062-1.13-0.789-2.359-0.287-3.502 0.339-0.772 0.147-1.283-0.189-1.91-0.21-0.392-0.284-0.856-0.474-1.463 0.544 0.177 0.861 0.28 1.179 0.383 0.082-0.07 0.163-0.141 0.245-0.21-0.275-0.377-0.551-0.755-0.869-1.192 0.82-0.572 0.165-1.264-0.062-1.947-0.065-0.199-0.352-0.378-0.334-0.544 0.1-0.914 0.307-1.817 0.388-2.732 0.079-0.879 0.024-1.77 0.075-2.652 0.035-0.587 0.109-1.179 0.244-1.75 0.147-0.624 0.403-1.226-0.299-1.692-0.086-0.057-0.188-0.263-0.161-0.294 0.972-1.129-0.472-2.043-0.266-3.09 0.122-0.621 0.293-1.232 0.51-2.125-0.422-0.531-0.544-1.345 0.458-2.072-0.754-0.811-0.865-1.591-0.187-2.524 0.235-0.325 0.242-1.149-0.005-1.433-1.005-1.151-0.765-2.388-0.242-3.51 0.352-0.756 0.119-1.215-0.166-1.804-0.199-0.409-0.318-0.857-0.559-1.527 0.584 0.175 0.916 0.275 1.248 0.375 0.079-0.079 0.158-0.157 0.237-0.236-0.291-0.378-0.582-0.755-0.903-1.173 0.956-0.598 0.074-1.284-0.062-1.973-0.074-0.381-0.188-0.756-0.241-1.141-0.039-0.279 0.001-0.569-0.012-0.854-0.007-0.156-0.09-0.317-0.069-0.466 0.27-1.896 0.552-3.79 0.83-5.684 0.027-0.19 0.147-0.471 0.065-0.558-0.594-0.622-0.895-1.229-0.216-1.993 0.077-0.088-0.008-0.402-0.106-0.552-0.855-1.284-0.838-2.178 0.099-3.312-0.113-0.024-0.226-0.048-0.339-0.071 0.12-0.674 0.246-1.346 0.356-2.021 0.032-0.202 0.109-0.503 0.01-0.603-0.742-0.741-0.332-1.377 0.032-2.116 0.204-0.413 0.32-1.195 0.087-1.443-1.065-1.13-0.81-2.342-0.312-3.502 0.322-0.749 0.194-1.28-0.164-1.912-0.22-0.388-0.301-0.855-0.347-0.996 0.579-0.321 0.95-0.686 1.341-0.707 0.651-0.034 1.315 0.151 1.917 0.517 0.56-0.282 1.119-0.563 1.68-0.845-1.428-0.317-2.888-0.704-4.418-0.163-0.017-0.121-0.033-0.242-0.049-0.363 0.876-0.149 1.75-0.399 2.629-0.417 0.796-0.017 1.597 0.228 2.398 0.341 0.223 0.031 0.455 0.021 0.681-0.001 1.688-0.172 3.376-0.353 5.249-0.55-0.22 0.399-0.312 0.565-0.583 1.058 0.951-0.217 1.667-0.492 2.392-0.518 0.97-0.035 1.946 0.15 2.922 0.181 0.295 0.009 0.597-0.181 0.896-0.278 0.276-0.09 0.553-0.251 0.831-0.254 2.039-0.022 4.079-0.026 6.119-0.004 0.794 0.009 1.601 0.031 2.376 0.181 0.416 0.081 0.777 0.446 1.441 0.854 0.369-0.195 1.092-0.577 1.897-1.003 1.055 1.404 2.329-0.131 3.56 0.091 0.972 0.175 1.974 0.183 2.963 0.262 0.191 0.016 0.387 0.046 0.575 0.025 1.686-0.192 3.369-0.395 5.298-0.624-0.205 0.431-0.288 0.607-0.521 1.096 0.931-0.221 1.654-0.51 2.387-0.537 0.97-0.035 1.946 0.167 2.922 0.201 0.288 0.01 0.582-0.213 0.879-0.312 0.28-0.093 0.566-0.228 0.852-0.23 2.039-0.02 4.08-0.043 6.118 0.002 1.066 0.024 2.129 0.184 3.194 0.282 0.046 0.296 0.09 0.584 0.149 0.971 0.797-0.409 1.493-0.765 2.319-1.188 0.983 1.344 2.269-0.117 3.501 0.089 1.009 0.169 2.046 0.167 3.071 0.237 0.19 0.013 0.386 0.022 0.575 0 1.686-0.188 3.37-0.383 5.238-0.597-0.171 0.421-0.245 0.604-0.432 1.065 0.857-0.192 1.551-0.458 2.252-0.479 1.006-0.03 2.018 0.119 3.026 0.191 0.226 0.016 0.626 0.099 0.649 0.039 0.391-1.032 1.262-0.583 1.925-0.605 1.598-0.055 3.2-0.052 4.799-0.007 1.225 0.035 2.446 0.171 3.669 0.262 0.024 0.309 0.044 0.57 0.078 1.002 0.823-0.416 1.543-0.78 2.377-1.202 0.947 1.375 2.213-0.005 3.406 0.074 1.061 0.07 2.154-0.447 3.189 0.257 0.128 0.087 0.376 0.008 0.567-0.013 1.687-0.184 3.372-0.371 5.224-0.576-0.176 0.416-0.254 0.602-0.451 1.073 0.891-0.209 1.584-0.491 2.283-0.51 1.008-0.027 2.02 0.161 3.029 0.202 0.268 0.011 0.543-0.181 0.812-0.281 0.27-0.099 0.535-0.283 0.805-0.286 2.08-0.024 4.16-0.031 6.238-0.004 0.793 0.01 1.594 0.066 2.369 0.213 0.379 0.072 0.709 0.398 1.062 0.61-0.023 0.131-0.047 0.262-0.072 0.393 0.723-0.367 1.445-0.734 2.268-1.152 1.021 1.364 2.301-0.152 3.533 0.07 0.969 0.174 1.973 0.165 2.963 0.231 0.227 0.015 0.455 0.026 0.68 0.003 1.689-0.174 3.377-0.356 5.268-0.558-0.227 0.404-0.318 0.566-0.598 1.059 0.955-0.216 1.668-0.486 2.389-0.512 0.971-0.035 1.945 0.145 2.922 0.175 0.297 0.009 0.604-0.167 0.9-0.269 0.238-0.082 0.471-0.256 0.707-0.259 2.119-0.021 4.248-0.127 6.354 0.049 0.758 0.063 1.529-0.042 2.262 0.122 0.418 0.093 0.777 0.444 1.162 0.679-0.023 0.123-0.047 0.247-0.07 0.37 0.723-0.38 1.443-0.761 2.252-1.188 1.047 1.41 2.324-0.139 3.555 0.088 0.971 0.179 1.975 0.179 2.963 0.256 0.191 0.015 0.387 0.054 0.576 0.032 1.684-0.194 3.367-0.399 5.322-0.633-0.217 0.435-0.303 0.605-0.551 1.1 0.938-0.219 1.66-0.505 2.393-0.532 0.969-0.035 1.945 0.163 2.92 0.195 0.291 0.01 0.588-0.204 0.885-0.302 0.279-0.092 0.562-0.234 0.846-0.237 2.039-0.02 4.08-0.043 6.119 0.002 1.066 0.024 2.129 0.186 3.203 0.286 0.041 0.285 0.082 0.573 0.141 0.969 0.799-0.408 1.494-0.762 2.332-1.189 0.969 1.363 2.256-0.124 3.488 0.089 1.008 0.174 2.047 0.216 3.07 0.213 0.65-0.002 1.297-0.269 1.949-0.282 1.098-0.022 2.305-0.589 3.232 0.507-0.924 0.071-1.846 0.142-2.861 0.22 0.69 0.591 1.4 0.94 2.31 0.546zm-192.39 21.761c-0.688 0.973-0.697 3.063-0.165 3.633 1.178 1.262 1.36 2.535 0.73 4.084-0.176 0.433-0.075 0.998-0.031 1.496 0.115 1.327 0.268 2.651 0.405 3.977-0.174-0.007-0.349-0.014-0.522-0.021 0.078-0.594 0.156-1.188 0.238-1.815-1.467 0.676-1.63 1.585-0.36 2.597 0.677 0.539 0.61 0.938 0.303 1.585-0.361 0.758-0.662 1.555-0.874 2.366-0.07 0.27 0.215 0.633 0.385 1.077 0.334-0.378 0.512-0.578 0.836-0.945-0.076 0.619-0.146 1.007-0.166 1.397-0.022 0.438-0.01 0.879 0.006 1.318 0.018 0.514 0.166 1.054 0.056 1.536-0.176 0.766-0.188 1.421-0.061 2.25 0.3 1.944 0.096 3.967 0.096 6.15-0.304-0.26-0.481-0.338-0.523-0.461-0.186-0.551-0.688-1.044-1.136-1.053-0.062-0.001-0.126 0.042-0.188 0.065-0.362 1.111-0.362 1.111 0.819 1.685-0.584 0.844-0.53 2.917 0.09 3.467 0.926 0.821 1.254 2.704 0.793 3.859-0.202 0.506-0.229 1.12-0.192 1.675 0.09 1.334 0.265 2.662 0.405 3.992-0.128 0.021-0.257 0.042-0.385 0.063-0.058-0.312-0.188-0.634-0.152-0.936 0.035-0.297 0.237-0.573 0.449-1.043-1.661 0.735-1.84 1.672-0.564 2.662 0.77 0.599 0.552 1.027 0.239 1.683-0.344 0.723-0.618 1.492-0.806 2.269-0.066 0.279 0.21 0.641 0.38 1.099 0.336-0.386 0.514-0.59 0.692-0.794-0.37 1.241-0.205 2.424 0.081 3.608 0.027 0.113 0.03 0.248-0.005 0.357-0.264 0.826-0.236 1.574-0.088 2.485 0.31 1.902 0.094 3.891 0.094 5.98-0.259-0.181-0.355-0.239-0.439-0.312-0.057-0.05-0.124-0.117-0.137-0.186-0.096-0.52-0.569-0.95-1.076-0.956-0.064-0.001-0.129 0.035-0.192 0.055-0.372 1.137-0.372 1.137 0.606 1.589-0.061 0.865-0.347 1.717-0.115 2.393 0.391 1.145 1.083 2.195 1.719 3.242 0.083 0.138 0.593 0.08 0.881 0.011 0.24-0.058 0.444-0.266 0.664-0.408-0.004 0.11-0.009 0.219-0.013 0.328 0.661 0.203 1.321 0.406 2.002 0.615 0.086 0.269 0.201 0.629 0.337 1.051 0.857-0.268 1.66-0.518 2.523-0.788-0.097-0.282-0.235-0.686-0.373-1.089 0.075-0.044 0.15-0.088 0.227-0.132 0.521 0.536 1.041 1.072 1.562 1.608 0.102-0.073 0.203-0.147 0.305-0.221 0.038-0.417 0.077-0.834 0.139-1.501 0.961 0.407 2.074 0.879 3.51 1.488-0.354-0.53-0.61-0.915-1.041-1.56 0.573 0.311 0.915 0.534 1.285 0.686 0.258 0.105 0.66 0.257 0.818 0.142 0.873-0.64 1.295-0.739 2.539-0.333-0.651 0.188-1.201 0.348-1.912 0.553 0.201 0.35 0.367 0.641 0.572 1 1.111-0.991 2.192-1.41 3.503-0.925 0.146 0.054 0.449-0.11 0.58-0.26 0.692-0.792 1.8-0.875 2.727 0.027-0.43 0.182-0.883 0.208-1.327 0.282-0.38 0.063-0.75 0.183-1.124 0.277 0.312 0.231 0.596 0.592 0.941 0.668 0.855 0.188 1.458-0.237 2.034-0.899 0.395-0.453 1.041-0.793 1.635-0.934 0.603-0.143 1.277 0.02 1.989 0.052-0.023 0.247-0.049 0.516-0.099 1.039 0.835-0.248 1.501-0.445 2.139-0.635-0.055 0.562 1.343 1.385 2.331 1.319-0.433-0.309-0.865-0.618-1.298-0.926 0.096-0.077 0.191-0.153 0.288-0.23 1.308-0.118 2.616-0.236 4.097-0.369 0.402 0.148 1.057 0.388 1.824 0.669 0.054 0.171 0.168 0.53 0.306 0.967 0.857-0.246 1.691-0.486 2.57-0.738-0.128-0.328-0.274-0.703-0.422-1.079 0.082-0.06 0.165-0.12 0.247-0.18 0.51 0.544 1.02 1.088 1.529 1.632 0.104-0.061 0.209-0.122 0.313-0.182 0.055-0.439 0.109-0.877 0.194-1.554 0.965 0.419 2.073 0.901 3.181 1.384 0.076-0.025 0.152-0.051 0.229-0.076-0.268-0.367-0.535-0.733-0.803-1.1 0.456 0.042 0.794 0.275 1.161 0.446 0.228 0.106 0.696 0.215 0.723 0.16 0.621-1.274 1.662-0.318 2.515-0.394-0.568 0.183-1.138 0.366-1.701 0.547 0.271 0.99 0.315 1.048 0.976 0.54 0.869-0.667 1.795-0.713 2.804-0.542 0.227 0.039 0.564 0.017 0.704-0.124 0.805-0.809 1.705-0.922 2.778-0.082-0.45 0.208-0.926 0.251-1.396 0.326-0.356 0.056-0.707 0.153-1.06 0.231 0.288 0.247 0.541 0.621 0.873 0.714 0.858 0.242 1.474-0.197 2.067-0.826 0.421-0.445 1.015-0.847 1.598-0.986 0.636-0.152 1.35 0.021 2.049 0.054-0.015 0.268-0.029 0.537-0.058 1.047 0.817-0.254 1.456-0.452 2.053-0.637-0.042 0.568 1.414 1.411 2.314 1.272-0.335-0.318-0.698-0.663-1.147-1.089 1.516-0.145 2.849-0.272 4.153-0.397 0.607 0.189 1.27 0.396 1.963 0.611 0.082 0.257 0.196 0.617 0.332 1.042 0.854-0.263 1.656-0.511 2.521-0.778-0.096-0.286-0.231-0.691-0.367-1.097 0.093-0.053 0.185-0.106 0.277-0.159 0.243 0.302 0.469 0.62 0.735 0.9 0.249 0.262 0.541 0.485 1.036 0.92 0.079-0.818 0.118-1.234 0.183-1.902 0.962 0.407 2.071 0.877 3.495 1.479-0.342-0.521-0.596-0.907-1.011-1.539 0.55 0.295 0.893 0.514 1.263 0.666 0.26 0.106 0.661 0.266 0.82 0.152 0.911-0.656 1.256-0.743 2.552-0.347-0.657 0.193-1.205 0.354-1.79 0.525 0.03 0.673 0.13 1.244 0.934 0.608 0.888-0.703 1.846-0.78 2.899-0.564 0.212 0.043 0.546-0.04 0.684-0.192 0.712-0.787 1.786-0.879 2.737 0.016-0.428 0.186-0.88 0.217-1.324 0.292-0.381 0.064-0.753 0.177-1.129 0.269 0.309 0.233 0.589 0.597 0.933 0.674 0.855 0.192 1.522-0.173 2.017-0.913 0.543-0.814 3.018-1.345 3.67-0.823-0.033 0.245-0.066 0.49-0.135 0.994 0.845-0.246 1.512-0.44 2.147-0.625-0.053 0.544 1.343 1.371 2.314 1.315-0.368-0.351-0.746-0.711-1.193-1.138 1.511-0.138 2.817-0.258 4.311-0.395 0.388 0.145 1.041 0.389 1.814 0.677 0.053 0.163 0.17 0.521 0.311 0.957 0.85-0.244 1.684-0.483 2.566-0.736-0.125-0.321-0.271-0.696-0.418-1.072 0.08-0.061 0.158-0.121 0.238-0.182 0.514 0.542 1.029 1.083 1.543 1.625 0.102-0.057 0.205-0.114 0.307-0.171 0.055-0.439 0.109-0.879 0.193-1.558 0.961 0.416 2.07 0.896 3.57 1.546-0.43-0.603-0.695-0.974-0.961-1.345 0.447 0.046 0.787 0.276 1.152 0.447 0.229 0.106 0.689 0.227 0.725 0.165 0.641-1.178 1.652-0.38 2.52-0.397-0.568 0.183-1.135 0.367-1.838 0.593 0.188 0.328 0.344 0.602 0.549 0.961 1.113-0.979 2.23-1.423 3.57-0.895 0.123 0.048 0.381-0.096 0.504-0.222 0.807-0.833 1.688-0.938 2.787-0.101-0.449 0.209-0.928 0.257-1.402 0.333-0.357 0.056-0.709 0.147-1.064 0.223 0.285 0.248 0.535 0.623 0.865 0.718 0.857 0.248 1.477-0.191 2.072-0.817 0.422-0.444 1.01-0.852 1.592-0.992 0.637-0.153 1.35 0.022 2.064 0.055-0.02 0.266-0.039 0.533-0.076 1.046 0.822-0.253 1.459-0.451 2.059-0.636-0.039 0.568 1.402 1.407 2.332 1.275-0.342-0.319-0.709-0.662-1.166-1.089 1.518-0.148 2.85-0.279 4.156-0.407 0.604 0.19 1.264 0.399 1.984 0.627 0.191 0.372 0.012 1.297 1.041 0.943 0.578-0.198 1.121-0.496 1.758-0.784-0.062-0.189-0.195-0.596-0.328-1.002 0.072-0.046 0.146-0.093 0.219-0.139 0.518 0.54 1.035 1.081 1.553 1.621 0.107-0.068 0.217-0.137 0.324-0.205 0.027-0.44 0.055-0.881 0.096-1.56 1.041 0.458 2.125 0.934 3.547 1.559-0.357-0.551-0.611-0.943-1.014-1.565 0.531 0.282 0.875 0.499 1.244 0.65 0.262 0.107 0.77 0.241 0.809 0.169 0.652-1.213 1.631-0.292 2.465-0.339-0.57 0.177-1.141 0.354-1.742 0.541 0.148 0.65 0.279 1.178 0.988 0.583 0.867-0.727 1.842-0.8 2.895-0.573 0.193 0.042 0.574-0.002 0.602-0.089 0.377-1.212 1.367-0.597 2.09-0.694 0.215-0.029 0.471 0.261 0.707 0.405-0.285 0.219-0.545 0.548-0.863 0.625-0.309 0.073-0.676-0.163-1.02-0.17-0.178-0.004-0.359 0.194-0.541 0.3 0.123 0.163 0.211 0.393 0.375 0.479 0.973 0.515 1.871 0.254 2.564-0.708 0.562-0.78 3.037-1.339 3.674-0.83-0.031 0.246-0.064 0.491-0.129 0.994 0.838-0.241 1.508-0.432 2.141-0.614-0.051 0.528 1.34 1.359 2.326 1.311-0.373-0.354-0.75-0.711-1.273-1.208 0.947-0.054 1.625-0.071 2.295-0.137 0.637-0.062 1.266-0.176 1.881-0.264 0.629 0.222 1.312 0.462 2.02 0.712 0.078 0.249 0.182 0.58 0.311 0.991 0.848-0.243 1.682-0.48 2.57-0.734-0.123-0.314-0.27-0.69-0.416-1.067 0.078-0.061 0.156-0.121 0.234-0.182 0.516 0.54 1.031 1.08 1.799 1.884 0.107-0.868 0.162-1.308 0.232-1.862 0.445 0.121 1.166 0.195 1.77 0.502 1.383 0.705 1.359 0.75 1.662 0.398-0.289-0.251-0.58-0.507-0.873-0.763 0.506-0.02 0.846 0.207 1.213 0.376 0.229 0.106 0.686 0.235 0.723 0.171 0.65-1.128 1.652-0.41 2.529-0.402-0.568 0.184-1.137 0.368-1.836 0.594 0.18 0.323 0.334 0.599 0.535 0.961 1.119-0.959 2.229-1.438 3.572-0.893 0.123 0.049 0.383-0.092 0.506-0.217 0.826-0.839 1.676-0.945 2.807-0.281-0.355 0.684-0.826 0.8-1.539 0.505-0.242-0.101-0.623 0.136-0.941 0.218 0.246 0.232 0.455 0.567 0.75 0.677 0.908 0.342 1.551-0.107 2.182-0.763 0.426-0.443 1.008-0.857 1.59-0.997 0.635-0.153 1.35 0.026 2.07 0.063-0.02 0.252-0.039 0.52-0.08 1.035 0.822-0.253 1.463-0.45 2.059-0.634-0.037 0.569 1.391 1.403 2.354 1.279-0.352-0.321-0.723-0.66-1.197-1.092 1.529-0.149 2.857-0.28 4.189-0.41 0.443 0.13 1.07 0.541 1.438 0.374 0.672-0.305 1.301-0.871 1.738-1.478 0.4-0.556 0.525-1.311 0.777-1.991-0.918 0.029-0.988-0.751-1.004-1.521-0.027-1.239-0.098-2.488 0.014-3.718 0.156-1.746 0.455-3.479 0.717-5.215 0.021-0.15 0.25-0.261 0.307-0.417 0.088-0.239 0.107-0.502 0.154-0.755-0.113-0.009-0.229-0.018-0.342-0.026-0.223 0.245-0.445 0.49-0.857 0.945 0-1.16-0.021-2.059 0.008-2.957 0.016-0.57-0.27-1.257 0.557-1.581 0.119-0.046 0.152-0.429 0.146-0.654-0.025-0.874-0.658-1.59-0.363-2.622 0.229-0.798-0.393-1.808-0.285-2.681 0.156-1.271 0.301-2.481-0.021-3.759-0.186-0.731 0.008-1.513 1.434-1.438-1.494-1.444-1.432-2.872-0.162-4.353-1.221-0.003-1.305-0.755-1.309-1.54-0.01-1.88-0.229-3.797 0.074-5.627 0.207-1.259 0.084-2.763 1.221-3.793 0.082-0.074-0.127-0.466-0.309-1.072-0.338 0.643-0.512 0.974-0.686 1.304-0.264-0.333-0.318-0.451-0.299-0.554 0.268-1.379-0.504-2.825 0.627-4.212 0.605-0.741-0.639-1.861-0.314-3.027 0.225-0.812-0.336-1.811-0.254-2.7 0.107-1.183 0.314-2.315 0.02-3.524-0.117-0.477 0.201-1.278 0.594-1.609 0.572-0.484 0.721-0.472 0.127-0.939-0.605-0.476-0.717-0.983-0.389-1.663 0.271-0.567 0.48-1.164 0.766-1.863-1.266 0.332-1.045-0.678-1.15-1.255-0.127-0.697 0.008-1.437-0.039-2.154-0.15-2.304 0.123-4.557 0.736-6.774 0.055-0.196 0.23-0.355 0.303-0.55 0.088-0.239 0.127-0.497 0.186-0.746-0.141-0.042-0.281-0.083-0.424-0.124-0.162 0.331-0.324 0.661-0.484 0.992-0.121-0.094-0.24-0.188-0.359-0.281 0.395-1.479-0.459-3.032 0.668-4.564 0.441-0.603-0.17-1.963-0.264-2.982-0.09-0.978-0.291-1.987-0.139-2.932 0.113-0.693-0.092-0.95-0.582-1.21-0.189-0.1-0.5-0.144-0.559-0.292-0.344-0.878-0.836-0.441-1.408-0.287-0.977 0.264-1.998 0.493-2.996 0.471-0.336-0.007-0.656-0.817-1.051-1.35-0.285 0.022-0.697 0.054-1.201 0.093 0.139 0.505 0.238 0.871 0.338 1.237-0.064 0.08-0.127 0.16-0.189 0.24-0.588-0.451-1.176-0.901-1.471-1.127-0.475 0.437-0.791 0.97-1.08 0.955-1.525-0.079-3.045-0.295-4.566-0.469-0.107-0.012-0.209-0.074-0.404-0.146 0.041 0.256 0.119 0.588 0.092 0.598-1.764 0.593-3.547-1.418-5.332 0.026-0.047 0.037-0.299-0.252-0.477-0.291-0.295-0.065-0.615-0.104-0.908-0.057-0.604 0.096-1.195 0.358-1.795 0.37-2.318 0.045-4.639 0.026-6.959 0.013-0.578-0.003-1.289 0.264-1.523-0.646-0.025-0.103-0.436-0.206-0.621-0.152-0.891 0.258-1.664 1.277-2.713 0.37-1.365 1.105-1.361-0.277-1.75-1.01-0.416 0.021-0.834 0.042-1.348 0.067 0.133 0.521 0.232 0.913 0.332 1.305-0.078 0.069-0.154 0.138-0.232 0.207-0.582-0.457-1.164-0.914-1.965-1.541 0.314 1.012 0.121 1.396-0.635 1.38-1.598-0.034-3.191-0.188-4.826-0.296v0.392c-0.912-0.109-1.775-0.187-2.629-0.327-0.291-0.048-0.561-0.375-0.834-0.366-1.064 0.033-2.047 0.613-3.209 0.26-0.58-0.176-1.332 0.327-2.012 0.344-2.119 0.052-4.238 0.037-6.359 0.009-0.713-0.009-1.582 0.334-1.982-0.676-0.041-0.102-0.301-0.211-0.412-0.174-0.955 0.314-1.803 1.266-2.936 0.463-1.375 1.067-1.275-0.342-1.6-0.972h-1.418c0.121 0.488 0.217 0.885 0.314 1.282-0.482 0-0.779-0.206-1.062-0.43-0.305-0.239-0.596-0.495-0.893-0.743-0.049 0.054-0.098 0.108-0.148 0.162 0.086 0.203 0.17 0.405 0.33 0.787-2.029 0.552-3.957 0.461-5.674-0.25-0.252 0.252-0.428 0.555-0.557 0.537-0.996-0.143-1.98-0.376-2.977-0.526-1.137-0.17-2.203 0.613-3.406 0.217-0.432-0.143-1.023 0.307-1.545 0.315-2.318 0.039-4.639 0.028-6.959 0.01-0.646-0.005-1.43 0.291-1.752-0.664-0.035-0.105-0.372-0.208-0.519-0.16-0.92 0.304-1.734 1.251-2.823 0.417-1.338 1.061-1.316-0.239-1.627-0.917h-1.438c0.135 0.491 0.235 0.855 0.336 1.219-0.065 0.078-0.13 0.156-0.194 0.235l-1.764-1.356c0.503 1.004-0.305 1.213-0.795 1.19-1.525-0.073-3.045-0.304-4.565-0.479-0.107-0.013-0.21-0.07-0.396-0.135 0.037 0.25 0.064 0.432 0.133 0.887-1.259-0.316-2.408-0.784-3.579-0.844-1.041-0.053-2.043 0.608-3.201 0.268-0.515-0.151-1.18 0.316-1.78 0.328-2.279 0.044-4.56 0.03-6.839 0.01-0.605-0.005-1.367 0.309-1.642-0.648-0.029-0.104-0.437-0.198-0.622-0.142-0.889 0.269-1.668 1.248-2.714 0.37-1.375 1.105-1.352-0.307-1.737-1.02-0.427 0.025-0.843 0.049-1.351 0.079 0.134 0.523 0.233 0.914 0.333 1.304-0.076 0.064-0.152 0.128-0.229 0.193-0.583-0.453-1.165-0.906-1.748-1.359 0.438 1.08-0.367 1.208-0.867 1.199-1.597-0.028-3.191-0.184-4.864-0.295 0.034-0.047-0.115 0.31-0.238 0.301-0.94-0.067-1.966-0.004-2.793-0.369-1.3-0.574-2.434 0.719-3.709 0.088-0.341-0.168-0.94 0.285-1.425 0.292-2.239 0.036-4.479 0.041-6.719 0.002-0.742-0.013-1.658 0.382-2.112-0.673-0.043-0.1-0.428-0.127-0.623-0.075-0.855 0.231-1.605 1.258-2.605 0.317-1.329 1.081-1.422-0.142-1.688-0.919h-1.424c0.122 0.492 0.22 0.886 0.317 1.28-0.073 0.074-0.146 0.148-0.22 0.223-0.584-0.464-1.169-0.927-1.753-1.391 0.396 1.108-0.357 1.244-0.948 1.226-1.586-0.047-3.168-0.209-4.764-0.326-0.004 0.006-0.093 0.307-0.225 0.327-0.39 0.06-0.812 0.079-1.191-0.012-0.711-0.17-1.477-0.735-2.083-0.585-1.107 0.273-2.186 0.336-3.3 0.341-0.329 0.002-0.657 0.265-0.986 0.268-2.72 0.023-5.439 0.018-8.16 0.005-0.255-0.001-0.691-0.046-0.735-0.175-0.408-1.209-1.083-0.424-1.687-0.276-0.577 0.141-1.164 0.239-1.748 0.356-0.062-0.119-0.123-0.237-0.185-0.356-1.157 0.82 0.127 2.186-0.857 3.061 0.082-0.594 0.164-1.189 0.252-1.826-1.443 0.691-1.552 1.478-0.479 2.576 0.289 0.297 0.682 0.78 0.613 1.084-0.19 0.853-0.643 1.644-0.897 2.487-0.107 0.355 0.019 0.781 0.039 1.175 0.311-0.121 0.62-0.243 1.098-0.429-0.188 0.551-0.375 1.008-0.494 1.483-0.061 0.242-0.029 0.521 0.014 0.774 0.089 0.528 0.457 1.159 0.28 1.555-0.685 1.528 0.215 2.975 0.062 4.469-0.136 1.315-0.028 2.656-0.028 4.176-0.306-0.268-0.539-0.412-0.52-0.464 0.472-1.291-0.2-1.319-1.146-1.059-0.063 0.018-0.122 0.052-0.167 0.071-0.426 0.819-0.732 1.624 0.926 1.455zm33.567-22.227c-0.001-0.122-0.003-0.244-0.005-0.366-0.689 0-1.379-0.01-2.067 0.003-0.678 0.013-1.354 0.049-2.032 0.076 0.017 0.109 0.034 0.218 0.052 0.327 0.835 0.225 1.67 0.45 2.598 0.699 0.365-0.185 0.909-0.462 1.454-0.739zm30.727-0.017c-0.003-0.091-0.006-0.183-0.008-0.274h-4.061c-0.006 0.1-0.013 0.199-0.02 0.299 0.845 0.246 1.689 0.492 2.579 0.75 0.427-0.219 0.968-0.497 1.51-0.775zm118.8-0.292v0.324c0.82 0.227 1.643 0.454 2.613 0.722 0.342-0.18 0.906-0.479 1.473-0.777-0.004-0.09-0.006-0.18-0.01-0.269h-4.07zm-26.65 0.31c-0.002-0.123-0.002-0.245-0.004-0.367-0.689 0-1.379-0.01-2.068 0.003-0.678 0.013-1.355 0.049-2.033 0.076 0.018 0.109 0.035 0.218 0.053 0.327 0.834 0.225 1.67 0.45 2.598 0.699 0.37-0.188 0.91-0.463 1.45-0.738zm-62.91 0.734c0.396-0.202 0.936-0.478 1.477-0.754-0.004-0.092-0.008-0.183-0.012-0.274h-4.059c-0.008 0.104-0.015 0.208-0.022 0.312 0.81 0.223 1.63 0.447 2.61 0.716zm32.17-0.737c0.01-0.115 0.02-0.229 0.029-0.344-0.684 0-1.367-0.007-2.051 0.001-0.682 0.009-1.363 0.032-2.045 0.048 0.008 0.11 0.016 0.219 0.023 0.329 0.828 0.22 1.658 0.44 2.621 0.695 0.33-0.168 0.88-0.448 1.43-0.729zm65.73 31.422c-0.15-0.013-0.301-0.025-0.453-0.038-0.059 1.174-0.117 2.348-0.182 3.655 0.414-0.328 0.754-0.597 0.889-0.703-0.1-1.087-0.18-2-0.26-2.914zm0.24 33.654c-0.092-1.106-0.17-2.041-0.248-2.975-0.121-0.003-0.244-0.005-0.365-0.008-0.094 0.589-0.236 1.175-0.266 1.767-0.027 0.604 0.057 1.213 0.092 1.843 0.33-0.25 0.64-0.492 0.8-0.627zm-98.15 25.054c0.077 0.405 0.123 0.65 0.158 0.837-0.37 0.158-0.725 0.308-1.079 0.458 0.029 0.145 0.06 0.291 0.09 0.436 0.821-0.073 1.644-0.147 2.621-0.234-0.63-0.54-1.12-0.95-1.79-1.51zm30.89 0.78c-0.395 0.218-0.727 0.401-1.061 0.585 0.043 0.134 0.086 0.268 0.127 0.402 0.799-0.093 1.596-0.186 2.541-0.296-0.646-0.518-1.156-0.923-1.803-1.44 0.09 0.35 0.14 0.56 0.19 0.76zm30.71 0.07c-0.4 0.152-0.742 0.281-1.086 0.411 0.027 0.147 0.053 0.295 0.078 0.443 0.83-0.062 1.658-0.125 2.68-0.201-0.699-0.56-1.193-0.957-1.756-1.408 0.03 0.27 0.06 0.51 0.09 0.76zm29.67 0.36c0.016 0.175 0.033 0.35 0.051 0.524 0.824-0.072 1.646-0.146 2.641-0.233-0.658-0.54-1.162-0.955-1.789-1.468 0.068 0.363 0.113 0.609 0.158 0.84-0.36 0.11-0.71 0.23-1.06 0.34zm-122.87 0c0.005 0.171 0.011 0.342 0.016 0.513 0.83-0.067 1.659-0.134 2.665-0.215-0.655-0.534-1.165-0.95-1.763-1.437 0.052 0.303 0.093 0.546 0.133 0.791-0.351 0.13-0.701 0.24-1.051 0.36zm-30.763 0.03c0.022 0.151 0.045 0.302 0.067 0.452 0.826-0.057 1.653-0.115 2.677-0.186-0.702-0.563-1.206-0.966-1.824-1.462 0.079 0.373 0.13 0.612 0.171 0.801-0.4 0.15-0.745 0.28-1.091 0.4zm-30.677-0.03l0.018 0.513c0.828-0.067 1.657-0.134 2.663-0.215-0.655-0.534-1.166-0.95-1.763-1.437 0.051 0.303 0.092 0.546 0.132 0.791-0.35 0.13-0.7 0.24-1.05 0.36zm189.92-2.09c-0.24 0.271-0.496 0.502-0.68 0.783-0.158 0.243-0.232 0.541-0.344 0.814 0.352-0.054 0.736-0.037 1.047-0.182 0.312-0.146 0.549-0.453 0.883-0.746-0.31-0.22-0.61-0.44-0.91-0.66zm-190.54-71.651c-0.338 0.99-0.586 1.718-0.871 2.55 1.611-0.685 1.68-0.847 0.871-2.55zm0.018 61.421c-0.352 1.003-0.604 1.728-0.892 2.55 1.589-0.623 1.67-0.807 0.892-2.55zm-0.939-28.04c1.767-0.977 1.795-1.055 0.871-2.541-0.3 0.877-0.545 1.59-0.871 2.541zm16.103-49.996c0.09 0.107 0.179 0.214 0.269 0.321 0.677-0.606 1.353-1.213 2.029-1.82-0.072-0.092-0.146-0.184-0.218-0.276-1.081 0.108-1.534 0.999-2.08 1.775zm153.59-0.101c0.096 0.143 0.189 0.286 0.285 0.428 0.674-0.608 1.346-1.217 2.02-1.825-1.31-0.249-1.66 0.765-2.3 1.397zm-30.72 0.063c0.09 0.113 0.18 0.225 0.27 0.337 0.678-0.592 1.355-1.185 2.033-1.777-0.07-0.095-0.143-0.19-0.215-0.285-1.09 0.046-1.47 1.033-2.08 1.725zm-30.71 0.038l0.27 0.321c0.676-0.606 1.352-1.213 2.029-1.82-0.074-0.092-0.146-0.184-0.219-0.276-1.08 0.108-1.53 0.999-2.08 1.775zm-28.425-1.467c-0.08-0.103-0.16-0.207-0.241-0.31-1.103 0.11-1.524 1.003-2.026 1.804 0.083 0.1 0.167 0.2 0.25 0.301 0.672-0.598 1.344-1.197 2.017-1.795zm-33.021 1.367c0.095 0.143 0.189 0.285 0.284 0.427 0.674-0.608 1.347-1.216 2.021-1.825-1.317-0.247-1.668 0.764-2.305 1.398zm116.41-1.084h-2.768c1.12 1.139 1.78 1.148 2.77 0zm-33.5 0.001c1.193 1.179 2.016 1.159 2.66 0h-2.66zm-30.7 0c1.111 1.168 1.961 1.156 2.664-0.001-0.87 0-1.77 0-2.66 0.001zm-30.74 0c1.194 1.179 2.017 1.158 2.661 0h-2.661zm-27.938-0.001c-0.977 0-1.872 0-2.766 0.002 1.095 1.144 1.749 1.156 2.766-0.002zm-33.464-0.001c1.026 1.171 1.883 1.17 2.673 0h-2.673zm5.642 38.888c0.092 1.242 0.168 2.265 0.243 3.288 1.131-0.312 1.546-1.239 1.063-2.368-0.1-0.234-0.286-0.478-0.27-0.707 0.082-1.167 0.267-2.328 0.319-3.496 0.059-1.287 0.014-2.579 0.014-3.868h0.236c0.253 1.39 0.506 2.78 0.786 4.32 0.261-0.403 0.46-0.712 0.66-1.021 0.082 0.414 0.035 0.767-0.141 1.036-0.701 1.071-0.525 2.264 0.451 3.174 0.188 0.175 0.322 0.562 0.263 0.796-0.05 0.199-0.416 0.317-0.684 0.5 0.092 0.27 0.11 0.731 0.306 0.825 0.988 0.477 0.845 0.976 0.274 1.724-0.213 0.278-0.035 0.855-0.035 1.296 0.13-0.002 0.26-0.004 0.39-0.007 0.069-0.21 0.092-0.457 0.219-0.623 0.193-0.251 0.438-0.49 0.711-0.637 0.077-0.041 0.5 0.292 0.479 0.397-0.05 0.255-0.294 0.465-0.411 0.716-0.15 0.321-0.364 0.667-0.356 0.999 0.034 1.308 0.145 2.613 0.234 4.031 0.801 0.237 1.197 0.973 0.828 2.011-0.264-0.146-0.527-0.292-0.791-0.439-0.065 0.081-0.132 0.161-0.197 0.242 0.247 0.204 0.486 0.566 0.743 0.58 0.638 0.033 1.285-0.093 2.02-0.165 0.028-0.102 0.103-0.375 0.179-0.652 0.409 0.155 0.722 0.274 0.923 0.351 0.121-0.699 0.234-1.349 0.348-2 0.112 0.016 0.225 0.032 0.337 0.048 0.015 0.154 0.014 0.312 0.046 0.462 0.057 0.267 0.134 0.529 0.202 0.793 0.217-0.229 0.615-0.458 0.615-0.686-0.003-0.688-0.175-1.373-0.253-2.062-0.033-0.285-0.031-0.584 0.016-0.867 0.063-0.374 0.266-0.737 0.272-1.107 0.038-1.837-0.228-3.667-0.036-5.516 0.134-1.286 0.026-2.598 0.026-3.897-0.077-0.019-0.154-0.037-0.231-0.055-0.287 0.678-0.575 1.355-0.942 2.221-0.31-0.48-0.544-0.845-0.704-1.093 0.387-0.401 0.736-0.645 0.922-0.979 0.584-1.054 1.518-2.082 0.509-3.388-0.037-0.048 0-0.156 0.008-0.235 0.153-1.485 0.322-2.969 0.445-4.457 0.017-0.201-0.194-0.421-0.3-0.633-0.146 0.315-0.042 0.548-0.085 0.748-0.069 0.324-0.224 0.634-0.378 0.93-0.018 0.032-0.358-0.016-0.403-0.102-0.169-0.33-0.475-0.77-0.373-1.025 0.352-0.877 0.854-1.694 1.339-2.61-0.091-0.364-0.344-0.931-0.337-1.495 0.006-0.415 0.478-0.812 0.522-1.24 0.089-0.85 0.026-1.715 0.026-2.309-0.535-0.104-1.035-0.05-1.212-0.263-0.536-0.648-0.612-1.346 0.359-1.913v1.285l0.405 0.141c0.15-0.43 0.52-0.925 0.415-1.28-0.443-1.492 0.102-2.943 0.022-4.406-0.025-0.468-0.249-0.923-0.357-1.39-0.042-0.178-0.043-0.376-0.017-0.559 0.104-0.692 0.225-1.383 0.34-2.079h-2.908c-1.273 1.44-0.018 2.915-0.885 4.387-0.492 0.834 0.004 2.25 0.055 3.403-0.131 0.639-0.175 1.279-0.21 1.919-0.013 0.239 0.075 0.519-0.021 0.712-0.497 0.999 0.402 2.019-0.125 3.083-0.188 0.379 0.384 1.135 0.63 1.774-1.408 0.467-0.438 1.548-0.59 2.354-0.16 0.847-0.175 1.722-0.252 2.585-0.051-0.021-0.101-0.041-0.151-0.062-0.213-1.529-0.426-3.059-0.634-4.55-0.066 0.14-0.141 0.298-0.172 0.365-0.249-0.955-0.498-1.904-0.741-2.836 0.089 0.021 0.286 0.066 0.475 0.109-0.08-0.93 0.066-1.935-0.298-2.694-0.353-0.733-1.233-1.212-1.882-1.803 0.066-0.078 0.132-0.155 0.197-0.232 0.511 0.254 1.021 0.509 1.541 0.768-0.104-0.67-0.205-1.317-0.306-1.964-0.506 0.085-0.935 0.341-0.928-0.632 0.01-1.454-0.292-2.909-0.467-4.409h0.715c-0.262-0.881-0.497-1.667-0.691-2.319-0.946 0.215-1.631 0.436-2.332 0.511-0.57 0.062-1.159-0.07-1.74-0.082-1.131-0.022-0.837 0.632-0.652 1.308 0.058 0.209-0.248 0.493-0.279 0.756-0.064 0.539-0.295 1.307-0.033 1.59 0.806 0.871 0.369 1.54-0.011 2.341-0.203 0.429-0.409 1.273-0.234 1.397 1.153 0.823 0.265 1.49-0.033 2.219-0.062 0.153-0.009 0.354-0.009 0.576 0.366-0.174 0.663-0.315 0.96-0.456 0.126 0.032 0.253 0.064 0.38 0.096-1.398 2.483-0.411 5.076-0.577 7.852-0.395-0.369-0.608-0.569-0.819-0.765-0.007 0.038-0.027 0.08-0.019 0.115 0.336 1.352 1.185 2.699 0.007 4.062-0.079 0.092-0.072 0.351 0 0.464 0.375 0.583 0.067 1.132 0.047 1.714-0.075 2.06 0.094 4.127 0.159 6.192 0.04 1.251 0.818 2.468 0.063 3.776-0.177 0.307-0.018 0.987 0.228 1.32 0.488 0.666 0.338 1.18 0.004 1.825-0.261 0.504-0.592 1.503-0.443 1.601 0.9 0.591 0.448 1.378 0.433 2.206h2.038c0.007 0.125 0.013 0.25 0.019 0.374-0.423 0.042-0.847 0.084-1.352 0.135 0.022 0.26 0.051 0.586 0.088 1.017 0.998-0.171 1.871-0.321 2.665-0.457-0.014-0.233-0.029-0.506-0.046-0.779 1.089-0.035 0.497-0.687 0.382-1.111-0.319-1.18-0.695-2.344-1-3.527-0.041-0.159 0.189-0.392 0.302-0.586 0.457-0.8 1.038-1.57 0.581-2.585-0.22 0.525-0.439 1.052-0.659 1.578-0.146-0.03-0.29-0.059-0.435-0.089 0.077-0.854 0.155-1.709 0.233-2.563-0.937-0.659-1.084-1.768-0.27-3.268zm93.21 10.443c0.234 0.084 0.609 0.218 1.236 0.442-0.266 0.784-0.541 1.594-0.691 2.042-0.918 0.16-1.486 0.32-2.061 0.342-0.549 0.022-1.359 0.354-1.369-0.728 0.479-0.132 0.924-0.255 1.371-0.379-1.865-0.685-1.896-0.686-1.846-2.851 0.014-0.679 0.354-1.354 0.352-2.03-0.004-0.709-0.297-1.412-0.355-2.126-0.068-0.833 0.021-1.579 0.889-2.139 0.348-0.225 0.318-1.032 0.541-1.875-0.586 0.396-0.939 0.634-1.328 0.895-0.039-1.086-0.109-2.107-0.088-3.125 0.006-0.241 0.33-0.475 0.615-0.856 0.17 0.795 0.285 1.328 0.406 1.895 1.551-0.946 0.604-2.049 0.068-2.407-1.031-0.689-0.781-1.782-0.99-2.553-0.389-1.426-1.043-2.011-2.395-2.096-0.26-0.016-0.516-0.129-0.742-0.189-0.096 1.31-0.188 2.565-0.281 3.822 0.219 0.575-1.24 0.969 0.201 1.823 0.434 0.257 0.238 1.842 0.072 2.772-0.156 0.885-0.652 1.71-1 2.562-0.119-0.021-0.238-0.042-0.359-0.063 0.254 0.28 0.51 0.56 0.822 0.907 0.15-0.34 0.264-0.6 0.521-1.191 0.031 0.521 0.113 0.743 0.041 0.887-0.281 0.558-0.609 1.092-0.996 1.765 0.434 0.04 0.68 0.062 0.984 0.09-0.084 1.072 0.441 2.23-0.645 3.146-0.201 0.168-0.213 0.66-0.178 0.988 0.098 0.885 0.268 1.762 0.336 2.728-0.918-1.527-2.015 0.219-2.982-0.2 0.692-1.695 0.692-1.695-0.328-2.047 0.177-0.767 0.355-1.544 0.602-2.619-0.538 0.368-0.841 0.575-1.467 1.003 0.382-1.455 0.781-2.624 0.967-3.824 0.103-0.668-0.114-1.398-0.26-2.085-0.088-0.415-0.559-0.899-0.442-1.18 0.584-1.413-0.397-3.305 1.479-4.338-0.387-0.146-0.631-0.239-0.788-0.299 0.271-1.496 0.531-2.921 0.8-4.399-0.87-0.095-1.132 0.482-1.217 1.13-0.062 0.47 0.05 0.962 0.083 1.445-0.168-0.001-0.336-0.002-0.504-0.004 0.134-1.061 0.318-2.119 0.386-3.185 0.058-0.896-0.052-1.801-0.023-2.7 0.011-0.325 0.129-0.711 0.335-0.953 1.156-1.355 1.299-2.672 0.591-4.344-0.188-0.442 0.032-1.057 0.07-1.674-0.178 0.086-0.42 0.204-0.896 0.435 0.33-0.7 0.44-1.356 0.828-1.677 1.11-0.917 0.334-1.129-0.546-1.443 0.18-0.782 0.358-1.559 0.604-2.628-0.539 0.369-0.843 0.577-1.471 1.005 0.385-1.458 0.643-2.661 1.027-3.82 0.298-0.894 0.176-1.592-0.484-2.258-0.603-0.607-0.375-2.006 0.341-2.15 0.6-0.121 1.224-0.121 1.836-0.169 0.159-0.012 0.321-0.009 0.481-0.001 1.738 0.085 3.477 0.173 5.496 0.273-0.531 0.477-0.908 0.813-1.543 1.382 2.574-0.18 3.26 1.193 3.348 3.29 0.146-0.413 0.291-0.825 0.531-1.505 0.381 0.281 1.014 0.532 1.016 0.787 0.01 1.577-0.098 3.158-0.238 4.731-0.018 0.213-0.432 0.391-0.834 0.73 0.268 0.127 0.609 0.29 1.09 0.519-0.012-0.046 0.098 0.128 0.053 0.237-1.023 2.424 0.688 4.847-0.115 7.19-0.096-0.865-0.199-1.818-0.316-2.879-1.453 0.858 0.383 2.667-1.086 3.341 0.506 0.251 1.053 0.364 1.098 0.579 0.072 0.354-0.191 0.772-0.295 1.168-0.158 0.602-0.797 1.003-0.346 1.869 0.352 0.675 0.164 1.635 0.199 2.468 0.012 0.273-0.158 0.658-0.029 0.803 0.557 0.631 0.516 1.174-0.008 1.792-0.115 0.137-0.018 0.457-0.018 0.854 0.355-0.158 0.611-0.271 0.871-0.386 0 0.001 0.066 0.081 0.047 0.124-0.461 1.098-0.107 2.204 0.039 3.281 0.166 1.217-0.58 1.903-1.182 2.751-0.436 0.613-0.629 1.397-0.93 2.105 0.109 0.044 0.219 0.088 0.326 0.133 0.49-0.778 0.977-1.557 1.467-2.335 0.127 0.021 0.254 0.041 0.383 0.061-0.109 2.015-0.188 4.032-0.361 6.041-0.04 0.341-0.48 0.645-0.82 1.077zm-5.65-36.825c-0.557 0.497-1.066 0.953-1.578 1.41 0.281 0.155 0.562 0.31 0.875 0.481-0.113 1.018 0.373 2.169-0.684 3.032-0.188 0.152-0.27 0.612-0.197 0.875 0.357 1.29 0.729 2.554-0.057 3.83-0.078 0.129-0.012 0.412 0.078 0.569 0.9 1.562 0.951 3.245 0.785 4.975-0.051 0.538 0.088 0.958 0.799 0.579 0.26-0.139 0.643-0.069 0.879-0.229 0.529-0.359 1.27-0.716 1.432-1.23 0.238-0.75 0.023-1.639 0.041-2.467 0.018-0.816-0.627-1.766 0.473-2.395 0.104-0.059 0.094-0.441 0.033-0.641-0.588-1.946-0.969-3.851-0.275-5.91 0.203-0.604-0.307-1.599-0.754-2.229-0.373-0.528-1.129-0.785-1.764-1.192-0.062 0.095-0.213 0.221-0.205 0.337 0.02 0.133 0.16 0.258 0.13 0.205zm71.34 1.17c0.209 0.227 0.389 0.506 0.645 0.652 0.092 0.052 0.543-0.254 0.527-0.336-0.059-0.296-0.303-0.554-0.373-0.851-0.096-0.409-0.1-0.84-0.152-1.357-0.217-0.189-0.531-0.465-1.16-1.016 0.697-0.047 1.047-0.071 1.082-0.073 0.641-0.279 1.053-0.586 1.486-0.621 0.992-0.079 2.002 0.035 2.992-0.053 0.445-0.04 0.865-0.377 1.297-0.58-0.043-0.108-0.084-0.216-0.127-0.324h-1.855c0.014-0.127 0.025-0.254 0.039-0.381 1.006 0.161 2.311-0.015 2.951 0.555 1.184 1.051 3.475 0.095 3.979 2.363-0.553-0.356-1.016-0.654-1.479-0.952-0.121 0.18-0.242 0.359-0.363 0.539 0.709 0.503 1.516 0.916 2.088 1.543 0.35 0.382 0.334 1.096 0.314 1.661-0.209-0.285-0.418-0.569-0.629-0.854-0.172 0.314-0.514 0.645-0.486 0.941 0.066 0.745 0.301 1.475 0.473 2.236-0.17 0.198-0.479 0.498-0.686 0.857-0.043 0.071 0.365 0.559 0.469 0.528 0.348-0.104 0.652-0.354 0.926-0.521 0 2.339 0.082 4.884-0.041 7.419-0.047 1.011-0.617 1.986-0.816 3.003-0.139 0.713-0.43 1.55 0.648 2.37-0.045-0.815-0.074-1.356-0.104-1.897 0.068-0.003 0.139-0.006 0.207-0.01v2.571c-0.221-0.026-0.504-0.058-0.787-0.09 0.299 1.124 0.723 2.232 0.859 3.375 0.148 1.26 0.033 2.551 0.033 3.984-0.293-0.234-0.486-0.39-0.709-0.568-0.234 0.87-0.107 1.247 0.566 1.864 0.074 0.067 0.129 0.193 0.129 0.292 0.008 1.764 0.006 3.529 0.006 5.327-0.279-0.405-0.473-0.685-0.664-0.965-0.178 0.268-0.521 0.55-0.5 0.802 0.062 0.784 0.264 1.556 0.42 2.372-0.15 0.211-0.41 0.576-0.668 0.94 0.318 0.22 0.635 0.44 1.021 0.708-0.461 1.67-1.979 2.314-3.389 2.657-0.479-0.401-0.805-0.842-1.23-0.988-0.592-0.203-0.928 0.065-0.857 0.808 0.016 0.162-0.631 0.521-0.994 0.559-0.824 0.085-1.662 0.026-2.502-0.085 0.381-0.022 0.764-0.045 1.145-0.068 0.047-0.086 0.092-0.173 0.139-0.26-0.49-0.327-0.979-0.653-1.582-1.055-0.121 0.417-0.199 0.69-0.283 0.98-0.904 0.005-0.988-0.671-1.375-1.278-1.242-1.949-0.654-4-0.844-6.141 0.416 0.359 0.658 0.619 0.953 0.781 0.064 0.036 0.486-0.334 0.457-0.416-0.098-0.272-0.422-0.477-0.479-0.746-0.088-0.405-0.023-0.841-0.023-1.325-0.254-0.222-0.568-0.499-1.174-1.03 0.645-0.073 0.984-0.111 1.459-0.165 0.176-0.38 0.121-0.729-0.289-1.458-0.607-1.084-0.375-2.643-0.488-4.001-0.025-0.307 0.018-0.62-0.01-0.926-0.176-1.982-0.361-3.963-0.545-5.945 0.152-0.016 0.305-0.033 0.457-0.049 0.111 0.991 0.225 1.983 0.336 2.974 0.074 0.049 0.148 0.098 0.225 0.147 0.188-0.337 0.545-0.683 0.529-1.011-0.035-0.771-0.311-1.53-0.363-2.302-0.025-0.354 0.211-0.744 0.385-1.089 0.252-0.504 0.557-0.983 0.838-1.474-0.102-0.063-0.205-0.127-0.307-0.191-0.523 0.602-1.047 1.203-1.57 1.805-0.094-0.057-0.186-0.113-0.279-0.169v-3.254c0.15 0.214 0.453 0.644 0.795 1.132 0.105-0.917 0.113-1.555 0.262-2.16 0.215-0.884-0.115-1.239-1.113-1.059v-1.588c2.039-0.303 0.432-1.392 0.393-2.07-0.096-1.669-0.395-3.327-0.611-4.99 0.08 0.001 0.21-0.001 0.34-0.003zm5.91 34.532h0.498c1.832-0.006 2.146-0.588 1.391-2.301-0.268-0.605-0.26-1.332-0.377-2.003 0.1-0.012 0.199-0.023 0.299-0.035 0.189 0.483 0.381 0.967 0.57 1.451 0.127-0.005 0.252-0.011 0.379-0.016 0-0.457 0.182-1.042-0.033-1.348-0.738-1.048-0.447-2.085-0.219-3.161 0.074-0.352 0.061-0.722 0.088-1.084-0.328 0.063-0.654 0.127-1.021 0.197 0-0.525-0.027-1.045 0.014-1.561 0.016-0.223 0.133-0.592 0.27-0.625 0.875-0.209 0.465-0.949 0.232-1.035-0.727-0.267-0.559-0.645-0.33-1.103 0.346-0.695 0.703-1.384 1.117-2.195-0.031-0.054-0.342-0.478-0.287-0.531 0.959-0.951-0.119-1.51-0.381-2.224-0.268-0.729-1.164-1.401-0.225-2.275 0.078-0.073-0.102-0.401-0.125-0.614-0.018-0.155 0.027-0.317 0.031-0.476 0.012-0.328 0.07-0.666 0.01-0.981-0.098-0.504-0.273-0.994-0.488-1.742 0.549 0.242 0.795 0.351 1.4 0.619-0.42-1.072-0.73-1.858-1.09-2.777 1.088-1.724 1.09-1.872-0.375-2.208 0.271-0.528 0.527-0.998 0.752-1.481 0.074-0.155 0.113-0.356 0.086-0.523-0.189-1.194-0.59-2.39-0.561-3.576 0.039-1.609-0.82-1.848-1.998-1.777 0.174-0.245 0.354-0.499 0.533-0.752-0.061-0.086-0.123-0.172-0.186-0.258-0.596 0.206-1.189 0.413-1.725 0.598v7.307c0.148-1.334 0.051-2.559-1.215-3.447-0.027 0.445-0.062 0.992 0.195 1.249 0.516 0.519 0.355 0.818 0.084 1.401-0.193 0.416 0.146 1.123 0.346 1.664 0.156 0.422 0.645 0.782 0.662 1.184 0.037 0.917-0.383 1.915-0.148 2.748 0.502 1.784-0.877 2.761-1.297 4.207 0.383 0.259 0.891 0.604 1.482 1.005 0 1.633 0.002 3.361-0.004 5.09-0.002 0.325-0.955 1.753-1.172 2.066-0.164 0.237-0.201 0.635-0.141 0.931 0.041 0.206 0.338 0.361 0.521 0.539 0.139-0.232 0.279-0.463 0.418-0.695 0.074-0.125 0.145-0.252 0.365-0.635 0 2.021-0.047 3.755 0.012 5.486 0.074 2.222-0.447 4.514 0.695 6.76 0.529-0.148 1.012-0.284 1.627-0.457-0.29-0.278-0.44-0.404-0.67-0.606zm4.79-13.118c0.119-0.05 0.24-0.101 0.359-0.151 0.033-0.689 0.064-1.378 0.098-2.068-0.141-0.037-0.281-0.074-0.422-0.111-0.232 0.394-0.639 0.782-0.65 1.182-0.01 0.376 0.39 0.765 0.61 1.148zm-7.2-2.296c0.24-0.653 0.494-1.161 0.59-1.697 0.035-0.206-0.262-0.636-0.465-0.676-0.248-0.049-0.557 0.204-0.666 0.251 0.19 0.745 0.33 1.287 0.54 2.122zm-138.75-21.965c-0.612 0.269-1.226 0.538-1.838 0.807-0.048-0.104-0.095-0.209-0.143-0.314 1.407-0.689 2.976-1.175 4.18-2.124 1.331-1.049 2.382-0.168 3.73-0.129-0.57 0.509-0.994 0.887-1.657 1.479 0.756-0.067 1.229-0.109 1.734-0.155 0.863 0.925 1.76 1.896 1.219 3.477 0.121-0.012 0.242-0.023 0.364-0.035 0.128-0.417 0.256-0.834 0.491-1.6 0.421 0.351 1.047 0.628 1.053 0.919 0.031 1.458-0.055 2.925-0.204 4.377-0.035 0.344-0.475 0.646-0.814 1.078 0.229 0.083 0.601 0.215 0.986 0.354 0.018 0.037 0.096 0.123 0.076 0.171-0.966 2.492 0.597 4.99-0.097 7.489-0.104-0.961-0.209-1.921-0.313-2.881-0.061-0.05-0.121-0.101-0.183-0.151-0.132 0.399-0.302 0.791-0.384 1.199-0.054 0.264 0.06 0.557 0.03 0.83-0.071 0.675-0.403 1.319 0.499 1.831 0.497 0.282 0.434 0.842-0.034 1.472-0.444 0.598-0.404 1.555-0.577 2.354 0.179 0.037 0.357 0.073 0.535 0.11 0.085-0.445 0.17-0.889 0.254-1.333 0.109 0.005 0.219 0.011 0.328 0.017-0.118 0.568-0.141 1.181-0.377 1.694-0.395 0.855-0.956 1.623-0.249 2.596 0.13 0.179-0.012 0.586-0.081 0.875-0.086 0.356-0.228 0.699-0.444 1.343 0.548-0.256 0.805-0.376 1.059-0.495 0.004 0.011 0.067 0.099 0.045 0.149-0.488 1.098-0.075 2.203 0.042 3.281 0.121 1.106-0.342 1.898-1.067 2.542-0.761 0.676-0.934 1.452-0.82 2.582 0.585-0.927 1.079-1.71 1.573-2.493 0.085 0.017 0.171 0.035 0.256 0.052 0 1.842 0.191 3.712-0.073 5.515-0.153 1.045-0.871 2.154-2.303 2.447 0.356 0.133 0.713 0.266 1.182 0.44-1.565 1.594-3.208 2.112-5.228 0.695-0.022 0.133-0.044 0.265-0.066 0.398 0.194 0.244 0.39 0.487 0.585 0.731-0.016 0.062-0.031 0.124-0.047 0.185-0.865-0.453-1.73-0.907-2.835-1.485 0.083-0.032-0.163 0.122-0.421 0.145-0.285 0.025-0.581-0.068-0.872-0.109 0.405-1.244-1.694-2.008-0.651-3.391 0.086-0.113-0.01-0.362-0.031-0.716-0.428 0.287-0.737 0.494-1.357 0.91 0.395-1.454 0.814-2.633 1.004-3.847 0.104-0.665-0.147-1.397-0.303-2.084-0.085-0.377-0.524-0.813-0.423-1.072 0.56-1.42-0.359-3.282 1.46-4.416-0.732-0.207-1.044-0.436-0.638-1.189 0.313-0.581 0.226-1.373 0.347-2.066 0.08-0.458 0.215-0.906 0.339-1.41-0.893-0.196-1.13 0.462-1.242 1.121-0.077 0.45 0.048 0.934 0.083 1.403h-0.483c0.12-1.032 0.286-2.061 0.348-3.096 0.057-0.935-0.033-1.877 0.007-2.813 0.014-0.323 0.131-0.757 0.36-0.935 1.429-1.108 0.938-2.561 0.779-3.954-0.073-0.649-0.188-1.292-0.293-1.988-0.034 0.021-0.255 0.151-0.489 0.291-0.04-0.105-0.141-0.235-0.108-0.305 0.209-0.455 0.344-1.016 0.695-1.319 0.93-0.801 0.534-1.104-0.546-1.363 0.171-0.798 0.342-1.597 0.568-2.656-0.539 0.358-0.85 0.564-1.337 0.889 0.247-1.257 0.261-2.47 0.743-3.451 0.479-0.972 1.433-1.709 2.178-2.549-0.036-0.108-0.07-0.216-0.104-0.324zm1.36 3.47c0.119 0.054 0.239 0.107 0.359 0.161-0.225 1.012-0.465 2.021-0.663 3.038-0.07 0.359 0.011 0.748-0.062 1.106-0.239 1.173 1.03 2.497-0.12 3.305 0.236 1.547 0.556 2.884 0.614 4.233 0.062 1.418-0.158 2.847-0.196 4.272-0.039 1.465 0.016 2.933-0.018 4.398-0.015 0.667-0.242 1.337-0.198 1.994 0.071 1.061 0.446 2.119 0.394 3.164-0.045 0.862-0.522 1.702-0.809 2.551-0.114-0.021-0.228-0.041-0.342-0.062 0.322 0.424 0.645 0.849 0.975 1.283-0.177 0.312-0.344 0.605-0.511 0.899 0.438 0.489 0.608 0.96 0.73 1.442 0.125 0.492 0.048 1.136 0.34 1.46 0.388 0.429 1.025 0.781 1.596 0.855 0.603 0.079 1.231-0.179 1.303-1.04 0.075-0.902 0.257-1.796 0.396-2.729 0.183-0.034 0.471-0.087 1.064-0.197-0.997-1.505-0.42-2.904 0.051-4.426-0.52 0.216-0.87 0.363-1.176 0.49v-3.256c0.306 0.274 0.294 0.588 0.362 0.884 0.055 0.235 0.206 0.447 0.314 0.669 0.194-0.104 0.528-0.178 0.558-0.316 0.088-0.414 0.221-0.945 0.042-1.266-0.672-1.201-1.42-2.327-1.403-3.803 0.041-3.507-0.001-7.016 0.027-10.523 0.005-0.564 0.309-1.13 0.291-1.689-0.053-1.713-0.187-3.424-0.308-5.134-0.06-0.845 0.064-1.805-0.303-2.496-0.368-0.694-1.238-1.127-1.912-1.642-0.046-0.036-0.314 0.181-0.451 0.31-0.623 0.59-1.229 1.197-1.855 1.782-0.173 0.162-0.407 0.256-0.578 0.419-0.028 0.026 0.139 0.359 0.188 0.352 0.283-0.039 0.563-0.123 0.833-0.223 0.168-0.058 0.313-0.174 0.468-0.265zm3.967 19.705c1.245-0.817 1.466-2.069 0.323-3.089-0.104 0.994-0.208 1.987-0.323 3.089zm1.473-17.919l0.177 0.036c-0.096-0.71-0.043-1.489-0.329-2.112-0.277-0.602-0.903-1.044-1.376-1.557-0.121 0.076-0.243 0.151-0.364 0.227 0.63 1.135 1.261 2.27 1.892 3.406zm-0.843 10.754c-0.146 0.028-0.291 0.055-0.437 0.083 0.137 1.055 0.273 2.109 0.438 3.39 0.281-0.195 0.667-0.367 0.649-0.467-0.178-1.009-0.423-2.006-0.65-3.006zm0.761 7.208c-0.982 0.627-0.809 1.104 0.996 2.158-0.319-0.692-0.639-1.384-0.996-2.158zm35.932-23.525c0.695-0.146 1.391-0.292 2.381-0.501v2.328c0.081-0.013 0.402-0.063 0.472-0.074 0.255 1.113 0.916 2.3 0.635 3.187-0.363 1.146-0.286 1.99 0.201 2.97 0.052 0.103-0.369 0.441-0.646 0.757 0.428 0.745 0.908 1.581 1.387 2.415-1.341 0.828-1.342 0.833-0.278 1.899 0.481 0.483 0.585 2.4 0.239 3.033-0.277 0.507-0.42 1.086-0.655 1.618-0.401 0.905 0.068 1.201 1.049 1.368-0.032-0.59-0.06-1.099-0.095-1.763 0.211 0.155 0.482 0.278 0.471 0.358-0.235 1.621 0.347 3.15 0.483 4.725 0.058 0.666-0.419 1.432-0.234 2.021 0.369 1.177 0.084 2.324 0.204 3.46 0.07 0.656 1.053 1.177-0.08 1.889-0.253 0.159-0.065 1.124 0.032 1.699 0.074 0.442 0.326 0.855 0.583 1.488 0.074-0.314 0.147-0.625 0.222-0.937 0.187 0.116 0.373 0.233 0.559 0.35-0.15 0.33-0.38 0.648-0.434 0.994-0.07 0.459-0.005 0.938 0.003 1.409 1.199-0.092 0.603 0.791 0.504 1.147-0.15 0.543-0.459 0.985 0.178 1.414 0.117 0.079 0.174 0.363 0.142 0.53-0.25 1.31-0.259 1.308 0.001 2.053-0.396 0.505-0.746 0.849-0.972 1.261-0.402 0.736-1.219 0.577-1.937 0.191-1.985-1.067-0.889-3.021-1.493-4.458-0.049-0.117 0.104-0.394 0.24-0.5 0.716-0.567 0.319-1.171-0.024-1.644-0.358-0.493-0.723-0.847-0.13-1.411 0.076-0.073-0.151-0.465-0.496-0.592-0.111-0.698-0.205-1.399-0.337-2.094-0.219-1.158-0.887-1.228-2.049-1.083-1.27 0.159-2.101 0.965-3.152 1.417-0.182 0.078-0.292 0.321-0.643 0.729 0.771-0.216 1.257-0.353 1.742-0.488 0.1 0.079 0.199 0.158 0.299 0.237-0.234 0.504-0.469 1.008-0.818 1.759 0.281 1.795 0.601 3.934-1.256 5.682 1.333 0.252 1.344 1.083 0.319 2.473-0.817 0.139-1.354 0.233-1.893 0.321-0.646 0.106-1.218 0.085-1.274-0.772 0.402-0.107 0.813-0.218 1.225-0.328-0.012-0.094-0.023-0.188-0.035-0.282-0.518-0.093-1.034-0.187-1.511-0.273 0.201-1.822 0.387-3.493 0.608-5.495 1.123 1.611 1.038 3.058 0.562 4.569 0.172 0.048 0.344 0.097 0.515 0.145 0.211-0.383 0.598-0.767 0.599-1.151 0.005-1.123-0.115-2.25-0.251-3.368-0.038-0.314-0.276-0.616-0.46-0.9-0.29-0.449-0.612-0.877-0.92-1.314 0.089-0.06 0.178-0.12 0.268-0.181 0.255 0.119 0.51 0.238 0.798 0.372 0.052-0.204 0.142-0.373 0.099-0.42-0.998-1.094-0.48-2.381-0.432-3.59 0.015-0.363 0.29-0.765 0.56-1.036 0.074-0.075 0.558 0.257 0.852 0.402 0.452-1.167 0.104-3.153-0.789-3.953 0.253-0.35 0.576-0.681 0.764-1.077 0.742-1.572 0.195-3.157-0.016-4.736-0.062-0.462-0.25-0.945-0.171-1.38 0.184-1.017 0.814-1.938 0.449-3.08-0.079-0.246 0.457-0.718 0.757-1.043 0.165-0.179 0.427-0.269 0.645-0.398-0.048-0.097-0.096-0.193-0.144-0.29-0.18 0.049-0.367 0.157-0.537 0.134-0.233-0.032-0.453-0.162-0.678-0.25 0.828-0.506-0.344-1.737 0.8-2.188 0.209-0.082 0.233-0.633 0.342-0.967l-0.36 0.009c-0.058-0.752-0.114-1.504-0.174-2.28 0.407-0.038 0.67-0.062 0.914-0.084 0.044-0.118 0.095-0.191 0.096-0.265 0.009-0.647 0.011-1.295 0.01-1.942-0.001-0.399 0.15-0.933-0.048-1.171-0.636-0.765-0.301-1.275 0.056-1.569v-2.663c1.519 1.164 2.327-0.635 3.533-0.436 0.269 1.274-0.99 0.856-1.463 1.268 0.042 0.114 0.072 0.23 0.102 0.346zm1.079 22.166c0.108 0.161 0.217 0.322 0.324 0.482-0.021-0.355-0.202-0.869-0.034-1.04 0.88-0.894 0.165-1.58-0.128-2.562-0.103 0.384-0.142 0.528-0.18 0.673-0.085-0.334-0.062-0.645-0.008-0.95 0.054-0.303 0.239-0.62 0.188-0.897-0.113-0.614-0.396-1.197-0.505-1.811-0.162-0.926-0.233-1.869-0.349-2.848-0.237 0.793-0.535 1.495-0.645 2.224-0.148 0.996-0.132 2.015-0.229 3.02-0.057 0.584-0.219 1.158-0.293 1.742-0.14 1.086-0.07 2.237-0.41 3.253-0.626 1.871-0.45 2.258 1.557 2.224 0.653-0.011 1.305-0.159 1.796-0.223 0.177-1.048 0.37-1.925 0.444-2.811 0.023-0.269-0.261-0.781-0.446-0.802-0.343-0.04-0.719 0.201-1.082 0.326zm-2.754-2.549c-0.081 0.054-0.161 0.107-0.242 0.161-0.182 0.46-0.396 0.911-0.537 1.384-0.13 0.439-0.221 0.899-0.248 1.355-0.01 0.161 0.222 0.335 0.343 0.503 0.146-0.183 0.37-0.345 0.425-0.552 0.13-0.483 0.207-0.985 0.251-1.483 0.039-0.453 0.008-0.912 0.008-1.368zm74.692-15.756c-0.234 1.038-0.066 2.17-0.039 3.26 0.006 0.224 0.105 0.499 0.26 0.657 0.553 0.571 1.225 1.067 1.158 1.981-0.053 0.747-0.064 1.515-0.264 2.227-0.15 0.528-0.145 1.379-1.053 1.267v1.544c0.348-0.528 0.525-0.798 0.908-1.379-0.098 0.796 0.014 1.42-0.238 1.663-1.201 1.148-0.689 2.577-0.756 3.9-0.012 0.253 0.295 0.556 0.514 0.78 0.373 0.385 0.795 0.726 1.195 1.085-0.088 0.094-0.176 0.188-0.264 0.282-0.438-0.262-0.875-0.525-1.436-0.861v3.149c0.139-0.365 0.303-0.792 0.465-1.219 0.49 0.629 1.152 0.957 0.6 1.88-0.422 0.709-0.402 1.774-0.324 2.659 0.049 0.583 0.549 1.128 0.848 1.69-0.092 0.066-0.182 0.132-0.273 0.198-0.389-0.509-0.777-1.019-1.246-1.631v2.497c0.297-0.085 0.646-0.187 0.82-0.237 0.062 0.896 0.113 1.627 0.164 2.359-1.105 2.498-1.104 2.498-1.092 3.804 0.006 0.771-0.004 1.542 0.004 2.312 0.002 0.238-0.043 0.64 0.062 0.689 1.188 0.556 1.441 1.579 1.375 2.92 1.094-0.303 2.053-0.568 3.15-0.871-0.102 0.488-0.174 0.831-0.234 1.123 1.057-0.293 2.092-0.605 3.145-0.849 0.193-0.045 0.443 0.207 0.68 0.291 0.451 0.162 0.924 0.435 1.365 0.396 0.24-0.021 0.629-0.604 0.602-0.901-0.043-0.479-0.377-0.931-0.656-1.546 0.082-0.092 0.342-0.385 0.553-0.623h-3.125c-0.045-0.137-0.137-0.41-0.141-0.425h-2.453c-0.252-2.033-0.508-4.106-0.785-6.362 0.764-0.685 0.994-1.886 0.488-3.325-0.258 0.78-0.537 1.629-0.818 2.479-0.201-0.053-0.402-0.105-0.604-0.158 0.229-0.954 0.311-1.977 0.727-2.841 0.389-0.812 0.648-1.289-0.229-1.988-0.891-0.711-0.748-1.51-0.07-2.031 0.27 0.692 0.566 1.455 0.863 2.216 0.137-0.044 0.273-0.089 0.408-0.133-0.494-1.043 0.27-2.261-0.605-3.308-0.111-0.133 0.475-0.942 0.844-1.34 0.176-0.189 0.605-0.223 0.906-0.193 0.395 0.038 0.791 0.34 1.158 0.294 0.738-0.093 1.459-0.345 2.08-0.504v-1.178c-0.537-0.523-0.955-0.93-1.539-1.5-0.418-0.121-1.252-0.664-1.789-0.454-1.133 0.443-1.246-0.262-1.566-0.916-0.189-0.386-0.369-0.816-0.672-1.1-0.91-0.85-0.807-1.853-0.535-2.944 0.418 0.427 0.676 0.913 0.873 1.422 0.178 0.462 0.291 0.95 0.432 1.427 0.406-1.899-0.404-3.346-2.232-4.32 0.547-0.374 1.002-0.685 1.457-0.997-0.258 1.188 0.145 1.8 0.869 2.161v-10.031c1.477 0 2.979 0.014 4.48-0.005 1.004-0.012 1.611-1.118 1.143-2.01-0.133-0.254-0.381-0.597-0.303-0.789 0.414-1.015-0.375-1.129-0.938-1.144-0.797-0.021-1.6 0.2-2.402 0.299-0.15 0.019-0.334-0.007-0.465-0.081-1.486-0.837-4.029-0.04-4.799 1.473 0.283 0.239 0.553 0.467 0.77 0.65-0.52 1.154-1.17 2.111-1.4 3.16zm-19.17-3.784c0.156 1.723 0.959 2.301 2.459 1.79 0.178-0.061 0.408-0.056 0.592-0.005 0.68 0.187 1.348 0.406 2.143 0.65 0.07 0.439 0.207 0.975 0.225 1.515 0.02 0.536-0.057 1.079-0.141 1.611-0.049 0.317-0.135 0.66-0.309 0.921-0.416 0.625-0.971 1.085-0.348 2.006 0.35 0.515 0.383 1.508-0.738 1.423-0.062 0.712-0.15 1.355-0.166 2.001-0.025 1.143 0.018 2.289-0.023 3.431-0.01 0.244-0.205 0.628-0.398 0.692-1.07 0.352-0.678 1.305-0.859 1.711 0.498 0.48 0.873 0.843 1.246 1.206-1.113 0.211-1.547 0.735-1.436 1.633 0.129 1.025 0.242 1.997-0.691 2.848-0.393 0.357-0.379 1.16-0.549 1.759 0.164 0.062 0.33 0.124 0.496 0.186 0.141-0.303 0.477-0.688 0.391-0.896-0.455-1.098 0.514-1.121 0.674-1.464 0.258 0.71 0.502 1.311 0.689 1.927 0.1 0.321 0.1 0.672 0.145 1.009-0.104 0.018-0.207 0.035-0.309 0.053-0.184-0.286-0.365-0.572-0.574-0.9-0.711 0.487-0.914 0.932-0.354 1.688 0.164 0.224-0.16 0.838-0.318 1.251-0.033 0.084-0.332 0.065-0.508 0.094-0.037-0.344-0.057-0.691-0.119-1.031-0.037-0.198-0.146-0.384-0.223-0.575-0.082 0.022-0.166 0.044-0.248 0.066-0.182 1.218-0.363 2.437-0.578 3.874 0.613-0.36 1.047-0.614 1.693-0.993-0.387 1.216-1.854 1.255-1.723 2.797 0.092 1.066-0.494 2.18 0.545 3.161-0.768 1.003-1.512 1.972-2.092 2.729 0.561 0.375 1.412 0.651 1.471 1.045 0.102 0.683-0.414 1.239-1.578 0.619 0.293 0.456 0.365 0.716 0.514 0.773 0.51 0.193 1.266 0.147 1.529 0.494 0.707 0.934 1.387 0.444 2.129 0.221 0.227-0.068 0.494-0.012 0.74 0 0.688 0.031 1.381 0.154 2.057 0.086 1.27-0.127 2.527-0.362 4.219-0.617-0.646-0.766-0.965-1.473-1.482-1.675-0.682-0.267-1.523-0.194-2.289-0.157-0.473 0.023-0.934 0.252-1.398 0.388-0.031-0.125-0.062-0.25-0.094-0.375 0.521-0.371 1.043-0.741 1.564-1.112-0.051-0.08-0.104-0.16-0.154-0.24h-2.945c0.248-1.392 0.463-2.598 0.658-3.698-0.205 0.09-0.457 0.2-1.08 0.474 0.328-1.155 0.307-2.294 0.84-2.695 0.973-0.731 1.121-1.663 1.312-2.643 0.148-0.761 0.09-1.564 0.254-2.321 0.391-1.821 0.859-3.626 1.297-5.438-0.102-0.024-0.201-0.049-0.303-0.074-0.164 0.737-0.328 1.473-0.492 2.21 0.096 0.834-0.152 1.387-1.514 2.332 0.543-2.234 1.057-4.349 1.572-6.463 0.129-0.078 0.258-0.155 0.387-0.232 0.15 0.277 0.299 0.554 0.506 0.939 0.109-1.19 0.67-2.153 0.08-3.37-0.361-0.746-1.43-1.72-0.248-2.826 0.182 0.765 0.352 1.488 0.523 2.211 0.188-0.025 0.377-0.051 0.564-0.076-0.053-0.889-0.111-1.778-0.156-2.667-0.02-0.428-0.188-0.972 0.008-1.267 1.016-1.525 1.398-3.231 1.617-4.997 0.133-1.082-0.016-2.264 0.379-3.232 0.59-1.448 0.379-2.838 0.41-4.183-0.725 0.083-1.324 0.151-1.924 0.22-0.008-0.124-0.016-0.249-0.023-0.373 0.34-0.045 0.727-0.006 1.002-0.164 0.188-0.108 0.219-0.489 0.32-0.748-0.23-0.032-0.557-0.178-0.672-0.079-0.871 0.756-1.633 0.804-2.379-0.174-0.086-0.113-0.451-0.016-0.713-0.016 0.213 0.363 0.398 0.68 0.551 0.94-0.887 0.336-1.871 1.082-2.424 0.84-1.162-0.508-2.162-0.096-3.23-0.053l-0.02 0.005zm-74.002 3.282c-0.18 0.222-0.359 0.444-0.669 0.827-0.033-0.684-0.057-1.178-0.086-1.798-0.807-0.156-1.617-0.313-2.429-0.47 0.009 0.042 0.019 0.083 0.027 0.125-0.496-0.288-0.992-0.576-1.595-0.925 0.048-0.62-0.459-1.528 0.645-2.003 0.01-0.004-0.147-0.316-0.162-0.489-0.006-0.074 0.202-0.248 0.235-0.23 0.276 0.147 0.535 0.329 0.783 0.49 0.184-0.139 0.422-0.32 0.673-0.511 0.052 0.078 0.075 0.133 0.116 0.172 0.229 0.221 0.433 0.555 0.704 0.629 0.425 0.116 0.902 0.096 1.349 0.054 0.282-0.027 0.563-0.177 0.81-0.33 0.036-0.022-0.123-0.36-0.196-0.566 0.518 0.128 1.451-0.471 1.445 0.689 1.335-0.235 2.648-0.542 3.979-0.675 1.058-0.105 1.461 0.89 1.749 1.612 0.228 0.57 0.091 1.402-0.167 1.995-0.106 0.245-0.978 0.3-1.458 0.21-1.325-0.247-2.647 0.248-3.211 1.492 0.458-0.226 0.771-0.38 1.223-0.603-0.212 1.833 0.297 3.611-0.699 5.342-0.501 0.871-0.756 2.053-0.665 3.053 0.121 1.336 0.672 2.637 1.068 3.945 0.137 0.452 0.78 0.918-0.149 1.253-0.072 0.026-0.09 0.394-0.029 0.567 0.773 2.221 0.671 4.425 0.042 6.666-0.156 0.56 0.058 1.224 0.101 1.816-0.19-0.028-0.445-0.065-1.067-0.157 1.449 1.425 1.284 2.904 1.233 4.518-0.047 1.511 0.408 2.988-1.283 4.082 0.128 0.06 0.257 0.119 0.385 0.179 0.316-0.162 0.633-0.324 1.04-0.532 0 1.302 0.146 2.569-0.043 3.783-0.174 1.109-0.675 2.177-1.121 3.224-0.096 0.226-0.583 0.396-0.887 0.392-0.452-0.006-0.903-0.188-1.469-0.322 0.314-0.661 0.627-1.318 0.89-1.871-0.533-0.582-1.139-1.241-1.813-1.978 1.405-0.556 0.591-1.863 0.802-2.93-0.222 0.21-0.442 0.42-0.741 0.705v-2c0.236 0.068 0.524 0.15 1.022 0.293-1.086-1.653-0.595-2.929 0.478-4.113 0.069-0.077 0.1-0.229 0.085-0.337-0.089-0.653-0.175-1.307-0.312-1.951-0.032-0.15-0.26-0.258-0.493-0.475-0.25 0.61-0.457 1.116-0.621 1.517v-6.14c0.257-0.278 0.59-0.485 0.68-0.769 0.156-0.493 0.195-1.032 0.218-1.554 0.012-0.28-0.017-0.686-0.193-0.828-0.775-0.625-0.816-1.346-0.551-2.23 0.113-0.375-0.026-0.825-0.037-1.012 0.319-0.517 0.545-0.882 0.771-1.247-0.332-0.068-0.665-0.137-1.1-0.226 0.363-1.757 0.477-3.874 1.874-5.346-0.614-0.684-1.209-1.346-1.884-2.097 1.496-0.533 0.536-1.88 1.012-2.811-0.105-0.033-0.207-0.068-0.309-0.104zm-2.258-3.504c-0.067-0.107-0.134-0.214-0.2-0.321-0.644 0.372-1.287 0.744-2.129 1.23 0.608 0.202 0.956 0.317 1.259 0.418 0.393-0.487 0.732-0.907 1.07-1.327zm63.22 11.916c-0.094 0.365-0.123 0.761-0.291 1.088-0.426 0.829-0.992 1.593-1.342 2.448-0.184 0.45-0.059 1.039-0.027 1.562 0.074 1.235-0.311 2.507 0.523 3.682 0.363 0.511 0.914 1.246-0.014 1.885 0.686 0.417 0.996 0.739 0.156 1.291-0.361 0.237-0.635 0.86-0.648 1.317-0.035 1.111 0.105 2.227 0.17 3.341 0.008 0.123-0.057 0.34-0.018 0.358 0.934 0.424 0.381 1.066 0.326 1.693-0.08 0.908-0.334 2.18 0.139 2.677 0.928 0.976-0.023 1.36-0.213 1.988-0.475-0.145-0.447 0.142-0.443 0.477 0.016 1.333 0.029 2.666 0.002 3.998-0.021 1.083 0.883 2.083 1.775 1.9-0.434-1.264-0.434-1.264 0.279-1.705 0.064 0.477 0.127 0.921 0.166 1.205 0.684 0.1 1.258 0.183 2.051 0.298-0.402-1.729 0.484-3.578-1.109-5.077-0.73-0.688-0.525-1.719 0.348-2.453v1.247c0.115 0.014 0.232 0.028 0.348 0.042 0.094-0.545 0.203-1.089 0.277-1.637 0.045-0.331 0.055-0.669 0.057-1.004 0.008-1.85 0.01-3.699 0.012-5.549 0.002-0.651 0.039-1.305-0.006-1.953-0.062-0.893-0.09-1.808-0.32-2.663-0.141-0.525-0.635-0.956-0.969-1.429 0.086-0.079 0.172-0.158 0.26-0.237 0.342 0.066 0.684 0.131 0.955 0.184v-2.922c-0.104 0.002-0.207 0.003-0.311 0.005v1.805c-0.771-0.422-0.992-2.704-0.408-3.264 0.236 0.094 0.482 0.193 0.73 0.292 0.164-0.039 0.33-0.077 0.494-0.115-1.344-0.598-0.77-1.207-0.479-1.829 0.078-0.17 0.074-0.389 0.074-0.585 0.006-1.58 0.016-3.16-0.004-4.739-0.008-0.581-0.234-1.195-0.104-1.731 0.152-0.623 0.049-0.946-0.402-1.409-1.219-1.25-1.268-2.312-0.209-3.24v1.251c0.367-0.292 0.693-0.645 0.693-0.998 0-1.188-0.119-2.377-0.184-3.566-0.062-1.121-0.588-1.605-1.619-1.325 0.059 0.203 0.189 0.537 0.152 0.557-0.254 0.135-0.539 0.247-0.824 0.286-0.318 0.044-0.742-0.127-0.953 0.026-0.557 0.401-0.701 2.826-0.156 3.228 1.107 0.82-0.033 1.31-0.188 1.941-0.59-0.236-0.488 0.247-0.41 0.475 0.604 1.774-0.459 3.676 0.436 5.439 0.123 0.243-0.018 0.726-0.195 0.994-0.516 0.784-0.23 1.361 0.414 2.103 0.242-0.673 0.432-1.201 0.619-1.728 0.11 0.023 0.24 0.049 0.37 0.075zm13.04-11.693c0.793-0.911 1.613-1.776 2.994-1.231 0.699 0.276 0.691 0.297 0.918-0.4h-4.1c0.072 0.624 0.131 1.127 0.189 1.631zm-119.3-0.801c0.188-0.369 0.321-0.628 0.471-0.92-3.293-0.086-4.297-0.188-3.992 1.484 1.134-0.837 2.147-1.968 3.521-0.564zm138.52 9.677v3.359c0.068 0 0.137 0 0.205 0.001 0.055-1.126 0.109-2.253 0.162-3.38-0.12 0.007-0.25 0.014-0.37 0.02zm-10.46 29.658c0.201 0.218 0.432 0.424 0.609 0.667 0.193 0.264 0.342 0.563 0.641 1.072 0.21-1.879 0-2.109-1.25-1.739z" fill="#EC1C24"/>
	<path d="m89.007 93.282c-0.299-0.111-0.427-0.159-0.554-0.207-0.038 0.032-0.077 0.065-0.115 0.097 0.103 0.163 0.279 0.321 0.292 0.49 0.022 0.292-0.076 0.591-0.09 0.889-0.014 0.294-0.107 0.735 0.043 0.861 0.457 0.381 0.424 0.782 0.01 0.988-0.324 0.161-0.807 0.033-1.213-0.017-0.163-0.019-0.309-0.171-0.483-0.276 0-0.278 0.018-0.607-0.017-0.931-0.006-0.058-0.228-0.092-0.328-0.129-0.273-0.562-0.559-1.151-0.864-1.778 0.166 0.038 0.306 0.069 0.445 0.1 0.049-0.047 0.097-0.094 0.146-0.141-0.204-0.266-0.402-0.537-0.614-0.797-0.197-0.242-0.408-0.472-0.613-0.708 0.059-0.059 0.117-0.118 0.176-0.177 0.196 0.088 0.392 0.177 0.604 0.272-0.121-0.816-0.279-0.935-0.824-0.712-0.317-0.859-0.669-1.71-0.933-2.588-0.077-0.256 0.099-0.588 0.158-0.885l0.162 0.039c-0.024-0.361-0.048-0.723-0.071-1.084l-0.204-0.051c-0.061 0.251-0.122 0.503-0.225 0.931-0.213-0.237-0.453-0.408-0.559-0.64-0.22-0.484-0.34-1.015-0.564-1.496-0.076-0.164-0.331-0.283-0.526-0.333-0.062-0.016-0.266 0.249-0.287 0.4-0.058 0.423-0.053 0.853-0.16 1.296-0.143-0.962 0.27-2.071-0.742-2.788 0.394-0.044 0.782-0.087 1.17-0.13-0.008-0.076-0.017-0.151-0.025-0.228-0.232 0.021-0.464 0.042-0.696 0.064-0.039-0.052-0.077-0.104-0.116-0.156 0.336-0.126 0.673-0.251 1.009-0.377-0.007 0.22 0.46 0.507 0.8 0.031 0.251-0.354 0.471-0.326 0.74-0.304 0.18 0.015 0.348 0.171 0.521 0.264-0.035 0.082-0.071 0.163-0.106 0.244-0.288-0.09-0.577-0.178-0.86-0.266-0.145 0.547 0.016 0.739 0.566 0.65 0.668-0.107 1.002 0.288 0.792 0.945-0.16 0.503-0.451 0.989-0.15 1.54 0.071 0.127 0.112 0.272 0.167 0.409 0.082-0.059 0.164-0.118 0.245-0.177-0.035-0.465-0.07-0.931-0.105-1.396 0.064-0.016 0.128-0.032 0.192-0.047 0.19 0.52 0.384 1.038 0.567 1.561 0.012 0.033-0.037 0.099-0.074 0.132-0.268 0.243-0.277 0.459 0.047 0.598 0.697 0.297 0.649 0.872 0.611 1.455-0.006 0.104-0.057 0.206-0.089 0.307-0.226 0.717 0.278 1.062 0.724 1.444 0.208 0.179 0.396 0.378 0.521 0.674 0.213 0.015 0.425 0.029 0.711 0.049-0.024 0.282-0.047 0.542-0.084 0.968 0.57-0.767-0.058-1.443 0.239-2.2 0.1 0.441 0.17 0.769 0.25 1.095 0.026 0.103 0.099 0.197 0.116 0.301 0.046 0.276 0.324 0.57-0.086 0.826-0.074 0.047-0.038 0.336 0.01 0.496 0.055 0.17 0.178 0.32 0.343 0.603zm-23.169 2.602c0.577 0.264 1.154 0.527 1.664 0.761 0.046-0.28 0.077-0.462 0.107-0.646 0.17 0.051 0.442 0.053 0.494 0.161 0.375 0.779 0.995 0.328 1.565 0.333-0.286-0.426-0.587-0.836-0.986-1.09-0.754-0.48-0.777-0.443-0.388-1.325 0.026-0.058 0.058-0.14 0.036-0.187-0.112-0.234-0.371-0.489-0.329-0.681 0.044-0.197 0.452-0.29 0.565-0.5 0.144-0.269 0.152-0.609 0.208-0.87 0.547-0.119 1.034-0.307 1.523-0.311 0.568-0.005 1.15 0.104 1.703 0.251 0.382 0.102 0.725 0.353 1.085 0.537-0.487 0.67 0.767 1.622-0.354 2.194-0.03 0.016 0.003 0.131-0.021 0.188-0.113 0.269-0.223 0.542-0.359 0.799-0.188 0.355-0.399 0.698-0.602 1.048h1.248c-0.284-0.206-0.486-0.353-0.694-0.504 0.394-0.267 0.549-0.281 0.788 0.058 0.19 0.271 0.352 0.29 0.678 0.272 0.768-0.042 1.543 0.046 2.268 0.081-0.102-0.083-0.288-0.233-0.474-0.383 0.05-0.258 0.05-0.603-0.086-0.67-0.591-0.291-0.881-0.71-0.946-1.369-0.029-0.298-0.283-0.568-0.403-0.864-0.06-0.147-0.111-0.44-0.062-0.466 0.517-0.27 0.104-0.599 0.138-0.959-0.315 0.258-0.569 0.465-0.823 0.672-0.058-0.047-0.115-0.095-0.172-0.143 0.199-0.278 0.55-0.548 0.567-0.837 0.042-0.701-0.071-1.412-0.122-2.119-0.035 0.004-0.07 0.008-0.105 0.012-0.035 0.426-0.07 0.852-0.105 1.277-0.066 0.004-0.132 0.007-0.199 0.011-0.144-0.417-0.288-0.832-0.432-1.247 0.691-0.41 0.692-0.414 0.341-1.448-0.121 0.228-0.268 0.506-0.416 0.784-0.073-0.031-0.146-0.062-0.218-0.093 0.032-0.226 0.083-0.451 0.094-0.679 0.029-0.626 0.449-1.238-0.018-1.886-0.357-0.495-0.627-1.054-0.933-1.586-0.189-0.33-0.374-0.663-0.561-0.994 0.043-0.037 0.087-0.073 0.13-0.11 0.336 0.314 0.672 0.627 0.988 0.922-0.284-1.178-0.661-1.521-1.562-1.402 0.125 0.144 0.251 0.288 0.396 0.454-0.365 0.158-0.647 0.281-0.958 0.415 0 0.214 0.018 0.476-0.006 0.735-0.017 0.176-0.061 0.366-0.148 0.517-0.167 0.287-0.375 0.55-0.566 0.823 0.059 0.033 0.117 0.066 0.176 0.098 0.078-0.222 0.156-0.444 0.268-0.762 0.161 0.319 0.267 0.529 0.379 0.752-0.218 0.129-0.399 0.236-0.726 0.43 0.727-0.077 1.294-0.136 1.808-0.191 0.152 0.313 0.314 0.548 0.378 0.807 0.087 0.351 0.215 0.754 0.118 1.072-0.164 0.539-0.094 0.96 0.281 1.395 0.439-0.259 0.655-0.072 0.724 0.411-0.283 0.029-0.553 0.055-0.765 0.077-0.025 0.259-0.062 0.624-0.084 0.854h-2.681c0.132 0.173 0.196 0.259 0.261 0.344-0.046 0.056-0.092 0.111-0.138 0.167-0.228-0.164-0.53-0.285-0.658-0.506-0.1-0.172 0.017-0.471 0.044-0.712 0.002-0.018 0.056-0.031 0.105-0.057 0.039 0.167 0.075 0.324 0.112 0.479 0.063-0.015 0.128-0.03 0.192-0.045-0.055-0.24-0.109-0.479-0.163-0.72-0.062 0.008-0.125 0.017-0.188 0.024-0.285 0.389-0.571 0.777-0.945 1.287 0.279-0.068 0.379-0.092 0.657-0.158-0.319 0.425-0.537 0.715-0.798 1.064 0.24-0.167 0.407-0.283 0.575-0.399 0.044 0.04 0.089 0.08 0.134 0.12-0.312 0.64-0.623 1.281-0.935 1.921-0.01 0.02-0.012 0.044-0.025 0.06-0.478 0.584-0.305 1.531-1.086 1.954-0.043 0.024-0.016 0.179-0.02 0.257-0.214-0.017-0.377-0.029-0.542-0.042 0.001 0.029 0.003 0.055 0.004 0.083zm7.059-0.704c-0.06-0.034-0.056-0.365 0.021-0.42 0.27-0.197 0.583-0.334 0.983-0.407-0.122 0.172-0.315 0.334-0.344 0.522-0.023 0.153 0.148 0.336 0.339 0.716-0.422-0.165-0.728-0.257-0.999-0.411zm92.173-0.497c0.139 0.073 0.275 0.146 0.455 0.241-0.582 0.444-0.73-0.285-1.07-0.297-0.76-0.025 0.379-0.877-0.475-0.791 0.201-0.158 0.357-0.363 0.451-0.337 0.592 0.154 0.512-0.369 0.688-0.631 0.104-0.154 0.209-0.419 0.328-0.428 0.549-0.041 0.697-0.246 0.494-0.597 0.512-0.195 1.057-0.361 1.561-0.607 0.451-0.221 0.855-0.533 1.283-0.802 0.664-0.416 1.488-0.697 1.369-1.74-0.02-0.159 0.049-0.347 0.129-0.491 0.057-0.099 0.203-0.146 0.309-0.215 0.033 0.113 0.104 0.23 0.09 0.336-0.016 0.12-0.125 0.225-0.16 0.346-0.033 0.113-0.027 0.239-0.037 0.359 0.055 0.006 0.107 0.012 0.162 0.019 0.217-1.011 1.156-1.924 0.311-3.078-0.033-0.045-0.047-0.136-0.025-0.188 0.174-0.424-0.086-0.706-0.297-1.022-0.092-0.137-0.115-0.337-0.121-0.511-0.014-0.433-0.684-1.204-0.877-1.011-0.416 0.414-0.471-0.022-0.674-0.168-0.246-0.177-0.514-0.324-0.779-0.488-0.105 0.339-0.176 0.568-0.26 0.835 0.189-0.15 0.348-0.274 0.504-0.397 0.051 0.035 0.104 0.071 0.154 0.107-0.1 0.188-0.199 0.377-0.283 0.535 0.182 0.259 0.398 0.571 0.615 0.879 0.025-0.035 0.092-0.117 0.168-0.212 0.588 0.998 0.49 2.328-0.162 3.207-0.328 0.442-0.895 1.014-0.805 1.396 0.205 0.861-0.469 0.698-0.773 0.995-0.502 0.487-1.457 0.582-1.371 1.688-0.512-0.642-0.668-0.047-0.996 0.1 0.182 0.169 0.326 0.304 0.465 0.432-0.596 0.43-0.67 1.355-1.533 1.45-0.064 0.007-0.131 0.169-0.158 0.27-0.139 0.485-0.266 0.974-0.418 1.542 0.24-0.044 0.371-0.069 0.502-0.093 0.205 0.711 0.348 0.74 0.957 0.327 0.211-0.143 0.51-0.154 0.77-0.225 0.041-0.075 0.125-0.226 0.209-0.376 0.141 0.19 0.281 0.379 0.402 0.542 0.254-0.011 0.633-0.144 0.846-0.011 0.338 0.21 0.562 0.601 0.814 0.891 0.166-0.199 0.295-0.354 0.426-0.509 0.229 0.234 0.459 0.469 0.73 0.748 1.66-0.247 2.125-0.758 2.273-2.535-0.232 0.268-0.498 0.571-0.893 1.024 0.08-0.416 0.121-0.628 0.156-0.814-1.068 0.433-2.061-0.094-3.064-0.091-0.352 0.001-0.771-0.905-1.068 0.055-0.008 0.024-0.072 0.038-0.113 0.044-0.4 0.057-0.805 0.111-1.207 0.167 0.01 0.044 0.01 0.087 0.01 0.13zm-46.96-5.292c-0.109-0.267-0.325-0.542-0.258-0.676 0.188-0.378 0.494-0.698 0.726-1.004 0.074 0.163 0.176 0.382 0.276 0.601 0.14-0.482 0.108-0.932 0.147-1.374 0.044-0.488 0.213-0.971 0.217-1.458 0.006-0.746-0.875-1.878-1.395-1.737-0.627 0.171-0.906-0.062-1.131-0.573-0.572 0.293-0.899 0.178-0.868-0.528-0.353 0.024-0.665 0.046-0.978 0.068 0.218 0.208 0.637-0.311 0.662 0.37 0.006 0.176 0.307 0.36 0.496 0.508 0.432 0.335 0.88 0.649 1.312 0.966-0.076 0.245-0.143 0.459-0.193 0.623 0.199-0.039 0.402-0.079 0.604-0.118-0.04 0.167-0.029 0.438-0.126 0.485-0.517 0.248-0.381 0.761-0.546 1.152-0.46 1.085-0.955 2.154-1.467 3.216-0.104 0.213-0.396 0.333-0.508 0.546-0.269 0.511-0.564 0.84-1.062 0.469-0.329 0.438-0.562 1.081-0.944 1.188-0.814 0.228-0.624 0.575-0.32 1.029-0.144 0.108-1.154 1.252-1.197 1.371-0.226 0.622 0.213 0.702 0.703 0.789-0.174 0.173-0.442 0.239-0.491 0.379-0.208 0.604 0.239 0.333 0.479 0.384 0.042-0.244 0.072-0.427 0.104-0.61 0.217 0.044 0.447 0.169 0.56 0.101 0.522-0.316 0.932-0.117 1.374 0.172 0.266 0.173 0.612 0.22 0.877 0.392 0.608 0.396 1.186 0.395 1.785-0.083 0.172 0.207 0.322 0.387 0.449 0.54 0.323-0.383 0.637-0.756 0.955-1.134 0.528 0.125 1.122-0.453 0.994-1.011-0.07-0.304-0.225-0.589-0.361-0.937-0.497 1.175-1.611 1.85-2.593 1.625 0.151-0.4 0.151-0.4 1.058-0.493-0.668-0.159-1.348-0.29-2.026-0.277-0.529 0.01-1.056 0.198-1.583 0.308-0.021-0.059-0.043-0.118-0.065-0.177 0.084-0.122 0.169-0.244 0.253-0.365-0.043-0.036-0.087-0.072-0.13-0.108-0.26 0.27-0.489 0.707-0.79 0.765-0.347 0.066-0.758-0.203-1.157-0.332 1.53-2.397 3.97-3.663 6.18-5.052zm-0.07-3.21c-0.194 0.804-0.389 1.608-0.615 2.403-0.029 0.104-0.241 0.156-0.432 0.27-0.07-0.175-0.21-0.346-0.17-0.449 0.307-0.804 0.648-1.594 1.035-2.525 0.12 0.193 0.19 0.257 0.18 0.301zm0.42-1.157c0.051 0.42 0.101 0.831 0.164 1.352-0.68-0.495-0.7-0.967-0.16-1.352zm-63.337 9.554c0.32-0.543-0.155-1.6 1.031-1.569 0.06-0.325 0.118-0.643 0.192-1.051-0.574 0.031-1.121 0.061-1.648 0.089 0.104 0.292 0.376 0.724 0.276 0.842-0.278 0.33-0.175 0.501 0.034 0.771 0.096 0.123 0.094 0.34 0.094 0.513 0 0.288-0.035 0.576-0.061 0.938 0.135-0.171 0.187-0.307 0.265-0.324 0.43-0.096 1.189 0.524 1.092 0.934-0.12 0.503 0.167 0.594 0.515 0.613 0.547 0.03 1.097 0.004 1.646 0.013 0.168 0.003 0.335 0.045 0.503 0.067 0.201 0.026 0.416 0.105 0.603 0.064 0.94-0.208 1-1.234 1.598-1.769 0.03-0.027-0.021-0.131-0.003-0.189 0.077-0.251 0.162-0.5 0.251-0.745 0.089-0.243 0.237-0.475 0.275-0.724 0.185-1.191-0.25-2.385 0.003-3.58 0.013-0.061 0.015-0.15-0.019-0.19-0.376-0.434-0.103-0.901-0.078-1.354 0.023-0.439 0.116-0.882 0.083-1.316-0.079-1.043 0.062-2.021 0.596-2.937 0.139-0.239 0.202-0.521 0.299-0.784-0.047-0.064-0.094-0.127-0.142-0.191-0.932 0.268-1.864 0.535-2.855 0.819 0.221 0.586 0.403 1.052 0.572 1.524 0.035 0.097 0.066 0.252 0.017 0.314-0.535 0.671-0.085 1.353-0.008 2.014 0.121 1.044 0.604 2.056 0.181 3.137-0.05 0.127 0.02 0.386 0.125 0.474 0.461 0.384 0.167 0.727-0.02 1.073-0.219 0.403-0.459 0.796-0.736 1.273 0.35-0.126 0.567-0.205 0.808-0.291 0.292 1.089-0.906 0.985-1.053 1.558 0.069 0.211 0.121 0.372 0.174 0.534-0.158 0.038-0.319 0.064-0.472 0.117-0.159 0.056-0.321 0.119-0.462 0.208-0.41 0.262-0.811 0.539-1.268 0.844-0.035-0.237-0.062-0.418-0.068-0.459-0.228 0.041-0.426 0.115-0.612 0.088-0.063-0.009-0.081-0.273-0.138-0.413-0.04-0.095-0.097-0.197-0.176-0.258-0.286-0.218-0.583-0.419-0.877-0.627 0.056-0.056 0.112-0.111 0.167-0.166-0.199 0.088-0.398 0.176-0.597 0.263-0.036-0.046-0.071-0.097-0.107-0.147zm5.685-3.881c0.652 0.154 0.745 0.294 0.854 1.33-0.17-0.084-0.334-0.165-0.498-0.245 0.083 0.3-0.094 0.736 0.439 0.825 0.033 0.006 0.021 0.493-0.042 0.737-0.022 0.084-0.369 0.182-0.394 0.148-0.11-0.153-0.172-0.348-0.224-0.534-0.058-0.208-0.068-0.43-0.132-0.636-0.108-0.348-0.05-0.557 0.368-0.526-0.125-0.369-0.25-0.739-0.371-1.099zm93.832 1.074c0.061 0.094 0.111 0.263 0.182 0.271 0.615 0.076 0.932 0.412 0.936 1.023 0.002 0.212-0.072 0.424-0.09 0.638-0.047 0.636-0.014 1.276-0.471 1.823-0.25 0.298-0.398 0.683-0.682 1.185 0.652-0.115 1.152-0.198 1.643-0.31 0.016-0.003-0.031-0.288-0.062-0.546 0.195 0.03 0.48-0.006 0.549 0.098 0.385 0.603 0.936 0.394 1.512 0.361-0.287-0.712-0.568-1.406-0.857-2.125 0 0-0.107 0.02-0.186 0.035 0.156-0.651 0.303-1.271 0.477-1.998h1.887c-0.16-0.302-0.252-0.479-0.309-0.584-0.168 0.182-0.312 0.339-0.557 0.603-0.123-1.395-0.912-0.131-1.232-0.469v-2.533c-0.115 0.351-0.121 0.705-0.156 1.055-0.008 0.072-0.125 0.182-0.195 0.188-0.072 0.005-0.225-0.117-0.217-0.153 0.096-0.414-0.463-0.929 0.195-1.267 0.1-0.051 0.152-0.261 0.166-0.403 0.098-1.058 0.182-2.119 0.268-3.178 0.008-0.083-0.006-0.167-0.01-0.257-0.125 0.045-0.232 0.084-0.527 0.19 0.23-0.46 0.383-0.764 0.523-1.047-0.133 0.036-0.293 0.079-0.453 0.122-0.062-0.01-0.125-0.021-0.188-0.031 0.521-0.588 0.074-0.999-0.229-1.071-0.43-0.104-0.988 0.005-1.395 0.215-0.299 0.156-0.625 0.578-0.25 0.995 0.057-0.164 0.119-0.351 0.23-0.669 0.385 0.692 0.695 1.25 1.027 1.85-0.955 0.366-0.361 0.825-0.115 1.033 0.514 0.436 0.279 1.011 0.029 1.163-0.656 0.398-0.346 0.902-0.412 1.526 0.617-0.642 0.871-0.192 0.844 0.229-0.047 0.732-0.271 1.454-0.432 2.232-0.264-0.036-0.428-0.059-0.631-0.086 0.115-0.191 0.178-0.292 0.328-0.542-0.49 0.103-0.83 0.174-1.17 0.246 0 0.06 0.02 0.124 0.02 0.188zm1.85-3.097c-0.369-0.917 0.262-1.536 0.533-2.26 0.08 0.021 0.162 0.042 0.242 0.062-0.25 0.733-0.51 1.465-0.77 2.198zm-13.79-5.383c0.141 0.225 0.502 0.292 0.572 0.402 0.314 0.493 0.508 1.064 0.736 1.612 0.02 0.046-0.037 0.118-0.045 0.18-0.045 0.312-0.123 0.625-0.121 0.937 0.004 0.439 0.098 0.878 0.088 1.317-0.002 0.125-0.25 0.23-0.334 0.374-0.096 0.16-0.135 0.354-0.217 0.583 0.248-0.269 0.453-0.49 0.727-0.788 0.111 0.712 0.32 1.295 0.254 1.844-0.076 0.624-0.178 1.182 0.322 1.639-0.297 0.55-0.574 1.059-0.814 1.504 0.254 0.146 0.51 0.227 0.508 0.304-0.004 0.238-0.029 0.576-0.186 0.693-0.49 0.372-0.975 0.699-0.732 1.286-0.391 0.21-0.688 0.371-1.086 0.585 0.297 0.16 0.426 0.228 0.553 0.297-0.014 0.068-0.029 0.135-0.043 0.204-0.383-0.042-0.768-0.083-1.215-0.131 0.023 0.064 0.072 0.199 0.121 0.333 0.631-0.335 1.428 0.204 2.008-0.374 0.566-0.565 1.121-1.143 1.678-1.717 0.012-0.011-0.018-0.059-0.027-0.089-0.117 0.082-0.232 0.163-0.35 0.243-0.049-0.035-0.098-0.069-0.146-0.104 0.135-0.232 0.213-0.587 0.412-0.675 0.963-0.426 0.691-1.204 0.643-1.938-0.012-0.171 0.035-0.354 0.092-0.519 0.135-0.403 0.293-0.798 0.443-1.197-0.051-0.017-0.102-0.033-0.15-0.049-0.078 0.235-0.152 0.471-0.229 0.707-0.07 0.009-0.139 0.018-0.207 0.027-0.039-0.267-0.082-0.533-0.111-0.8-0.025-0.22 0.051-0.505-0.062-0.655-0.496-0.664-0.305-1.297 0.08-1.958l0.252 1.887c0.203-0.135 0.361-0.351 0.324-0.522-0.258-1.165-0.537-2.325-0.855-3.475-0.104-0.377-0.262-0.812-0.846-0.648-0.068 0.019-0.221-0.11-0.27-0.204-0.385-0.717-1.057-0.951-1.787-1.092l0.05-0.023zm-13.23 13.063c-0.012-0.055-0.023-0.11-0.035-0.166 0.225-0.123 0.484-0.385 0.67-0.341 0.469 0.112 0.904 0.359 1.348 0.563 0.084 0.04 0.145 0.181 0.221 0.184 0.383 0.02 0.766 0.01 1.15 0.01 0.047-0.058 0.096-0.115 0.143-0.173-0.156-0.247-0.318-0.492-0.473-0.741-0.311-0.503-0.934-0.88-0.58-1.644 0.1-0.215 0.039-0.519 0.014-0.777-0.066-0.659-0.15-1.317-0.234-1.974-0.023-0.179-0.158-0.444-0.088-0.517 0.65-0.665 0.178-1.448 0.336-2.146-0.658-0.196-0.707-0.287-0.572-1.133 0.223 0.177 0.395 0.315 0.564 0.452 0-0.941 0.021-1.879-0.006-2.815-0.035-1.213-0.072-1.231-1.047-1.06-0.029 0.005-0.066-0.047-0.227-0.171 0.303-0.328 0.596-0.646 0.896-0.973-0.084-0.031-0.266-0.143-0.307-0.104-0.609 0.571-1.201 1.162-1.709 1.662 0.381 0.545 0.684 0.977 1.01 1.442-0.613 0.854-0.557 1.194 0.348 1.907 0.129 0.1 0.174 0.306 0.258 0.462-0.055 0.032-0.109 0.063-0.164 0.095-0.15-0.134-0.303-0.268-0.539-0.478-0.109 0.417-0.205 0.771-0.301 1.136 0.791 0.29 0.295 0.646 0.062 0.977 0.734 0.681 0.01 1.532 0.289 2.258 0.008 0.019-0.068 0.06-0.078 0.097-0.076 0.303-0.168 0.605-0.213 0.915-0.039 0.264 0.006 0.541-0.035 0.804-0.07 0.434-0.182 0.859-0.262 1.221 0.189 0.051 0.344 0.092 0.498 0.134-0.129 0.096-0.244 0.24-0.389 0.275-0.408 0.104-0.828 0.163-1.311 0.251 0.3 0.155 0.53 0.262 0.75 0.368zm-29.539-2.185c0.125-0.467-0.039-1.062 0.694-1.24 0.278-0.068 0.596-0.36 0.708-0.628 0.184-0.436 0.223-0.909 0.887-0.602 0.062 0.029 0.202-0.111 0.315-0.179-0.1-0.087-0.172-0.151-0.113-0.099 0.324-0.245 0.618-0.508 0.951-0.704 0.201-0.119 0.464-0.133 0.7-0.195 0.034 0.067 0.068 0.134 0.104 0.2 0.414-0.397 0.83-0.795 1.166-1.116 0.3-0.186 0.531-0.328 0.762-0.47-0.029-0.05-0.059-0.099-0.087-0.149-0.149 0.057-0.297 0.115-0.354 0.137-0.213-0.193-0.377-0.342-0.68-0.618h0.812c0.228-0.524 0.493-1.071 0.698-1.639 0.062-0.17 0.029-0.505-0.086-0.586-0.621-0.437-0.484-1.366-1.178-1.753-0.105-0.059-0.08-0.352-0.138-0.655 0.515 0.457 0.908 0.805 1.315 1.167-0.6 0.519 0.167 0.728 0.32 1.229 0.294-1.819-1.307-3.35-2.608-3.428 0.32 0.3 0.622 0.583 0.924 0.866-0.044 0.047-0.087 0.094-0.131 0.142-0.327-0.224-0.654-0.449-1.045-0.717-0.313 0.841 0.68 1.092 0.694 1.729 0.019-0.173 0.037-0.348 0.065-0.606 0.459 0.174 0.701 0.405 0.505 0.837-0.297 0.654-0.047 1.445-0.596 2.053-0.198 0.22-0.126 0.667-0.233 0.992-0.117 0.354-0.283 0.695-0.464 1.023-0.066 0.119-0.229 0.194-0.362 0.264-0.123 0.064-0.286 0.066-0.391 0.148-0.151 0.117-0.244 0.311-0.398 0.42-0.827 0.584-1.745 1.076-1.975 1.971-0.316 0.148-0.622 0.219-0.625 0.305-0.029 0.64-0.526 1.252-0.136 1.917 0.005 0-0.014-0.017-0.013-0.016zm37.889-9.174c-0.068 0.41-0.266 0.93-0.092 1.213 0.176 0.289 0.242 0.445 0.17 0.773-0.104 0.48-0.096 0.985-0.123 1.48-0.002 0.032 0.092 0.069 0.141 0.104 0.164-0.193 0.322-0.378 0.568-0.664 0.02 0.327-0.014 0.53 0.051 0.696 0.105 0.269 0.211 0.61 0.426 0.75 0.467 0.301 1.002 0.494 1.566 0.758-0.271 0.139-0.447 0.228-0.781 0.397 2.133 0.152 2.164 0.149 2.748-0.238-0.049-0.042-0.117-0.129-0.145-0.118-0.82 0.335-1.279-0.164-1.738-0.715-0.205-0.248-0.477-0.441-0.703-0.672-0.166-0.169-0.475-0.405-0.439-0.535 0.23-0.839-0.094-1.51-0.639-2.209 0.262 0.016 0.41 0.025 0.561 0.035-0.48-1.124 0.697-1.529 0.885-2.354-1.025-0.396-1.389-0.35-1.92 0.295 0.494 0.501 0.277 2.002-0.418 2.323 0.037-0.622 0.072-1.201 0.105-1.788-0.07 0.162-0.19 0.307-0.22 0.469zm-37.53 10.085c0.162 0.043 0.438 0.049 0.467 0.136 0.203 0.607 0.571 0.295 0.937 0.242 0.345-0.05 0.792-0.162 0.885 0.422 0.014 0.089 0.176 0.185 0.289 0.225 0.596 0.205 1.191 0.418 1.799 0.578 0.4 0.105 0.958-0.157 0.938-0.388-0.048-0.535 0.207-0.684 0.892-0.494-0.421-0.385-0.689-0.631-1.047-0.958 0.3-0.173 0.593-0.342 0.886-0.511-0.216 0.542-0.264 0.891 0.474 1.092 0-0.32 0.09-0.649-0.019-0.887-0.22-0.478-0.621-0.258-0.961-0.11-0.749 0.326-1.428-0.002-2.171-0.125-0.203 0.419-0.474 0.347-0.776-0.043-0.327-0.42-1.359-0.396-1.441 0.075-0.133 0.766-0.599 0.792-1.17 0.769l0.02-0.023zm0.24-8.497c0.118 0.275 0.194 0.453 0.295 0.691-0.814 0.053-0.825-0.652-0.993-0.892-0.137 0.287-0.3 0.626-0.462 0.965-0.084-0.037-0.167-0.073-0.25-0.11 0.064-0.153 0.13-0.305 0.191-0.46 0.051-0.132 0.167-0.293 0.13-0.396-0.142-0.396-0.334-0.773-0.508-1.157 0.071 0.875-0.263 1.83 0.315 2.644 0.206 0.288 0.609 0.516 0.962 0.597 0.368 0.084 0.708-0.107 0.737-0.604 0.007-0.101 0.233-0.189 0.39-0.307-0.24-0.306-0.07-0.909-0.8-0.971zm63.4-0.995c-0.176 0.019-0.352 0.037-0.592 0.062 0.092 0.321 0.365 0.778 0.244 0.943-0.342 0.462 0.027 0.606 0.236 0.805 0.326 0.31 0.693 0.576 1.021 0.844 0.068-0.178 0.166-0.432 0.283-0.742 0.152 0.289 0.229 0.434 0.305 0.577 0.07-0.042 0.207-0.096 0.201-0.123-0.07-0.366-0.133-0.74-0.264-1.086-0.055-0.142-0.268-0.222-0.512-0.408 0.121 0.388 0.186 0.603 0.271 0.876-0.225 0-0.463 0.054-0.498-0.008-0.158-0.272-0.414-0.624-0.348-0.865 0.238-0.853-0.299-0.493-0.727-0.402 0.168-0.217 0.27-0.351 0.373-0.483l0.02 0.01zm-76.546-2.695c0.109 0.093 0.318 0.196 0.31 0.276-0.068 0.622 0.377 0.952 0.7 1.363 0.161 0.206 0.171 0.407 0.066 0.718-0.203 0.605-0.394 1.271 0.144 1.88 0.143 0.162 0.08 0.509 0.103 0.771 0.018 0.198 0.024 0.396 0.036 0.594l0.18-0.036c-0.079-0.666-0.158-1.331-0.243-2.042-0.754-0.65 0.31-1.161 0.287-1.794-0.157-0.079-0.367-0.123-0.482-0.253-0.093-0.105-0.093-0.312-0.088-0.473 0.001-0.033 0.237-0.116 0.32-0.078 0.506 0.232 0.699-0.096 1.017-0.472-0.445-0.028-0.758-0.048-1.162-0.074 0.125-0.194 0.2-0.31 0.273-0.425l-0.063-0.06c-0.14 0.111-0.279 0.222-0.537 0.425 0.276 0.088 0.493 0.156 0.71 0.226-0.093 0.098-0.187 0.196-0.28 0.293l-1.185-0.987c-0.035 0.05-0.07 0.099-0.106 0.148zm-6.792 13.03c0.967 0.635 1.263 0.769 1.735 0.669 0.175-0.037 0.358-0.169 0.469-0.312 0.06-0.076 0.024-0.338-0.055-0.392-0.61-0.415-1.104-0.892-1.152-1.691-0.333 1.181-0.521 1.518-0.997 1.726zm72.658-4.162c-0.191 0.033-0.379 0.079-0.568 0.1-0.182 0.02-0.365 0.012-0.549 0.017v-0.305c0.182 0.012 0.359 0.027 0.541 0.032 0.018 0 0.037-0.063 0.096-0.169h-1.572c0.195-0.339 0.322-0.556 0.447-0.773-0.068-0.035-0.137-0.07-0.207-0.105-0.154 0.306-0.309 0.612-0.48 0.955-0.062-0.089-0.123-0.194-0.201-0.282-0.076-0.085-0.174-0.153-0.287-0.25-0.037 0.839 0.201 0.999 0.959 0.668 0.076 0.194 0.152 0.388 0.215 0.546 0.514 0.037 1.025 0.073 1.529 0.109 0.025-0.228 0.045-0.391 0.062-0.554 0-0.002 0.02 0.012 0.02 0.011zm-41.43-4.121c0.708-0.116 1.202-0.196 1.669-0.272-0.318-0.338-0.671-0.712-0.997-1.058-0.21 0.415-0.4 0.789-0.67 1.33zm40.46 1.218c-0.541 0.235-0.971 0.58-1.193 1.174 0.328 0.027 0.617 0.051 0.957 0.078 0.08-0.434 0.156-0.85 0.23-1.266v0.014zm1.05-2.225c-0.387 0.355-0.781 0.694-0.693 1.319 0.012 0.091-0.271 0.225-0.432 0.35 0.021 0.146 0.053 0.352 0.082 0.557 0-0.002-0.006-0.013-0.006-0.015 0.164-0.391 0.912-0.541 0.479-1.174 0.098-0.041 0.242-0.054 0.281-0.125 0.152-0.287 0.688-0.468 0.283-0.926l0.01 0.014zm-53.06 8.469c-0.113-0.311-0.227-0.621-0.341-0.932-0.001-0.001 0.018 0.015 0.017 0.014-0.207-0.134-0.414-0.268-0.734-0.475 0 0.298-0.037 0.498 0.007 0.677 0.135 0.555 0.681 0.512 1.071 0.694 0 0-0.02 0.023-0.02 0.022zm39.04-2.259c-0.408 0.217-0.66 0.351-1.02 0.541 0.947 0.461 0.143 1.171 0.387 1.667 0.18-0.638 0.38-1.323 0.63-2.208zm-70.256-4.697c0.461-0.311 0.656-0.995 0.301-1.592-0.198 0.583-0.355 1.042-0.512 1.501 0.07 0.03 0.14 0.061 0.211 0.091zm73.626-4.834c0.104-0.79 0.621 0.025 0.859-0.227-0.908-0.504-1.463-0.485-1.691 0.053 0.283 0.05 0.568 0.101 0.854 0.151 0 0.002-0.02 0.024-0.02 0.023zm13.05 6.627v1.065c0.324-0.377 0.529-0.616 0.756-0.88-0.42-0.101-0.63-0.152-0.76-0.185zm-2.19 1.514c-0.098-0.002-0.197 0.199-0.295 0.308 0.002 0.001-0.016-0.013-0.014-0.012 0.383 0.185 0.766 0.37 1.18 0.569-0.229-0.214-0.42-0.393-0.75-0.702 0.457 0.071 0.719 0.112 0.98 0.153-0.01-0.064-0.02-0.128-0.029-0.191-0.35-0.046-0.71-0.12-1.07-0.125zm-71.595-1.449c-0.001-0.411-0.003-0.411-0.761-0.524 1.073 0.517 0.473 1.415 0.762 2.129 0-0.57 0.001-1.088-0.001-1.605zm56.185 4.866c0.076-0.377 0.156-0.773 0.252-1.241-0.63 0.253-0.66 0.519-0.25 1.241zm1.39-2.554c-0.859-0.351-1.238-0.198-1.311 0.313 0.43-0.101 0.83-0.198 1.31-0.313zm-40.455 4.262c0.34-0.229 0.68-0.458 1.021-0.687-0.024-0.04-0.049-0.08-0.073-0.121-0.367 0.142-0.735 0.283-1.167 0.449 0.071 0.129 0.142 0.244 0.212 0.359zm54.255-9.961c0.285-0.102 0.574-0.193 0.854-0.306 0.113-0.045 0.205-0.142 0.305-0.214-0.154-0.209-0.307-0.418-0.461-0.628 0.221 0.488 0.166 0.768-0.434 0.811-0.094 0.006-0.172 0.229-0.256 0.353 0 0-0.01-0.014-0.01-0.016zm-39.94-3.205c0.343-0.088 0.686-0.176 1.032-0.264-0.01-0.135-0.021-0.288-0.025-0.355-0.385 0.167-0.75 0.327-1.114 0.486 0.04 0.044 0.07 0.088 0.11 0.133zm-32.042-0.672l-1.032 0.495c0.032 0.067 0.064 0.134 0.097 0.201 0.348-0.154 0.696-0.309 1.043-0.464-0.035-0.077-0.071-0.155-0.108-0.232zm-25.631 8.694c0.333 0.054 0.667 0.11 1.001 0.165 0.017-0.076 0.034-0.152 0.051-0.229-0.333-0.078-0.667-0.155-1-0.233-0.018 0.099-0.035 0.198-0.052 0.297zm108.22-5.857c0.078-0.474 0.156-0.947 0.234-1.419-0.076-0.007-0.152-0.014-0.229-0.02v1.451-0.012z" fill="#2E3191"/>
</g>
<metadata><rdf:RDF><cc:Work><dc:format>image/svg+xml</dc:format><dc:type rdf:resource="http://purl.org/dc/dcmitype/StillImage"/><cc:license rdf:resource="http://creativecommons.org/licenses/publicdomain/"/><dc:publisher><cc:Agent rdf:about="http://openclipart.org/"><dc:title>Openclipart</dc:title></cc:Agent></dc:publisher><dc:title>"Notarized" Stamp</dc:title><dc:date>2013-01-18T15:14:04</dc:date><dc:description>A "Notarized" stamp.</dc:description><dc:source>http://openclipart.org/detail/174327/notarized-stamp-by-jhnri4-174327</dc:source><dc:creator><cc:Agent><dc:title>jhnri4</dc:title></cc:Agent></dc:creator><dc:subject><rdf:Bag><rdf:li>clip art</rdf:li><rdf:li>clipart</rdf:li><rdf:li>notarized</rdf:li><rdf:li>rubber</rdf:li><rdf:li>stamp</rdf:li></rdf:Bag></dc:subject></cc:Work><cc:License rdf:about="http://creativecommons.org/licenses/publicdomain/"><cc:permits rdf:resource="http://creativecommons.org/ns#Reproduction"/><cc:permits rdf:resource="http://creativecommons.org/ns#Distribution"/><cc:permits rdf:resource="http://creativecommons.org/ns#DerivativeWorks"/></cc:License></rdf:RDF></metadata></svg>
